SplineFontDB: 3.0
FontName: CMUBright-SemiBoldOblique
FullName: CMU Bright SemiBold Oblique
FamilyName: CMU Bright
Weight: SemiBold
Copyright: Converted by Andrey V. Panov from TeX fonts
UComments: "2009-6-18: Created." 
Version: 0.7.0
ItalicAngle: -12
UnderlinePosition: -100
UnderlineWidth: 50
Ascent: 800
Descent: 200
LayerCount: 2
Layer: 0 0 "+BBcEMAQ0BD0EOAQ5 +BD8EOwQwBD0A"  1
Layer: 1 0 "+BB8ENQRABDUENAQ9BDgEOQAA +BD8EOwQwBD0A"  0
NeedsXUIDChange: 1
XUID: [1067 8488220]
FSType: 0
OS2Version: 0
OS2_WeightWidthSlopeOnly: 0
OS2_UseTypoMetrics: 1
CreationTime: 1245318350
ModificationTime: 1245318706
PfmFamily: 17
TTFWeight: 600
TTFWidth: 5
LineGap: 200
VLineGap: 90
OS2TypoAscent: 0
OS2TypoAOffset: 1
OS2TypoDescent: 0
OS2TypoDOffset: 1
OS2TypoLinegap: 200
OS2WinAscent: 899
OS2WinAOffset: 0
OS2WinDescent: 268
OS2WinDOffset: 0
HheadAscent: 899
HheadAOffset: 0
HheadDescent: -268
HheadDOffset: 0
Lookup: 1 0 0 "Case substitutions"  {"Case substitutions subtable"  } ['case' ('cyrl' <'dflt' > 'grek' <'dflt' > 'latn' <'dflt' > ) ]
Lookup: 3 0 0 "Greek alternatives"  {"Greek alternatives subtable"  } ['salt' ('grek' <'dflt' > ) ]
Lookup: 1 0 0 "Greek substitutions"  {"Greek substitutions subtable"  } ['locl' ('grek' <'dflt' > ) ]
Lookup: 4 0 1 "Latin Dutch ligatures"  {"Latin Dutch ligatures subtable"  } ['liga' ('latn' <'NLD ' > ) ]
Lookup: 4 0 1 "Latin ligatures excepting Turkic"  {"Latin ligatures excepting Turkic subtable"  } ['liga' ('latn' <'dflt' 'NLD ' 'VIT ' > ) ]
Lookup: 4 0 1 "Latin ligatures"  {"Latin ligatures subtable"  } ['liga' ('latn' <'dflt' 'NLD ' 'VIT ' 'TRK ' 'AZE ' > ) ]
Lookup: 4 0 1 "Cyrillic ligatures"  {"Cyrillic ligatures subtable"  } ['liga' ('cyrl' <'dflt' 'MKD ' 'SRB ' > ) ]
Lookup: 3 0 0 "Latin alternatives"  {"Latin alternatives subtable"  } ['salt' ('latn' <'dflt' > ) ]
Lookup: 3 0 0 "Stilistic set 01"  {"Stilistic set 01 subtable"  } ['ss01' ('latn' <'dflt' > 'grek' <'dflt' > 'cyrl' <'dflt' > ) ]

StartChar: .notdef
Encoding: 0 0 0
Width: 760
Flags: HW
HStem: 10 60<105 655> 705 60<105 655>
VStem: 10 60<112 663> 690 60<112 663>
DStem2: 105 705 70 663 0.702289 -0.711892<5.31938 389.612 448.699 832.991> 70 112 105 70 0.702289 0.711892<0 384.292 443.379 827.672>
LayerCount: 2
Fore
SplineSet
10 10 m 1
 10 765 l 1
 750 765 l 1
 750 10 l 1
 10 10 l 1
70 112 m 1
 346 388 l 1
 70 663 l 1
 70 112 l 1
105 70 m 1
 655 70 l 1
 380 346 l 1
 105 70 l 1
105 705 m 1
 380 429 l 1
 655 705 l 1
 105 705 l 1
414 388 m 1
 690 112 l 1
 690 663 l 1
 414 388 l 1
EndSplineSet
EndChar

StartChar: uni262D
Encoding: 9773 9773 1
Width: 700
Flags: HW
TeX: 117 0
HStem: -1 21G<56 93 593.5 601> 39 76<321.786 462.78> 102 51<140.549 177.987> 466 20G<232 347>
VStem: 129 54<101.776 137.734> 556 82<197.341 366.709>
DStem2: 123 357 178 301 0.707107 0.707107<0 86.9741 130.108 182.434>
LayerCount: 2
Fore
SplineSet
40 18 m 0
 40 64 129 102 129 128 c 0
 129 148 134 153 148 153 c 0xbc
 162 153 164 157 182 180 c 1
 229 156 307 115 390 115 c 0
 438 115 463 128 463 129 c 0
 463 135 406 186 240 363 c 1
 178 301 l 1
 123 357 l 1
 252 486 l 1
 347 470 l 1
 271 393 l 1
 484 190 l 1
 513 165 l 1
 519 165 556 218 556 295 c 0
 556 473 346 588 346 593 c 1
 394 593 638 478 638 267 c 0
 638 167 592 118 580 100 c 1
 636 44 637 42 637 38 c 0xdc
 637 17 605 -1 597 -1 c 2
 596 -1 l 2
 591 -1 590 1 529 62 c 1
 500 51 474 39 428 39 c 0xdc
 297 39 201 138 188 138 c 0
 183 138 182 134 182 130 c 0
 182 126 183 123 183 118 c 0
 183 108 178 102 168 102 c 0
 131 102 122 0 64 -0 c 0
 48 0 40 7 40 18 c 0
EndSplineSet
EndChar

StartChar: circumflex.cap
Encoding: 65536 -1 2
Width: 525
Flags: HW
HStem: 727 170
DStem2: 248 727 324 727 0.700784 0.713373<53.2596 215.85>
AnchorPoint: "above" 414 711 mark 0
LayerCount: 2
Fore
SplineSet
248 727 m 1
 415 897 l 1
 508 897 l 1
 586 727 l 1
 511 727 l 1
 442 839 l 1
 324 727 l 1
 248 727 l 1
EndSplineSet
EndChar

StartChar: caron.cap
Encoding: 65539 -1 5
Width: 525
Flags: HW
HStem: 727 162
AnchorPoint: "above" 414 711 mark 0
LayerCount: 2
Fore
SplineSet
274 889 m 1
 350 889 l 1
 429 782 l 1
 554 889 549 889 567 889 c 2
 629 889 l 1
 459 727 l 1
 375 727 l 1
 274 889 l 1
EndSplineSet
EndChar

StartChar: ring.cap
Encoding: 65540 -1 6
Width: 525
Flags: HW
HStem: 652 75<368.378 471.676> 819 75<382.528 484.503>
VStem: 307 59<730.037 809.309> 486 60<738.159 816.713>
AnchorPoint: "above" 413 711 mark 0
LayerCount: 2
Fore
SplineSet
307 748 m 0
 307 824 378 894 452 894 c 0
 510 894 546 852 546 799 c 0
 546 720 472 652 400 652 c 0
 344 652 307 693 307 748 c 0
366 757 m 0
 366 740 376 727 410 727 c 2
 414 727 l 1
 437 728 486 723 486 790 c 0
 486 819 463 819 439 819 c 2
 430 819 l 2
 405 819 366 816 366 757 c 0
EndSplineSet
EndChar

StartChar: breve.cap
Encoding: 65541 -1 7
Width: 525
Flags: HW
HStem: 727 83<363.873 512.978>
VStem: 265 77<834.047 889> 560 75<850.744 889>
AnchorPoint: "above" 414 711 mark 0
LayerCount: 2
Fore
SplineSet
265 859 m 0
 265 877 268 886 268 889 c 1
 344 889 l 1
 343 885 342 880 342 875 c 0
 342 835 384 810 435 810 c 0
 491 810 548 839 560 889 c 1
 635 889 l 1
 608 780 501 727 418 727 c 0
 331 727 265 780 265 859 c 0
EndSplineSet
EndChar

StartChar: uni026A
Encoding: 618 618 8
Width: 181
Flags: HW
HStem: 0 21G<32 152.267> 452 20G<127.733 248>
VStem: 32 216
DStem2: 32 0 148 0 0.207912 0.978148<24.1178 76.6877 78.7668 427.828 429.907 482.477>
AnchorPoint: "affricate-below" 146 -167 basechar 0
AnchorPoint: "affricate-above" 329 695 basechar 0
AnchorPoint: "below" 90 0 basechar 0
AnchorPoint: "above" 193 485 basechar 0
LayerCount: 2
Back
SplineSet
42 0 m 1
 142 472 l 1
 239 472 l 1
 138 0 l 1
 42 0 l 1
EndSplineSet
Fore
SplineSet
32 0 m 1
 48 75 l 1
 58 75 l 1
 126 397 l 1
 116 397 l 1
 132 472 l 1
 248 472 l 1
 232 397 l 1
 222 397 l 1
 154 75 l 1
 164 75 l 1
 148 0 l 1
 32 0 l 1
EndSplineSet
EndChar

StartChar: grave
Encoding: 96 96 9
Width: 525
Flags: HW
TeX: 666 0
HStem: 538 129
VStem: 243 200
LayerCount: 2
Fore
SplineSet
243 667 m 1
 339 667 l 1
 443 538 l 1
 367 538 l 1
 243 667 l 1
EndSplineSet
EndChar

StartChar: acute
Encoding: 180 180 10
Width: 525
Flags: HW
TeX: 666 0
ItalicCorrection: 83
HStem: 538 129
VStem: 309 255
LayerCount: 2
Fore
SplineSet
309 538 m 1
 468 667 l 1
 564 667 l 1
 376 532 392 538 372 538 c 2
 309 538 l 1
EndSplineSet
EndChar

StartChar: circumflex
Encoding: 710 710 11
Width: 525
Flags: HW
TeX: 666 0
HStem: 628 47<371.59 396>
DStem2: 444 675 396 628 0.590603 -0.806962<9.57829 126.126>
LayerCount: 2
Fore
SplineSet
207 538 m 1
 367 675 l 1
 444 675 l 1
 545 537 l 1
 469 537 l 1
 396 628 l 1
 395 628 l 1
 287 541 286 537 273 537 c 0
 259 537 245 537 231 537 c 0
 223 537 215 538 207 538 c 1
EndSplineSet
EndChar

StartChar: tilde
Encoding: 732 732 12
Width: 525
Flags: HW
TeX: 666 0
ItalicCorrection: 83
HStem: 510 76<397.473 485.238> 559 75<281.379 367>
VStem: 195 75<510 548.036> 496 75<595.614 635>
LayerCount: 2
Fore
SplineSet
195 510 m 1xb0
 209 574 264 634 327 634 c 0x70
 379 634 411 586 452 586 c 0
 487 586 495 634 496 635 c 1
 571 635 l 1
 556 560 492 510 439 510 c 0xb0
 388 510 355 559 314 559 c 0x70
 305 559 281 554 270 510 c 1
 195 510 l 1xb0
EndSplineSet
EndChar

StartChar: ring
Encoding: 730 730 15
Width: 730
Flags: HW
TeX: 666 0
HStem: 510 33<434.491 530.815> 640 32<449.534 543.985>
VStem: 372 58<546.432 626.459> 549 58<556.38 636.326>
LayerCount: 2
Fore
SplineSet
372 580 m 0
 372 623 428 672 507 672 c 0
 563 672 607 645 607 603 c 0
 607 561 553 510 472 510 c 0
 416 510 372 538 372 580 c 0
430 576 m 0
 430 551 447 543 478 543 c 0
 505 543 549 549 549 606 c 0
 549 631 532 640 501 640 c 2
 499 640 l 2
 484 640 430 638 430 576 c 0
EndSplineSet
EndChar

StartChar: caron
Encoding: 711 711 16
Width: 525
Flags: HW
TeX: 666 0
HStem: 536 131
DStem2: 293 667 218 667 0.67547 -0.737388<0 126.994> 384 576 414 536 0.802744 0.596324<0.229355 157.819>
LayerCount: 2
Fore
SplineSet
218 667 m 1
 293 667 l 1
 384 576 l 1
 513 667 l 1
 558 667 l 1
 589 666 l 1
 414 536 l 1
 338 536 l 1
 218 667 l 1
EndSplineSet
EndChar

StartChar: breve
Encoding: 728 728 17
Width: 525
Flags: HW
TeX: 666 0
ItalicCorrection: 91
HStem: 513 82<314.274 468.609> 647 20G<219 296 477.556 587>
VStem: 217 78<614.687 667> 512 75<631.672 667>
LayerCount: 2
Fore
SplineSet
217 638 m 0
 217 648 218 657 220 667 c 1
 296 667 l 1
 296 664 295 660 295 657 c 0
 295 608 350 595 388 595 c 0
 495 595 512 667 512 667 c 1
 587 667 l 1
 562 567 460 513 371 513 c 0
 285 513 217 563 217 638 c 0
EndSplineSet
EndChar

StartChar: macron
Encoding: 175 175 18
Width: 525
Flags: HW
TeX: 666 0
ItalicCorrection: 97
HStem: 604 80<218 580>
LayerCount: 2
Fore
SplineSet
201 604 m 1
 218 684 l 1
 597 684 l 1
 580 604 l 1
 201 604 l 1
EndSplineSet
EndChar

StartChar: cedilla
Encoding: 184 184 20
Width: 467
Flags: HW
TeX: 0 145
HStem: -163 145
VStem: 82 185
DStem2: 82 -163 168 -163 0.600882 0.799338<51.6758 181.4>
LayerCount: 2
Fore
SplineSet
82 -163 m 1
 191 -18 l 1
 267 -18 l 1
 168 -163 l 1
 82 -163 l 1
EndSplineSet
EndChar

StartChar: ogonek
Encoding: 731 731 21
Width: 292
Flags: HW
TeX: 0 166
HStem: -210 90<4.5 108.403>
VStem: -67 105<-156.5 -75.2487>
LayerCount: 2
Fore
SplineSet
-67 -133 m 0
 -67 -39 81 2 153 59 c 1
 154 59 l 1
 175 -0 l 1
 124 -38 80 -42 49 -81 c 0
 41 -91 38 -97 38 -102 c 0
 38 -112 48 -120 63 -120 c 0
 88 -120 118 -98 141 -70 c 1
 194 -113 l 1
 194 -114 l 1
 159 -155 103 -210 31 -210 c 0
 -22 -210 -67 -180 -67 -133 c 0
EndSplineSet
EndChar

StartChar: guilsinglleft
Encoding: 8249 8249 23
Width: 408
Flags: HW
TeX: 500 0
ItalicCorrection: 47
VStem: 169 212
LayerCount: 2
Fore
SplineSet
169 250 m 1
 305 425 l 1
 381 425 l 1
 265 250 l 1
 307 75 l 1
 231 75 l 1
 169 250 l 1
EndSplineSet
EndChar

StartChar: guilsinglright
Encoding: 8250 8250 24
Width: 408
Flags: HW
TeX: 500 0
ItalicCorrection: 47
VStem: 132 212
LayerCount: 2
Fore
SplineSet
132 75 m 1
 247 250 l 1
 206 425 l 1
 282 425 l 1
 344 250 l 1
 207 75 l 1
 132 75 l 1
EndSplineSet
EndChar

StartChar: guillemotleft.lat
Encoding: 61696 61696 28
Width: 525
Flags: HW
TeX: 500 0
ItalicCorrection: 83
LayerCount: 2
Fore
SplineSet
169 250 m 1
 329 425 l 1
 404 425 l 1
 265 250 l 1
 330 75 l 1
 254 75 l 1
 169 250 l 1
344 250 m 1
 504 425 l 1
 579 425 l 1
 440 250 l 1
 505 75 l 1
 429 75 l 1
 344 250 l 1
EndSplineSet
EndChar

StartChar: guillemotright.lat
Encoding: 61697 61697 29
Width: 525
Flags: HW
TeX: 500 0
LayerCount: 2
Fore
SplineSet
50 75 m 1
 189 250 l 1
 124 425 l 1
 200 425 l 1
 285 250 l 1
 125 75 l 1
 50 75 l 1
225 75 m 1
 364 250 l 1
 299 425 l 1
 375 425 l 1
 460 250 l 1
 300 75 l 1
 225 75 l 1
EndSplineSet
EndChar

StartChar: endash
Encoding: 8211 8211 30
Width: 525
Flags: HW
TeX: 472 0
ItalicCorrection: 91
HStem: 254 76<70 579>
LayerCount: 2
Fore
SplineSet
54 254 m 1
 70 330 l 1
 594 330 l 1
 579 254 l 1
 54 254 l 1
EndSplineSet
EndChar

StartChar: emdash
Encoding: 8212 8212 31
Width: 1050
Flags: HW
TeX: 472 0
ItalicCorrection: 91
HStem: 254 76<70 1104>
LayerCount: 2
Fore
SplineSet
54 254 m 1
 70 330 l 1
 1119 330 l 1
 1104 254 l 1
 54 254 l 1
EndSplineSet
Substitution2: "Cyrillic substitutions subtable" emdash.cyr
AlternateSubs2: "Cyrillic alternatives subtable" emdash.cyr
EndChar

StartChar: dotlessi
Encoding: 305 305 33
Width: 225
Flags: HW
TeX: 472 0
ItalicCorrection: 64
HStem: -0 21G<65 163.28> 452 20G<160.763 260>
VStem: 65 195
DStem2: 65 -0 159 -0 0.207912 0.978148<19.5437 482.477>
AnchorPoint: "below" 112 0 basechar 0
AnchorPoint: "above" 215 485 basechar 0
LayerCount: 2
Fore
SplineSet
65 -0 m 1
 165 472 l 1
 260 472 l 1
 159 -0 l 1
 65 -0 l 1
EndSplineSet
EndChar

StartChar: dotlessj
Encoding: 567 567 34
Width: 254
Flags: HW
TeX: 472 166
ItalicCorrection: 64
HStem: -175 79<-74.8243 72.1977> 452 20G<190.745 289>
DStem2: 57.3676 -175 151.368 -175 0.207912 0.978148<87.0593 661.477>
AnchorPoint: "below" 51 -167 basechar 0
AnchorPoint: "above" 244 485 basechar 0
LayerCount: 2
Fore
SplineSet
-107 -146 m 1
 -65 -70 l 1
 -48 -83 -31 -96 4 -96 c 0
 28 -96 67 -88 79 -66 c 0
 83 -60 84 -52 85 -45 c 2
 195 472 l 1
 289 472 l 1
 179 -45 l 2
 176 -57 172 -92 134 -128 c 0
 100 -161 57 -175 16 -175 c 0
 -38 -175 -80 -160 -107 -146 c 1
EndSplineSet
EndChar

StartChar: ff
Encoding: 64256 64256 35
Width: 612
Flags: HW
TeX: 694 0
ItalicCorrection: 220
HStem: 0 21G<98 196.232 389 487.282> 397 75<128 182 290 385 582 676> 627 76<337.408 496.311 628.65 788.164>
DStem2: 98 0 192 0 0.207912 0.978148<19.5437 405.789 501.605 638.784> 389 0 483 0 0.207912 0.978148<19.5437 425.541 501.813 639.315>
LayerCount: 2
Fore
SplineSet
389 0 m 1
 498 509 l 2
 506 545 508 570 531 605 c 0
 547 628 607 703 720 703 c 0
 745 703 770 701 803 695 c 1
 785 610 l 1
 761 619 744 627 704 627 c 0
 647 627 618 600 609 586 c 0
 603 577 601 564 582 472 c 1
 692 472 l 1
 676 397 l 1
 568 397 l 1
 483 0 l 1
 389 0 l 1
EndSplineSet
Refer: 110 102 S 1 0 0 1 0 0 2
Ligature2: "Latin ligatures subtable" f f
EndChar

StartChar: fi
Encoding: 64257 64257 36
Width: 550
Flags: HW
TeX: 694 0
ItalicCorrection: 112
HStem: 0 21G<98 196.232 389 487.28> 397 75<128 182 290 393> 452 20<484.763 584> 601 94<537 611> 627 76<329.39 441.337>
VStem: 389 195 517 114
DStem2: 98 0 192 0 0.207912 0.978148<19.5437 405.789 501.605 649.74> 389 0 483 0 0.207912 0.978148<19.5437 482.477>
LayerCount: 2
Fore
SplineSet
98 0 m 1
 182 397 l 1
 113 397 l 1
 128 472 l 1xc0
 198 472 l 1
 213 540 215 565 231 595 c 0
 257 646 315 703 395 703 c 0xa8
 415 703 436 700 456 695 c 1x90
 438 609 l 1
 418 621 402 627 379 627 c 0
 347 627 325 606 316 586 c 0
 311 576 309 564 290 472 c 1xc8
 408 472 l 1xa0
 393 397 l 1
 276 397 l 1
 192 0 l 1
 98 0 l 1
EndSplineSet
Refer: 365 183 S 1 0 0 1 392 398 2
Refer: 33 305 S 1 0 0 1 324 0 2
Ligature2: "Latin ligatures excepting Turkic subtable" f i
EndChar

StartChar: fl
Encoding: 64258 64258 37
Width: 550
Flags: HW
TeX: 694 0
ItalicCorrection: 112
HStem: -0 21G<98 196.232 389 487.259> 397 75<128 182 290 393> 627 76<329.44 441.383> 675 20<536 631>
VStem: 389 242
DStem2: 98 0 192 0 0.207912 0.978148<19.5437 405.789 501.605 649.77> 389 0 483 0 0.207912 0.978148<19.5437 709.397>
LayerCount: 2
Fore
SplineSet
98 -0 m 1
 182 397 l 1
 113 397 l 1
 128 472 l 1
 198 472 l 1
 213 540 215 565 231 595 c 0
 257 646 315 703 395 703 c 0xe8
 415 703 436 700 456 695 c 1xd8
 438 610 l 1
 420 619 404 627 380 627 c 0
 313 627 311 569 290 472 c 1
 408 472 l 1
 393 397 l 1
 276 397 l 1
 192 -0 l 1
 98 -0 l 1
EndSplineSet
Refer: 116 108 S 1 0 0 1 324 0 2
Ligature2: "Latin ligatures subtable" f l
EndChar

StartChar: ffi
Encoding: 64259 64259 38
Width: 842
Flags: HW
TeX: 694 0
ItalicCorrection: 112
HStem: 0 21G<98 196.232 390 488.232 682 780.28> 397 75<128 182 290 393 582 684> 452 20<777.763 877> 600 94<829 903> 627 76<332.129 468.516 621.643 732.663>
VStem: 682 195 809 114
DStem2: 98 0 192 0 0.207912 0.978148<19.5437 405.789 501.605 643.316> 390 0 484 0 0.207912 0.978148<19.5437 425.333 501.605 648.313> 682 0 776 0 0.207912 0.978148<19.5437 482.477>
LayerCount: 2
Fore
SplineSet
98 0 m 1
 182 397 l 1
 113 397 l 1
 128 472 l 1xc0
 198 472 l 1xa0
 217 562 217 567 232 594 c 0
 262 650 327 703 413 703 c 0
 436 703 460 700 483 695 c 1
 465 610 l 1
 439 621 424 627 396 627 c 0
 349 627 326 603 318 588 c 0
 313 579 310 565 290 472 c 1xc8
 408 472 l 1xa0
 393 397 l 1
 276 397 l 1
 192 0 l 1
 98 0 l 1
390 0 m 1
 497 506 l 2
 503 532 506 561 522 593 c 0
 548 645 607 703 688 703 c 0
 708 703 729 699 748 695 c 1
 729 610 l 1
 712 620 696 627 671 627 c 0xc8
 606 627 600 555 600 555 c 1
 582 472 l 1xc8
 700 472 l 1xa0
 684 397 l 1
 568 397 l 1
 484 0 l 1
 390 0 l 1
EndSplineSet
Refer: 113 105 S 1 0 0 1 617 0 2
Ligature2: "Latin ligatures excepting Turkic subtable" ff i
Ligature2: "Latin ligatures excepting Turkic subtable" f f i
EndChar

StartChar: ffl
Encoding: 64260 64260 39
Width: 842
Flags: HW
TeX: 694 0
ItalicCorrection: 112
HStem: 0 21G<98 196.232 390 488.232 681 779.259> 397 75<128 182 290 393 582 684> 627 76<331.766 468.515 622.714 733.383> 675 20<828 923>
VStem: 681 242
DStem2: 98 0 192 0 0.207912 0.978148<19.5437 405.789 501.605 643.297> 390 0 484 0 0.207912 0.978148<19.5437 425.333 501.605 618.011> 681 0 775 0 0.207912 0.978148<19.5437 709.397>
LayerCount: 2
Fore
SplineSet
98 0 m 1
 182 397 l 1
 113 397 l 1
 128 472 l 1
 198 472 l 1
 217 562 217 567 232 594 c 0
 262 650 326 703 412 703 c 0
 436 703 460 700 483 695 c 1xd8
 465 610 l 1
 439 621 424 627 396 627 c 0
 349 627 326 603 318 588 c 0
 313 579 310 565 290 472 c 1
 408 472 l 1
 393 397 l 1
 276 397 l 1
 192 0 l 1
 98 0 l 1
390 0 m 1
 497 505 l 2
 503 531 506 560 521 591 c 0
 547 643 606 703 687 703 c 0xe8
 707 703 728 700 748 695 c 1xd8
 730 610 l 1
 712 619 696 627 672 627 c 0xe8
 634 627 615 600 608 586 c 0
 603 576 601 564 582 472 c 1
 700 472 l 1
 684 397 l 1
 568 397 l 1
 484 0 l 1
 390 0 l 1
EndSplineSet
Refer: 116 108 S 1 0 0 1 616 0 2
Ligature2: "Latin ligatures subtable" ff l
Ligature2: "Latin ligatures subtable" f f l
EndChar

StartChar: uni2423
Encoding: 9251 9251 40
Width: 525
Flags: HW
TeX: 472 83
ItalicCorrection: 38
HStem: -110 53<84 416>
DStem2: 404.734 -110 456.86 -110 0.207912 0.978148<54.1841 383.44>
LayerCount: 2
Fore
SplineSet
26 -87 m 0
 26 -83 26 -80 27 -76 c 2
 94 239 l 2
 95 244 100 276 128 276 c 0
 136 276 149 272 149 255 c 0
 149 248 149 253 84 -57 c 1
 416 -57 l 1
 478 238 l 2
 478 240 482 276 512 276 c 0
 523 276 534 268 534 255 c 0
 534 245 530 234 529 228 c 2
 466 -67 l 2
 459 -98 452 -110 423 -110 c 2
 54 -110 l 2
 47 -110 26 -110 26 -87 c 0
EndSplineSet
EndChar

StartChar: exclam
Encoding: 33 33 41
Width: 325
Flags: HW
TeX: 694 0
ItalicCorrection: 72
HStem: 0 117<128 220> 675 20G<250 368>
VStem: 103 142
DStem2: 115.001 0 209.001 0 0.207912 0.978148<231.168 706.902>
LayerCount: 2
Fore
SplineSet
159 207 m 1
 250 694 l 1
 251 695 l 1
 368 695 l 1
 253 207 l 1
 159 207 l 1
EndSplineSet
Refer: 54 46 S 1 0 0 1 16 0 2
EndChar

StartChar: numbersign
Encoding: 35 35 43
Width: 875
Flags: HW
TeX: 694 166
ItalicCorrection: 54
HStem: -166 21G<173.5 196 398.5 421> 120 75<94.6993 266 389 491 613 845.256> 333 75<140.641 372 495 596 719 890.301> 674 20G<563.5 585 787.5 809>
VStem: 147 78<-160.494 -133> 372 77<-160.965 -133> 535 78<659 688.56> 759 79<659 688.56>
DStem2: 266 120 351 120 0.446552 0.894758<-242.519 0 122.033 237.918 359.951 601.488> 491 120 575 120 0.446552 0.894758<-242.519 0 121.586 237.471 359.504 601.296>
LayerCount: 2
Fore
SplineSet
91 157 m 0
 91 175 103 191 122 195 c 1
 304 195 l 1
 372 333 l 1
 182 333 l 2
 141 333 137 361 137 371 c 0
 137 405 170 408 183 408 c 2
 410 408 l 1
 535 659 l 2
 542 673 551 694 576 694 c 0
 594 694 613 679 613 657 c 0
 613 642 614 647 495 408 c 1
 635 408 l 1
 759 659 l 2
 766 673 775 694 800 694 c 0
 818 694 838 679 838 657 c 0
 838 642 838 647 719 408 c 1
 846 408 l 2
 887 408 894 386 894 371 c 0
 894 353 882 338 863 334 c 0
 857 333 851 333 845 333 c 2
 681 333 l 1
 613 195 l 1
 790 195 l 2
 795 195 799 196 803 196 c 0
 844 196 849 167 849 157 c 0
 849 139 835 124 820 121 c 0
 813 119 805 120 797 120 c 2
 575 120 l 1
 449 -133 l 2
 442 -146 433 -166 409 -166 c 0
 388 -166 372 -149 372 -129 c 0
 372 -116 372 -119 491 120 c 1
 351 120 l 1
 225 -133 l 2
 218 -146 208 -166 184 -166 c 0
 163 -166 147 -149 147 -129 c 0
 147 -116 147 -119 266 120 c 1
 140 120 l 2
 99 120 91 142 91 157 c 0
389 195 m 1
 529 195 l 1
 596 333 l 1
 456 333 l 1
 389 195 l 1
EndSplineSet
EndChar

StartChar: dollar
Encoding: 36 36 44
Width: 525
Flags: HW
TeX: 750 55
ItalicCorrection: 110
HStem: -6 80<164.618 223> 621 80<449 504.492>
VStem: 162 93<448.254 556.818> 421 93<151.243 271.18>
DStem2: 213 -55 288 -55 0.207912 0.978148<15.5934 50.0084 151.509 376.681 489.74 688.025 788.547 822.962>
LayerCount: 2
Fore
SplineSet
60 61 m 1
 93 148 l 1
 107 134 147 88 240 74 c 1
 292 316 l 1
 261 325 162 353 162 469 c 0
 162 574 257 680 373 699 c 1
 384 750 l 1
 460 750 l 1
 449 701 l 1
 520 691 532 683 586 647 c 1
 554 564 l 1
 514 597 489 614 432 621 c 1
 386 406 l 1
 386 406 514 383 514 245 c 0
 514 135 424 20 299 -5 c 1
 288 -55 l 1
 213 -55 l 1
 223 -6 l 1
 164 2 112 18 60 61 c 1
255 502 m 0
 255 475 268 442 315 424 c 1
 356 618 l 1
 292 598 255 548 255 502 c 0
316 78 m 1
 389 102 421 168 421 212 c 0
 421 248 403 281 364 298 c 1
 316 78 l 1
EndSplineSet
EndChar

StartChar: percent
Encoding: 37 37 45
Width: 889
Flags: HW
TeX: 750 55
ItalicCorrection: 29
HStem: -55 75<648.629 724.745> 271 76<694.459 767.759> 347 76<260.399 335.905> 674 76<306.151 380.119>
VStem: 168 86<429.898 588.909> 391 88<498.494 665.474> 556 86<27.2362 187.097> 779 88<96.4688 263.274>
DStem2: 811 734 841 693 0.642515 0.766273<-992.586 24.9538>
LayerCount: 2
Fore
SplineSet
168 493 m 0
 168 623 268 750 367 750 c 0
 434 750 479 690 479 606 c 0
 479 474 379 347 282 347 c 0
 213 347 168 409 168 493 c 0
178 -31 m 0
 178 -22 183 -15 188 -9 c 2
 811 734 l 2
 816 740 824 749 836 749 c 0
 848 749 860 740 860 726 c 0
 860 715 850 705 841 693 c 2
 226 -40 l 2
 220 -47 211 -55 201 -55 c 0
 187 -55 178 -44 178 -31 c 0
254 474 m 0
 254 433 280 423 297 423 c 0
 344 423 391 521 391 599 c 0
 391 654 371 674 348 674 c 0
 327 674 304 657 291 633 c 0
 273 598 254 506 254 474 c 0
556 90 m 0
 556 221 657 347 755 347 c 0
 822 347 867 286 867 202 c 0
 867 72 768 -55 670 -55 c 0
 602 -55 556 6 556 90 c 0
642 71 m 0
 642 30 669 20 685 20 c 0
 735 20 779 122 779 196 c 0
 779 235 766 271 737 271 c 0
 714 271 691 252 679 230 c 0
 664 202 642 111 642 71 c 0
EndSplineSet
EndChar

StartChar: ampersand
Encoding: 38 38 46
Width: 783
Flags: HW
TeX: 694 0
ItalicCorrection: 46
HStem: -17 80<192.48 360.866 544.347 723.091> 636 75<397.691 487.856>
VStem: 72 99<85.7157 201.355> 261 89<405 544.157> 497 88<511.144 627.123>
DStem2: 267 348 285 279 0.835869 0.548929<-161.19 -22.8305 104.01 264.388>
LayerCount: 2
Fore
SplineSet
72 121 m 0
 72 186 113 241 153 273 c 0
 164 281 175 288 267 348 c 1
 263 382 261 390 261 417 c 0
 261 588 366 711 469 711 c 0
 539 711 585 657 585 584 c 0
 585 509 541 453 418 367 c 0
 402 356 387 345 370 335 c 1
 385 289 407 241 477 144 c 1
 597 224 673 359 713 438 c 1
 787 417 l 1
 742 321 657 190 529 93 c 1
 551 80 576 63 627 63 c 0
 680 63 718 78 742 85 c 1
 724 1 l 1
 680 -10 656 -17 611 -17 c 0
 504 -17 460 38 446 38 c 0
 432 38 350 -17 232 -17 c 0
 121 -17 72 54 72 121 c 0
171 140 m 0
 171 111 187 63 250 63 c 0
 311 63 363 83 391 94 c 1
 359 136 311 200 285 279 c 1
 242 251 171 217 171 140 c 0
350 461 m 0
 350 439 352 422 354 405 c 1
 502 500 495 550 497 574 c 1
 497 617 476 636 450 636 c 0
 417 636 377 607 362 559 c 0
 356 541 350 500 350 461 c 0
EndSplineSet
EndChar

StartChar: parenleft
Encoding: 40 40 48
Width: 408
Flags: HW
TeX: 750 222
ItalicCorrection: 130
VStem: 115 94<-67.8447 262.729>
LayerCount: 2
Fore
SplineSet
115 92 m 0
 115 289 197 548 378 707 c 0
 395 722 414 736 433 750 c 1
 509 750 l 1
 297 586 209 284 209 70 c 0
 209 -105 272 -183 302 -222 c 1
 226 -222 l 1
 198 -190 115 -106 115 92 c 0
EndSplineSet
EndChar

StartChar: parenright
Encoding: 41 41 49
Width: 408
Flags: HW
TeX: 750 222
ItalicCorrection: 26
VStem: 310 94<268.154 593.151>
LayerCount: 2
Fore
SplineSet
10 -221 m 1
 65 -179 217 -52 286 255 c 0
 304 334 310 397 310 458 c 0
 310 633 248 710 217 750 c 1
 292 750 l 1
 319 719 404 635 404 437 c 0
 404 240 323 -17 142 -177 c 0
 124 -193 105 -208 86 -222 c 1
 41 -222 l 1
 10 -221 l 1
EndSplineSet
EndChar

StartChar: asterisk
Encoding: 42 42 50
Width: 525
Flags: HW
TeX: 750 0
ItalicCorrection: 115
HStem: 408 70<173.533 242.917>
VStem: 298 74<324.737 418.418> 379 74<650.251 745.263>
LayerCount: 2
Fore
SplineSet
170 440 m 0
 170 455 179 470 192 478 c 0
 198 482 193 479 334 535 c 1
 211 594 207 590 207 613 c 0
 207 639 233 662 255 662 c 0
 271 662 279 651 362 573 c 1
 372 695 373 714 379 725 c 0
 387 740 404 750 421 750 c 0
 439 750 453 739 453 722 c 0
 453 716 452 712 405 573 c 1
 536 661 535 662 550 662 c 0
 569 662 581 645 581 629 c 0
 581 593 558 591 417 535 c 1
 541 476 544 479 544 456 c 0
 544 430 518 407 496 407 c 0
 480 407 473 416 389 496 c 1
 378 374 378 356 372 345 c 0
 364 330 347 320 330 320 c 0
 312 320 298 331 298 348 c 0
 298 362 306 378 345 496 c 1
 215 409 217 408 202 408 c 0
 184 408 170 422 170 440 c 0
EndSplineSet
EndChar

StartChar: plus
Encoding: 43 43 51
Width: 642
Flags: HW
TeX: 527 -1
ItalicCorrection: 26
HStem: 226 76<118.797 330 424 635.203>
VStem: 292 70<5.597 115.495> 391 71<409.588 522.423>
LayerCount: 2
Fore
SplineSet
115 264 m 0
 115 276 120 302 162 302 c 2
 347 302 l 1
 388 497 387 497 391 505 c 0
 397 518 411 526 425 526 c 0
 441 526 462 514 462 488 c 0
 462 479 463 487 424 302 c 1
 593 302 l 2
 634 302 639 274 639 264 c 0
 639 254 634 226 592 226 c 2
 407 226 l 1
 364 24 366 31 362 23 c 0
 355 11 343 2 329 2 c 0
 312 2 292 16 292 40 c 0
 292 49 291 41 330 226 c 1
 159 226 l 2
 120 226 115 254 115 264 c 0
EndSplineSet
EndChar

StartChar: comma
Encoding: 44 44 52
Width: 292
Flags: HW
TeX: 116 111
HStem: -111 228
VStem: 63 166
LayerCount: 2
Fore
SplineSet
63 -111 m 1
 122 0 l 1
 87 0 l 1
 112 117 l 1
 229 117 l 1
 208 17 l 1
 203 0 l 1
 122 -111 l 1
 63 -111 l 1
EndSplineSet
EndChar

StartChar: hyphen
Encoding: 45 45 53
Width: 350
Flags: HW
TeX: 472 0
ItalicCorrection: 21
HStem: 199 75<70 334>
VStem: 54 295
LayerCount: 2
Fore
SplineSet
54 199 m 1
 70 274 l 1
 349 274 l 1
 334 199 l 1
 54 199 l 1
EndSplineSet
EndChar

StartChar: period
Encoding: 46 46 54
Width: 292
Flags: HW
TeX: 116 0
HStem: 0 117<112 204>
VStem: 87 142
LayerCount: 2
Fore
SplineSet
87 0 m 1
 112 117 l 1
 229 117 l 1
 204 0 l 1
 87 0 l 1
EndSplineSet
EndChar

StartChar: slash
Encoding: 47 47 55
Width: 525
Flags: HW
TeX: 750 222
ItalicCorrection: 130
DStem2: 34 -148 95 -195 0.503564 0.863958<-38.911 1036.05>
LayerCount: 2
Fore
SplineSet
19 -185 m 0
 19 -170 28 -158 34 -148 c 2
 540 720 l 2
 544 728 555 750 580 750 c 0
 599 750 617 733 617 712 c 0
 617 699 610 689 605 680 c 2
 95 -195 l 2
 81 -219 72 -220 56 -222 c 1
 37 -222 19 -205 19 -185 c 0
EndSplineSet
EndChar

StartChar: zero
Encoding: 48 48 56
Width: 525
Flags: HW
TeX: 655 0
ItalicCorrection: 110
HStem: -17 76<214.101 344.048> 597 75<317.019 452.044>
VStem: 91 92<89.564 314.854> 482 90<342.118 565.911>
LayerCount: 2
Fore
SplineSet
91 179 m 0
 91 291 149 672 405 672 c 0
 462 672 572 650 572 475 c 0
 572 407 545 226 477 117 c 0
 404 0 309 -17 259 -17 c 0
 201 -17 91 5 91 179 c 0
183 166 m 0
 183 71 242 59 274 59 c 0
 398 59 432 212 454 314 c 0
 471 391 482 444 482 493 c 0
 482 576 434 597 389 597 c 0
 256 597 231 443 200 296 c 0
 197 283 183 218 183 166 c 0
EndSplineSet
Substitution2: "LGC old numerals subtable" zerooldstyle
EndChar

StartChar: one
Encoding: 49 49 57
Width: 525
Flags: HW
TeX: 655 0
ItalicCorrection: 110
HStem: 0 75<111 242 339 452> 531 76<218 341.077> 652 20G<438 466>
LayerCount: 2
Fore
SplineSet
95 0 m 1
 111 75 l 1
 242 75 l 1
 242 76 l 1
 343 552 l 1
 302 538 260 531 202 531 c 1
 218 607 l 1
 391 607 420 672 456 672 c 2
 466 672 l 1
 339 75 l 1
 468 75 l 1
 452 0 l 1
 95 0 l 1
EndSplineSet
Substitution2: "LGC old numerals subtable" oneoldstyle
EndChar

StartChar: two
Encoding: 50 50 58
Width: 525
Flags: HW
TeX: 655 0
ItalicCorrection: 110
HStem: -0 84<156 472> 593 79<285.001 431.113>
VStem: 472 102<413.596 552.511>
DStem2: 69 80 156 84 0.801157 0.598454<72.0945 417.898>
LayerCount: 2
Fore
SplineSet
52 -0 m 1
 69 80 l 1
 229 204 l 1
 346 290 472 367 472 487 c 0
 472 555 422 593 360 593 c 0
 262 593 217 503 196 459 c 1
 155 527 l 1
 187 579 249 672 390 672 c 0
 505 672 574 604 574 504 c 0
 574 365 457 309 322 208 c 2
 156 84 l 1
 490 84 l 1
 472 -0 l 1
 52 -0 l 1
EndSplineSet
Substitution2: "LGC old numerals subtable" twooldstyle
EndChar

StartChar: three
Encoding: 51 51 59
Width: 525
Flags: HW
TeX: 655 0
ItalicCorrection: 110
HStem: -17 77<169.877 345.435> 316 76<258 379.648> 597 75<296.038 449.379>
VStem: 420 103<141.727 287.299> 464 100<470.698 581.015>
LayerCount: 2
Fore
SplineSet
58 71 m 1
 88 147 l 1
 96 138 150 60 268 60 c 0
 385 60 420 169 420 225 c 0xf0
 420 310 347 317 317 317 c 0
 312 317 308 316 306 316 c 2
 242 316 l 1
 258 392 l 1
 308 396 325 396 341 400 c 0
 423 419 464 488 464 536 c 0
 464 560 452 597 385 597 c 0
 358 597 304 590 251 547 c 0
 237 535 225 523 213 509 c 1
 180 575 l 1
 277 669 372 672 399 672 c 0
 493 672 564 619 564 543 c 0xe8
 564 424 422 353 420 352 c 1
 489 326 523 272 523 219 c 0
 523 112 404 -17 252 -17 c 0
 128 -17 73 55 58 71 c 1
EndSplineSet
Substitution2: "LGC old numerals subtable" threeoldstyle
EndChar

StartChar: four
Encoding: 52 52 60
Width: 525
Flags: HW
TeX: 655 0
ItalicCorrection: 110
HStem: 0 21G<302 401.231> 156 80<174 335 447 528> 644 20G<409.785 537>
DStem2: 302 0 397 0 0.207912 0.978148<19.7516 159.452 260.99 596.873>
LayerCount: 2
Fore
SplineSet
62 156 m 1
 79 236 l 1
 426 664 l 1
 537 664 l 1
 447 236 l 1
 545 236 l 1
 528 156 l 1
 430 156 l 1
 397 0 l 1
 302 0 l 1
 335 156 l 1
 62 156 l 1
174 236 m 1
 357 236 l 1
 430 583 l 1
 403 523 343 446 174 236 c 1
EndSplineSet
Substitution2: "LGC old numerals subtable" fouroldstyle
EndChar

StartChar: five
Encoding: 53 53 61
Width: 525
Flags: HW
TeX: 655 0
ItalicCorrection: 110
HStem: -17 78<168.644 335.742> 346 76<273.652 400.586> 576 79<293 559>
VStem: 420 100<160.113 327.401>
DStem2: 74.5712 -17 166.702 -17 0.207912 0.978148<312.921 362.687 434.225 625.455>
LayerCount: 2
Fore
SplineSet
52 82 m 1
 110 151 l 1
 128 113 166 61 252 61 c 0
 380 61 403 166 413 213 c 0
 417 231 420 250 420 269 c 0
 420 331 379 346 345 346 c 0
 317 346 265 337 220 272 c 1
 136 272 l 1
 217 655 l 1
 576 655 l 1
 559 576 l 1
 293 576 l 1
 253 389 l 1
 283 407 316 422 361 422 c 0
 457 422 520 350 520 252 c 0
 520 105 380 -17 235 -17 c 0
 203 -17 107 -10 52 82 c 1
EndSplineSet
Substitution2: "LGC old numerals subtable" fiveoldstyle
EndChar

StartChar: six
Encoding: 54 54 62
Width: 525
Flags: HW
TeX: 655 0
ItalicCorrection: 110
HStem: -17 78<212.185 353.128> 597 75<360.029 555.275>
VStem: 95 90<88.5077 273.413> 441 96<185.236 368.237>
LayerCount: 2
Fore
SplineSet
95 188 m 0
 95 455 273 672 465 672 c 0
 509 672 538 665 569 653 c 1
 552 576 l 1
 514 591 492 597 451 597 c 0
 362 597 271 544 227 393 c 1
 219 361 l 1
 302 456 385 464 420 464 c 0
 449 464 484 458 510 410 c 0
 525 382 537 346 537 303 c 0
 537 272 529 203 502 148 c 0
 474 92 385 -17 260 -17 c 0
 194 -17 95 18 95 188 c 0
185 157 m 0
 185 80 232 61 278 61 c 0
 407 61 419 179 437 268 c 0
 439 282 441 296 441 310 c 0
 441 389 375 387 350 389 c 1
 201 374 185 210 185 157 c 0
EndSplineSet
Substitution2: "LGC old numerals subtable" sixoldstyle
EndChar

StartChar: seven
Encoding: 55 55 63
Width: 525
Flags: HW
TeX: 655 0
ItalicCorrection: 110
HStem: -8 21G<151 262.5> 572 83<182 536>
VStem: 151 100<-8 62.4114>
LayerCount: 2
Fore
SplineSet
151 -8 m 1
 208 248 364 444 536 572 c 1
 165 572 l 1
 182 655 l 1
 619 655 l 1
 599 558 614 592 543 520 c 0
 326 300 274 90 251 -8 c 1
 151 -8 l 1
EndSplineSet
Substitution2: "LGC old numerals subtable" sevenoldstyle
EndChar

StartChar: eight
Encoding: 56 56 64
Width: 525
Flags: HW
TeX: 655 0
ItalicCorrection: 110
HStem: -17 77<201.743 356.283> 316 76<269.825 402.522> 597 75<303.384 465.619>
VStem: 79 97<84.3465 234.397> 160 89<411.328 541.435> 428 95<139.462 290.412> 485 89<449.217 577.005>
LayerCount: 2
Fore
SplineSet
79 149 m 0xf4
 79 231 132 309 255 354 c 1
 191 377 160 424 160 470 c 0
 160 565 272 672 405 672 c 0
 501 672 574 614 574 527 c 0xea
 574 458 530 393 419 354 c 1
 491 329 523 273 523 219 c 0
 523 109 402 -17 258 -17 c 0
 155 -17 79 49 79 149 c 0xf4
176 142 m 0
 176 93 204 60 274 60 c 0
 392 60 411 146 421 183 c 1
 424 199 428 216 428 233 c 0xf4
 428 300 375 316 330 316 c 0
 194 316 176 185 176 142 c 0
249 463 m 0
 249 434 260 392 343 392 c 0xea
 468 392 485 485 485 527 c 0
 485 578 450 597 390 597 c 0
 335 597 281 583 259 516 c 0
 255 501 249 484 249 463 c 0
EndSplineSet
Substitution2: "LGC old numerals subtable" eightoldstyle
EndChar

StartChar: nine
Encoding: 57 57 65
Width: 525
Flags: HW
TeX: 655 0
ItalicCorrection: 110
HStem: -17 78<153.871 310.569> 597 75<310.064 452.088>
VStem: 125 96<287.114 468.366> 479 89<391.874 571.379>
LayerCount: 2
Fore
SplineSet
82 29 m 1
 82 30 l 1
 136 97 l 1
 164 72 187 61 229 61 c 0
 314 61 407 122 444 295 c 1
 355 191 265 192 241 191 c 1
 212 194 177 195 147 258 c 0
 135 284 125 315 125 353 c 0
 125 497 203 571 227 593 c 0
 282 644 337 672 409 672 c 0
 504 672 561 606 567 491 c 1
 568 465 l 1
 566 200 392 -17 213 -17 c 0
 158 -17 122 -4 82 29 c 1
221 345 m 0
 221 266 288 269 313 267 c 1
 433 276 479 397 479 506 c 0
 479 578 432 597 391 597 c 0
 257 597 244 479 226 390 c 0
 225 381 221 363 221 345 c 0
EndSplineSet
Substitution2: "LGC old numerals subtable" nineoldstyle
EndChar

StartChar: less
Encoding: 60 60 68
Width: 642
Flags: HW
TeX: 557 29
ItalicCorrection: 60
DStem2: 247 260 169 225 0.778219 -0.627993<0 398.369> 177 306 247 260 0.857493 0.514496<36.3577 523.447>
LayerCount: 2
Fore
SplineSet
144 263 m 0
 144 288 160 296 177 306 c 2
 602 561 l 2
 610 566 617 571 629 571 c 0
 652 571 667 552 667 533 c 0
 667 510 646 500 639 495 c 2
 247 260 l 1
 263 246 280 233 296 220 c 2
 520 39 l 2
 530 31 552 18 552 -5 c 0
 552 -25 537 -43 515 -43 c 0
 502 -43 493 -36 485 -30 c 2
 169 225 l 2
 157 235 144 243 144 263 c 0
EndSplineSet
EndChar

StartChar: equal
Encoding: 61 61 69
Width: 642
Flags: HW
TeX: 385 -142
ItalicCorrection: 52
HStem: 129 76<97.6914 614.434> 324 75<138.382 655.624>
LayerCount: 2
Fore
SplineSet
94 167 m 0
 94 182 103 200 125 204 c 0
 133 205 140 205 148 205 c 2
 571 205 l 2
 580 205 618 203 618 167 c 0
 618 155 613 129 570 129 c 2
 139 129 l 1
 99 130 94 156 94 167 c 0
135 361 m 0
 135 402 177 399 194 399 c 2
 608 399 l 2
 652 399 659 376 659 361 c 0
 659 351 654 324 613 324 c 2
 178 324 l 2
 139 324 135 352 135 361 c 0
EndSplineSet
EndChar

StartChar: greater
Encoding: 62 62 70
Width: 642
Flags: HW
TeX: 557 29
DStem2: 268 558 233 489 0.778219 -0.627993<-31.0353 367.334> 506 268 151 -33 0.857138 0.515087<-487.138 0>
LayerCount: 2
Fore
SplineSet
86 -5 m 0
 86 18 107 29 114 33 c 2
 506 268 l 1
 490 282 473 296 456 309 c 2
 233 489 l 2
 223 497 201 510 201 533 c 0
 201 553 216 571 238 571 c 0
 251 571 260 564 268 558 c 2
 584 303 l 2
 611 281 609 274 609 260 c 1
 607 250 608 242 577 223 c 2
 151 -33 l 2
 143 -38 136 -43 124 -43 c 0
 101 -43 86 -24 86 -5 c 0
EndSplineSet
EndChar

StartChar: question
Encoding: 63 63 71
Width: 496
Flags: HW
TeX: 694 0
ItalicCorrection: 118
HStem: 0 117<199 291> 627 76<265.591 452.984>
VStem: 174 142 230 94<207 289.567> 461 96<515.511 617.466>
LayerCount: 2
Fore
SplineSet
196 653 m 1
 256 684 312 703 385 703 c 0xd8
 479 703 557 672 557 583 c 0
 557 526 525 481 500 457 c 0
 475 434 380 385 342 282 c 0
 333 258 330 233 324 207 c 1
 230 207 l 1
 242 265 254 342 334 426 c 0
 404 500 461 499 461 580 c 0
 461 618 434 627 373 627 c 0
 303 627 256 605 209 574 c 1
 196 653 l 1
EndSplineSet
Refer: 54 46 S 1 0 0 1 87 0 2
EndChar

StartChar: at
Encoding: 64 64 72
Width: 700
Flags: HW
TeX: 694 0
ItalicCorrection: 74
HStem: -8 75<332.123 525.815> 119 76<435.008 542.924> 500 75<491.26 600.56> 627 76<441.455 602.15>
VStem: 124 93<183.358 393.617> 314 92<226.464 394.592> 628 108<346.213 470.812>
LayerCount: 2
Fore
SplineSet
124 272 m 0
 124 497 340 703 555 703 c 0
 645 703 736 664 736 507 c 0
 736 452 719 360 709 325 c 0
 673 205 567 119 469 119 c 0
 376 119 314 194 314 292 c 0
 314 439 441 575 566 575 c 0
 600 575 622 566 634 560 c 1
 615 614 574 627 538 627 c 0
 386 627 217 468 217 284 c 0
 217 159 300 67 425 67 c 0
 487 67 534 80 579 92 c 0
 589 94 599 93 609 93 c 2
 661 93 l 1
 605 41 507 -8 405 -8 c 0
 247 -8 124 104 124 272 c 0
406 303 m 0
 406 240 437 195 485 195 c 0
 548 195 628 277 628 393 c 0
 628 400 629 406 628 413 c 0
 624 467 589 500 549 500 c 0
 474 500 406 394 406 303 c 0
EndSplineSet
EndChar

StartChar: A
Encoding: 65 65 73
Width: 675
Flags: HW
TeX: 694 0
HStem: 0 21G<29 136.294 533.176 645> 170 79<267 500> 683 20G<418.592 545.902>
DStem2: 29 0 125 0 0.495473 0.868623<47.5655 242.797 334.21 725.914> 645 0 500 249 0.143589 -0.989637<-539.647 -267.24 -187.336 -15.6512>
AnchorPoint: "ogonek" 595 0 basechar 0
AnchorPoint: "below" 337 0 basechar 0
AnchorPoint: "above" 488 711 basechar 0
LayerCount: 2
Fore
SplineSet
29 0 m 1
 430 703 l 1
 543 703 l 1
 645 0 l 1
 536 0 l 1
 512 170 l 1
 221 170 l 1
 125 0 l 1
 29 0 l 1
267 249 m 1
 500 249 l 1
 481 385 458 557 458 591 c 2
 458 598 l 1
 396 479 l 1
 267 249 l 1
EndSplineSet
EndChar

StartChar: B
Encoding: 66 66 74
Width: 687
Flags: HW
TeX: 694 0
ItalicCorrection: 81
HStem: 0 80<199 471.067> 324 75<267 495.586> 615 80<313 554.553>
VStem: 572 99<155.226 264.637> 613 98<476.751 570.063>
DStem2: 82 0 181.995 0 0.207912 0.978148<102.577 352.265 428.745 649.588>
AnchorPoint: "below" 332 0 basechar 0
AnchorPoint: "above" 484 711 basechar 0
LayerCount: 2
Fore
SplineSet
82 0 m 1
 229 694 l 1
 230 695 l 1
 471 695 l 2
 657 695 711 603 711 542 c 0xe8
 711 471 645 398 508 364 c 1
 649 337 671 254 671 218 c 0
 671 127 563 20 409 3 c 0
 388 1 366 0 345 0 c 2
 82 0 l 1
199 80 m 1
 315 80 l 2
 324 80 333 79 342 79 c 0
 475 79 572 138 572 210 c 0xf0
 572 272 504 315 419 322 c 0
 404 323 388 324 373 324 c 2
 252 324 l 1
 199 80 l 1
267 399 m 1
 386 399 l 2
 537 399 613 476 613 527 c 0xe8
 613 580 536 615 427 615 c 2
 313 615 l 1
 267 399 l 1
EndSplineSet
EndChar

StartChar: C
Encoding: 67 67 75
Width: 671
Flags: HW
TeX: 694 0
ItalicCorrection: 118
HStem: -17 80<336.681 551.129> 632 79<448.205 651.364>
VStem: 129 106<174.32 390.933>
AnchorPoint: "below" 413 0 basechar 0
AnchorPoint: "above" 564 711 basechar 0
LayerCount: 2
Fore
SplineSet
129 267 m 0
 129 488 329 711 564 711 c 0
 657 711 714 690 749 677 c 1
 709 573 l 1
 689 588 644 632 546 632 c 0
 383 632 235 455 235 277 c 0
 235 164 300 63 426 63 c 0
 530 63 563 85 637 126 c 1
 626 39 l 1
 538 -6 496 -17 409 -17 c 0
 233 -17 129 110 129 267 c 0
EndSplineSet
EndChar

StartChar: D
Encoding: 68 68 76
Width: 746
Flags: HW
TeX: 694 0
ItalicCorrection: 74
HStem: 0 80<200 469.058> 615 80<314 570.947>
VStem: 666 102<298.671 523.534>
DStem2: 81 0 182.995 0 0.207912 0.978148<102.993 650.004>
AnchorPoint: "below" 362 0 basechar 0
AnchorPoint: "above" 513 711 basechar 0
LayerCount: 2
Fore
SplineSet
81 0 m 1
 228 694 l 1
 229 695 l 1
 497 695 l 2
 714 695 768 529 768 422 c 0
 768 221 602 28 406 3 c 0
 385 0 363 0 342 0 c 2
 81 0 l 1
200 80 m 1
 338 80 l 2
 397 80 466 86 534 136 c 0
 633 209 666 339 666 426 c 0
 666 517 625 615 460 615 c 2
 314 615 l 1
 200 80 l 1
EndSplineSet
EndChar

StartChar: E
Encoding: 69 69 77
Width: 625
Flags: HW
TeX: 694 0
ItalicCorrection: 118
HStem: 0 84<202 580> 320 80<270 605> 613 79<315 696>
DStem2: 80 0 184.145 0 0.207912 0.978148<107.53 348.768 430.762 648.464>
AnchorPoint: "ogonek" 330 0 basechar 0
AnchorPoint: "below" 330 0 basechar 0
AnchorPoint: "above" 481 711 basechar 0
LayerCount: 2
Fore
SplineSet
80 0 m 1
 227 692 l 1
 713 692 l 1
 696 613 l 1
 315 613 l 1
 270 400 l 1
 621 400 l 1
 605 320 l 1
 252 320 l 1
 202 84 l 1
 598 84 l 1
 580 0 l 1
 80 0 l 1
EndSplineSet
EndChar

StartChar: F
Encoding: 70 70 78
Width: 596
Flags: HW
TeX: 694 0
ItalicCorrection: 133
HStem: 0 21G<80 189.248> 306 80<267 572> 613 79<315 681>
DStem2: 80 0 185 0 0.207912 0.978148<21.8307 334.658 416.444 648.464>
AnchorPoint: "below" 315 0 basechar 0
AnchorPoint: "above" 467 711 basechar 0
LayerCount: 2
Fore
SplineSet
80 0 m 1
 227 692 l 1
 698 692 l 1
 681 613 l 1
 315 613 l 1
 267 386 l 1
 589 386 l 1
 572 306 l 1
 250 306 l 1
 185 0 l 1
 80 0 l 1
EndSplineSet
EndChar

StartChar: G
Encoding: 71 71 79
Width: 700
Flags: HW
TeX: 694 0
ItalicCorrection: 118
HStem: -17 80<338.915 549.62> 249 79<477 585> 632 79<447.582 653.003>
VStem: 129 106<172.976 390.733>
DStem2: 529.382 -17 625.585 -17 0.207912 0.978148<89.207 271.751>
AnchorPoint: "below" 411 0 basechar 0
AnchorPoint: "above" 564 711 basechar 0
LayerCount: 2
Fore
SplineSet
129 267 m 0
 129 488 328 711 564 711 c 0
 648 711 698 696 761 663 c 1
 721 559 l 1
 690 588 651 632 545 632 c 0
 382 632 235 454 235 277 c 0
 235 153 310 63 423 63 c 0
 481 63 522 74 550 80 c 1
 585 249 l 1
 460 249 l 1
 477 328 l 1
 699 328 l 1
 636 32 l 1
 583 10 499 -17 407 -17 c 0
 241 -17 129 104 129 267 c 0
EndSplineSet
EndChar

StartChar: H
Encoding: 72 72 80
Width: 708
Flags: HW
TeX: 694 0
ItalicCorrection: 95
HStem: 0 21G<80 189.237 521 630.259> 321 80<270 590> 675 20G<227 332 664.782 774>
DStem2: 80 0 185 0 0.207912 0.978148<21.8307 349.954 431.74 709.397> 521 0 626 0 0.207912 0.978148<21.8307 328.331 410.118 710.584>
AnchorPoint: "below" 352 0 basechar 0
AnchorPoint: "above" 503 711 basechar 0
LayerCount: 2
Fore
SplineSet
80 0 m 1
 227 694 l 1
 228 695 l 1
 332 695 l 1
 270 401 l 1
 607 401 l 1
 669 695 l 1
 774 695 l 1
 626 0 l 1
 521 0 l 1
 590 321 l 1
 253 321 l 1
 185 0 l 1
 80 0 l 1
EndSplineSet
EndChar

StartChar: I
Encoding: 73 73 81
Width: 267
Flags: HW
TeX: 694 0
ItalicCorrection: 133
HStem: 0 21G<80 189.23> 675 20G<227 332>
VStem: 80 252
DStem2: 80 0 185 0 0.207912 0.978148<21.8307 709.397>
AnchorPoint: "ogonek" 132 0 basechar 0
AnchorPoint: "below" 132 0 basechar 0
AnchorPoint: "above" 283 711 basechar 0
LayerCount: 2
Fore
SplineSet
80 0 m 1
 227 694 l 1
 228 695 l 1
 332 695 l 1
 185 0 l 1
 80 0 l 1
EndSplineSet
EndChar

StartChar: J
Encoding: 74 74 82
Width: 483
Flags: HW
TeX: 694 0
ItalicCorrection: 95
HStem: -17 77<122.3 289.011> 675 20G<453 556>
DStem2: 302.015 -17 404.126 -17 0.207912 0.978148<109.843 726.854>
AnchorPoint: "below" 226 0 basechar 0
AnchorPoint: "above" 507 711 basechar 0
LayerCount: 2
Fore
SplineSet
49 25 m 1
 86 120 l 1
 97 105 124 60 199 60 c 0
 311 60 332 123 339 157 c 2
 453 694 l 1
 454 695 l 1
 556 695 l 1
 446 180 l 2
 441 157 424 -17 219 -17 c 0
 151 -17 94 1 49 25 c 1
EndSplineSet
EndChar

StartChar: K
Encoding: 75 75 83
Width: 704
Flags: HW
TeX: 694 0
ItalicCorrection: 118
HStem: 0 21G<83 187.163 537.712 660> 675 20G<230 330 649.239 793>
DStem2: 83 0 183 0 0.207912 0.978148<20.7912 246.526 372.452 709.397> 256 344 229 221 0.765544 0.643383<0 102.493 208.253 545.06> 465 419 384 351 0.421938 -0.906625<27.4735 414.475>
AnchorPoint: "below" 371 0 basechar 0
AnchorPoint: "above" 522 711 basechar 0
LayerCount: 2
Fore
SplineSet
83 0 m 1
 230 694 l 1
 231 695 l 1
 330 695 l 1
 256 344 l 1
 673 695 l 1
 793 695 l 1
 465 419 l 1
 660 0 l 1
 547 0 l 1
 384 351 l 1
 229 221 l 1
 183 0 l 1
 83 0 l 1
EndSplineSet
EndChar

StartChar: L
Encoding: 76 76 84
Width: 567
Flags: HW
TeX: 694 0
HStem: 0 80<201 522> 675 20G<227 332>
DStem2: 80 0 183.995 0 0.207912 0.978148<103.409 709.397>
AnchorPoint: "below" 301 0 basechar 0
AnchorPoint: "above" 452 711 basechar 0
LayerCount: 2
Fore
SplineSet
80 0 m 1
 227 694 l 1
 228 695 l 1
 332 695 l 1
 201 80 l 1
 539 80 l 1
 522 0 l 1
 80 0 l 1
EndSplineSet
EndChar

StartChar: M
Encoding: 77 77 85
Width: 883
Flags: HW
TeX: 694 0
ItalicCorrection: 95
HStem: 0 21G<86 184.214 702 800.259> 675 20G<233 375.407 793.093 944>
DStem2: 86 0 180 0 0.207912 0.978148<19.5437 630.673> 372 695 309 570 0.159446 -0.987207<85.2356 589.542> 574 307 719 403 0.511562 0.859247<-183.684 380.489> 702 0 796 0 0.207912 0.978148<19.5437 611.337>
AnchorPoint: "below" 440 0 basechar 0
AnchorPoint: "above" 591 711 basechar 0
LayerCount: 2
Fore
SplineSet
86 0 m 1
 233 694 l 1
 234 695 l 1
 372 695 l 1
 434 331 l 1
 458 179 462 157 466 113 c 1
 482 148 l 1
 574 307 l 1
 805 695 l 1
 944 695 l 1
 796 0 l 1
 702 0 l 1
 823 567 l 1
 829 598 l 1
 811 563 l 1
 719 403 l 1
 488 17 l 1
 399 17 l 1
 335 392 l 1
 320 489 l 1
 309 570 l 1
 306 598 l 1
 180 0 l 1
 86 0 l 1
EndSplineSet
EndChar

StartChar: N
Encoding: 78 78 86
Width: 708
Flags: HW
TeX: 694 0
ItalicCorrection: 95
HStem: 0 21G<83 181.233 472.2 628.259> 675 20G<230 382.79 678 772>
DStem2: 83 0 177 0 0.207912 0.978148<19.5437 632.837> 377 695 304 600 0.278097 -0.960553<70.9515 625.681>
AnchorPoint: "below" 353 0 basechar 0
AnchorPoint: "above" 504 711 basechar 0
LayerCount: 2
Fore
SplineSet
83 0 m 1
 230 694 l 1
 231 695 l 1
 377 695 l 1
 551 94 l 1
 678 694 l 1
 678 695 l 1
 772 695 l 1
 624 0 l 1
 478 0 l 1
 304 600 l 1
 177 0 l 1
 83 0 l 1
EndSplineSet
EndChar

StartChar: O
Encoding: 79 79 87
Width: 783
Flags: HW
TeX: 694 0
ItalicCorrection: 74
HStem: -17 79<318.967 496.554> 634 77<431.466 611.997>
VStem: 122 106<160.633 390.951> 705 101<310.764 539.927>
AnchorPoint: "ogonek" 391 0 basechar 0
AnchorPoint: "below" 391 0 basechar 0
AnchorPoint: "above" 542 711 basechar 0
LayerCount: 2
Fore
SplineSet
122 264 m 0
 122 495 331 711 542 711 c 0
 700 711 806 590 806 428 c 0
 806 196 598 -17 387 -17 c 0
 235 -17 122 97 122 264 c 0
228 269 m 0
 228 118 321 62 404 62 c 0
 584 62 705 275 705 438 c 0
 705 564 627 634 525 634 c 0
 375 634 228 483 228 269 c 0
EndSplineSet
EndChar

StartChar: P
Encoding: 80 80 88
Width: 658
Flags: HW
TeX: 694 0
ItalicCorrection: 81
HStem: 0 21G<81 190.222> 270 77<257 516.634> 615 80<314 560.837>
VStem: 606 99<434.383 576.217>
DStem2: 81 0 186 0 0.207912 0.978148<21.8307 297.782 376.01 650.004>
AnchorPoint: "below" 318 0 basechar 0
AnchorPoint: "above" 469 711 basechar 0
LayerCount: 2
Fore
SplineSet
81 0 m 1
 228 694 l 1
 229 695 l 1
 485 695 l 2
 669 695 705 581 705 519 c 0
 705 399 579 270 401 270 c 2
 243 270 l 1
 186 0 l 1
 81 0 l 1
257 347 m 1
 390 347 l 2
 468 347 556 359 593 450 c 1
 601 474 606 489 606 514 c 0
 606 554 589 579 561 595 c 0
 526 614 484 615 445 615 c 2
 314 615 l 1
 257 347 l 1
EndSplineSet
EndChar

StartChar: Q
Encoding: 81 81 89
Width: 783
Flags: HW
TeX: 694 111
ItalicCorrection: 74
HStem: -17 78<316.36 447.964> 633 78<430.558 612.546>
VStem: 122 102<158.823 390.453> 704 102<301.018 534.366>
AnchorPoint: "below" 354 -167 basechar 0
AnchorPoint: "above" 542 711 basechar 0
LayerCount: 2
Fore
SplineSet
122 264 m 0
 122 494 329 711 542 711 c 0
 700 711 806 589 806 430 c 0
 806 273 713 122 580 41 c 1
 671 -111 l 1
 548 -111 l 1
 487 -1 l 1
 447 -11 424 -17 387 -17 c 0
 228 -17 122 104 122 264 c 0
224 262 m 0
 224 134 300 61 404 61 c 0
 422 61 436 63 449 65 c 1
 377 195 l 1
 487 195 l 1
 541 105 l 1
 569 121 668 195 698 359 c 0
 702 383 704 407 704 431 c 0
 704 558 630 633 525 633 c 0
 356 633 224 448 224 262 c 0
EndSplineSet
EndChar

StartChar: R
Encoding: 82 82 90
Width: 671
Flags: HW
TeX: 694 0
ItalicCorrection: 81
HStem: -0 21G<81 187.272 527.935 641> 310 75<265 411> 615 80<314 576.635>
VStem: 622 99<456.083 577.292>
DStem2: 81 -0 183 -0 0.207912 0.978148<21.207 338.155 414.843 650.004> 506 322 411 310 0.386648 -0.922227<0 308.557>
AnchorPoint: "below" 318 0 basechar 0
AnchorPoint: "above" 469 711 basechar 0
LayerCount: 2
Fore
SplineSet
81 -0 m 1
 228 694 l 1
 229 695 l 1
 477 695 l 2
 667 695 721 596 721 530 c 0
 721 432 615 347 506 322 c 1
 641 -0 l 1
 536 -0 l 1
 411 310 l 1
 249 310 l 1
 249 309 l 1
 183 -0 l 1
 81 -0 l 1
265 385 m 1
 396 385 l 2
 551 385 581 426 607 466 c 1
 616 483 622 503 622 523 c 0
 622 579 578 603 527 611 c 0
 503 615 479 615 455 615 c 2
 314 615 l 1
 265 385 l 1
EndSplineSet
EndChar

StartChar: S
Encoding: 83 83 91
Width: 583
Flags: HW
TeX: 694 0
ItalicCorrection: 89
HStem: -17 85<191.777 389.892> 629 82<337.981 529.417>
VStem: 163 99<455.521 562.948> 471 99<147.702 264.374>
AnchorPoint: "below" 289 0 basechar 0
AnchorPoint: "above" 446 711 basechar 0
LayerCount: 2
Fore
SplineSet
58 53 m 1
 98 156 l 1
 127 127 186 68 302 68 c 0
 406 68 471 145 471 206 c 0
 471 241 451 276 408 293 c 0
 375 306 303 318 270 331 c 0
 220 351 163 398 163 477 c 0
 163 594 287 711 446 711 c 0
 528 711 576 694 631 663 c 1
 591 559 l 1
 561 588 525 629 428 629 c 0
 328 629 262 563 262 508 c 0
 262 417 394 420 463 392 c 0
 503 376 570 329 570 235 c 0
 570 110 441 -17 285 -17 c 0
 211 -17 132 1 58 53 c 1
EndSplineSet
EndChar

StartChar: T
Encoding: 84 84 92
Width: 725
Flags: HW
TeX: 694 0
ItalicCorrection: 133
HStem: 0 21G<309 418.23> 611 79<184 439 544 816>
DStem2: 309 0 414 0 0.207912 0.978148<21.8307 624.677>
AnchorPoint: "below" 361 0 basechar 0
AnchorPoint: "above" 512 711 basechar 0
LayerCount: 2
Fore
SplineSet
167 611 m 1
 184 690 l 1
 833 690 l 1
 816 611 l 1
 544 611 l 1
 543 610 l 1
 414 0 l 1
 309 0 l 1
 439 611 l 1
 167 611 l 1
EndSplineSet
EndChar

StartChar: U
Encoding: 85 85 93
Width: 692
Flags: HW
TeX: 694 0
ItalicCorrection: 95
HStem: -17 80<272.626 453.119> 675 20G<228 333 661 758>
VStem: 125 103<105.849 302.578>
DStem2: 77.6967 -17 181.499 -17 0.207912 0.978148<220.859 726.713> 510.185 -17 606.334 -17 0.207912 0.978148<167.017 726.819>
AnchorPoint: "ogonek" 347 0 basechar 0
AnchorPoint: "below" 347 0 basechar 0
AnchorPoint: "above" 496 711 basechar 0
LayerCount: 2
Fore
SplineSet
125 184 m 0
 125 213 132 237 137 262 c 2
 228 694 l 1
 229 695 l 1
 333 695 l 1
 234 230 l 2
 231 213 228 194 228 176 c 0
 228 101 278 63 363 63 c 0
 527 63 556 197 568 255 c 2
 661 694 l 1
 662 695 l 1
 758 695 l 1
 665 259 l 2
 659 233 646 123 527 42 c 0
 481 11 416 -17 343 -17 c 0
 221 -17 125 64 125 184 c 0
EndSplineSet
EndChar

StartChar: V
Encoding: 86 86 94
Width: 675
Flags: HW
TeX: 694 0
ItalicCorrection: 162
HStem: -5 21G<274.686 405.8> 675 20G<162 275.228 697.232 807>
DStem2: 272 695 162 695 0.163485 -0.986546<0 603.775> 486 316 394 -5 0.508149 0.861269<-211.829 439.738>
AnchorPoint: "below" 337 0 basechar 0
AnchorPoint: "above" 487 711 basechar 0
LayerCount: 2
Fore
SplineSet
162 695 m 1
 272 695 l 1
 333 317 l 1
 356 163 360 140 363 96 c 1
 381 132 l 1
 486 316 l 1
 709 695 l 1
 807 695 l 1
 394 -5 l 1
 278 -5 l 1
 162 695 l 1
EndSplineSet
EndChar

StartChar: W
Encoding: 87 87 95
Width: 967
Flags: HW
TeX: 694 0
ItalicCorrection: 162
HStem: -5 21G<213.486 327.895 639.629 759> 675 20G<162 264.453 572.105 687.403 885 1099>
DStem2: 263 695 162 695 0.0754982 -0.997146<0 479.052> 393 313 506 375 0.443456 0.896296<-234.971 344.613> 713 310 608 495 0.0658567 -0.997829<-243.532 103.172>
AnchorPoint: "below" 483 0 basechar 0
AnchorPoint: "above" 634 711 basechar 0
LayerCount: 2
Fore
SplineSet
162 695 m 1
 263 695 l 1
 288 351 l 1
 295 217 l 1
 297 130 l 1
 296 97 l 1
 305 130 361 249 393 313 c 2
 582 695 l 1
 686 695 l 1
 713 310 l 1
 719 207 l 1
 721 121 l 1
 720 96 l 1
 727 120 762 205 1008 695 c 1
 1099 695 l 1
 749 -5 l 1
 641 -5 l 1
 614 389 l 1
 608 495 l 1
 606 547 l 1
 606 565 l 1
 607 598 l 1
 598 563 530 425 506 375 c 2
 318 -5 l 1
 215 -5 l 1
 162 695 l 1
EndSplineSet
EndChar

StartChar: X
Encoding: 88 88 96
Width: 675
Flags: HW
TeX: 694 0
ItalicCorrection: 133
HStem: 0 21G<14 149.74 525.137 659> 675 20G<176 311.206 627.811 763>
DStem2: 14 0 132 0 0.672779 0.739844<79.3879 469.672 610.921 939.388> 301 695 176 695 0.457926 -0.88899<0 0 399.476 725.003>
AnchorPoint: "below" 336 0 basechar 0
AnchorPoint: "above" 488 711 basechar 0
LayerCount: 2
Fore
SplineSet
14 0 m 1
 354 368 l 1
 176 695 l 1
 301 695 l 1
 425 452 l 1
 646 695 l 1
 763 695 l 1
 460 368 l 1
 659 0 l 1
 535 0 l 1
 391 292 l 1
 132 0 l 1
 14 0 l 1
EndSplineSet
EndChar

StartChar: Y
Encoding: 89 89 97
Width: 675
Flags: HW
TeX: 694 0
ItalicCorrection: 173
HStem: 0 21G<285 392.259> 675 20G<150 283.221 689.243 819>
DStem2: 274 695 150 695 0.423505 -0.905894<0 353.471> 285 0 388 0 0.207912 0.978148<21.4149 280.912> 422 374 463 295 0.664827 0.746997<0 429.262>
AnchorPoint: "below" 337 0 basechar 0
AnchorPoint: "above" 488 711 basechar 0
LayerCount: 2
Fore
SplineSet
150 695 m 1
 274 695 l 1
 422 374 l 1
 707 695 l 1
 819 695 l 1
 463 295 l 2
 448 279 447 277 444 263 c 2
 388 0 l 1
 285 0 l 1
 342 264 l 2
 343 269 343 272 343 275 c 0
 343 280 342 285 337 295 c 2
 150 695 l 1
EndSplineSet
EndChar

StartChar: Z
Encoding: 90 90 98
Width: 642
Flags: HW
TeX: 694 0
ItalicCorrection: 118
HStem: 0 80<213 589> 617 78<220 577>
DStem2: 87 73 213 80 0.669183 0.743097<89.5188 732.145>
AnchorPoint: "below" 323 0 basechar 0
AnchorPoint: "above" 475 711 basechar 0
LayerCount: 2
Fore
SplineSet
58 0 m 1
 71 61 67 51 87 73 c 2
 577 617 l 1
 204 617 l 1
 220 695 l 1
 731 695 l 1
 720 643 l 1
 213 80 l 1
 606 80 l 1
 589 0 l 1
 58 0 l 1
EndSplineSet
EndChar

StartChar: bracketleft
Encoding: 91 91 99
Width: 310
Flags: HW
TeX: 750 222
ItalicCorrection: 159
HStem: -222 75<160 239> 675 75<335 430>
DStem2: 50 -222 144.058 -222 0.207912 0.978148<96.2314 936.653>
LayerCount: 2
Fore
SplineSet
50 -222 m 1
 256 750 l 1
 445 750 l 1
 430 675 l 1
 335 675 l 1
 160 -147 l 1
 255 -147 l 1
 239 -222 l 1
 50 -222 l 1
EndSplineSet
EndChar

StartChar: backslash
Encoding: 92 92 100
Width: 525
Flags: HW
TeX: 750 222
VStem: 348 78<-216.812 -125.632>
DStem2: 424 -164 209.002 711 0.155845 -0.987782<-926.609 19.7438>
LayerCount: 2
Fore
SplineSet
209 711 m 1
 209 732 227 750 247 750 c 0
 285 750 286 707 288 696 c 2
 424 -164 l 2
 425 -171 426 -177 426 -184 c 0
 426 -202 411 -222 389 -222 c 0
 352 -222 350 -181 348 -170 c 2
 209 711 l 1
EndSplineSet
EndChar

StartChar: bracketright
Encoding: 93 93 101
Width: 310
Flags: HW
TeX: 750 222
ItalicCorrection: 90
HStem: -222 75<-8 86> 675 75<183 261>
DStem2: 70.0583 -222 165 -222 0.207912 0.978148<76.6755 917.097>
LayerCount: 2
Fore
SplineSet
-24 -222 m 1
 -8 -147 l 1
 86 -147 l 1
 261 675 l 1
 167 675 l 1
 183 750 l 1
 371 750 l 1
 165 -222 l 1
 -24 -222 l 1
EndSplineSet
EndChar

StartChar: asciicircum
Encoding: 94 94 102
Width: 642
Flags: HW
TeX: 694 0
ItalicCorrection: 77
HStem: 472 148
DStem2: 242 472 317 472 0.758011 0.652242<56.8508 217.479> 491 620 442 573 0.593013 -0.805193<8.78639 138.738>
LayerCount: 2
Fore
SplineSet
242 472 m 1
 414 620 l 1
 491 620 l 1
 600 472 l 1
 524 472 l 1
 442 573 l 1
 317 472 l 1
 242 472 l 1
EndSplineSet
EndChar

StartChar: underscore
Encoding: 95 95 103
Width: 817
Flags: HW
TeX: 0 268
HStem: -268 49<36.5005 675.8>
LayerCount: 2
Fore
SplineSet
36 -243 m 1
 41 -219 57 -219 68 -219 c 2
 645 -219 l 2
 671 -219 676 -235 676 -244 c 0
 676 -270 648 -268 643 -268 c 2
 67 -268 l 2
 39 -268 37 -253 36 -243 c 1
EndSplineSet
EndChar

StartChar: a
Encoding: 97 97 105
Width: 492
Flags: HW
TeX: 472 0
ItalicCorrection: 33
HStem: -8 75<123 267.781> 0 21G<333 431.258> 226 47<245.887 379> 414 71<225.252 383.637>
VStem: 401 98<275.727 398.424>
DStem2: 331.3 -8 425.3 -8 0.207912 0.978148<27.7224 73.483 108.093 238.804 282.158 361.051>
AnchorPoint: "ogonek" 380 0 basechar 0
AnchorPoint: "affricate-below" 457 -167 basechar 0
AnchorPoint: "affricate-above" 640 695 basechar 0
AnchorPoint: "below" 247 0 basechar 0
AnchorPoint: "above" 350 485 basechar 0
LayerCount: 2
Fore
SplineSet
64 101 m 0
 64 189 134 230 232 254 c 0
 283 267 336 272 389 273 c 1
 399 324 401 332 401 347 c 0
 401 377 384 414 334 414 c 0
 253 414 208 385 164 359 c 1
 174 444 171 441 185 447 c 0
 260 482 317 485 350 485 c 0
 454 485 499 416 499 355 c 0
 499 339 496 325 493 310 c 2
 427 0 l 1
 333 0 l 1x78
 346 64 l 1
 292 14 222 -8 162 -8 c 0
 84 -8 64 58 64 101 c 0
159 120 m 1
 161 96 184 67 234 67 c 0xb8
 284 67 342 93 359 140 c 0
 362 148 364 157 379 226 c 1
 239 220 167 181 160 132 c 1
 159 120 l 1
EndSplineSet
EndChar

StartChar: b
Encoding: 98 98 106
Width: 517
Flags: HW
TeX: 694 0
ItalicCorrection: 35
HStem: -8 75<211.366 342.452> 0 21G<65 165.231> 405 75<319.519 470> 675 20G<212 307>
VStem: 444 96<192.977 373.644>
DStem2: 63.2995 -8 159.3 -8 0.207912 0.978148<28.1382 81.2889 123.738 404.5 455.092 717.576>
AnchorPoint: "affricate-below" 482 -167 basechar 0
AnchorPoint: "affricate-above" 665 695 basechar 0
AnchorPoint: "below" 272 0 basechar 0
AnchorPoint: "above" 420 695 basechar 0
LayerCount: 2
Fore
SplineSet
65 0 m 1x78
 212 694 l 1
 213 695 l 1
 307 695 l 1
 248 418 l 1
 321 471 387 480 426 480 c 0
 514 480 540 384 540 315 c 0
 540 144 415 -8 287 -8 c 0xb8
 218 -8 185 34 172 52 c 1
 161 0 l 1
 65 0 l 1x78
185 114 m 1
 198 91 213 67 259 67 c 0xb8
 399 67 427 201 434 233 c 0
 438 250 444 279 444 306 c 0
 444 385 387 405 342 405 c 0
 292 405 247 376 239 361 c 0
 234 350 237 360 185 114 c 1
EndSplineSet
EndChar

StartChar: c
Encoding: 99 99 107
Width: 467
Flags: HW
TeX: 472 0
ItalicCorrection: 88
HStem: -8 78<212.187 383.755> 407 78<275.933 456.128>
VStem: 79 96<107.692 284.948>
AnchorPoint: "affricate-below" 432 -167 basechar 0
AnchorPoint: "affricate-above" 615 695 basechar 0
AnchorPoint: "below" 266 0 basechar 0
AnchorPoint: "above" 372 485 basechar 0
LayerCount: 2
Fore
SplineSet
79 182 m 0
 79 328 209 485 372 485 c 0
 449 485 479 469 525 442 c 1
 494 360 l 1
 452 390 430 407 353 407 c 0
 211 407 175 245 175 182 c 0
 175 113 213 70 281 70 c 0
 362 70 414 100 457 125 c 1
 446 42 l 1
 397 16 340 -8 264 -8 c 0
 147 -8 79 76 79 182 c 0
EndSplineSet
EndChar

StartChar: d
Encoding: 100 100 108
Width: 517
Flags: HW
TeX: 694 0
ItalicCorrection: 112
HStem: -8 75<204.502 299.06> 0 21G<354 455.23> 405 75<272.44 400.317> 675 20G<499.824 598>
VStem: 77 95<99.7601 281.093>
DStem2: 352.3 -8 449.3 -8 0.207912 0.978148<28.3462 69.5704 100.205 398.714 440.293 719.178>
AnchorPoint: "affricate-below" 482 -167 basechar 0
AnchorPoint: "affricate-above" 665 695 basechar 0
AnchorPoint: "below" 243 0 basechar 0
AnchorPoint: "above" 390 695 basechar 0
LayerCount: 2
Fore
SplineSet
77 165 m 0
 77 317 189 480 312 480 c 0
 379 480 419 451 447 422 c 1
 504 695 l 1
 598 695 l 1
 451 0 l 1
 354 0 l 1x78
 367 60 l 1
 327 24 272 -8 208 -8 c 0
 130 -8 77 64 77 165 c 0
172 167 m 0
 172 87 230 67 274 67 c 0
 337 67 376 115 379 123 c 0
 384 135 432 368 432 368 c 1
 411 394 391 405 357 405 c 0xb8
 317 405 265 391 229 349 c 0
 182 294 172 191 172 167 c 0
EndSplineSet
EndChar

StartChar: e
Encoding: 101 101 109
Width: 471
Flags: HW
TeX: 472 0
ItalicCorrection: 76
HStem: -8 75<213.684 380.488> 250 59<196 424> 409 75<267.328 395.832>
VStem: 74 91<117.23 248.397> 424 80<310.065 380.279>
AnchorPoint: "ogonek" 268 0 basechar 0
AnchorPoint: "affricate-below" 436 -167 basechar 0
AnchorPoint: "affricate-above" 619 695 basechar 0
AnchorPoint: "below" 268 0 basechar 0
AnchorPoint: "above" 354 485 basechar 0
LayerCount: 2
Fore
SplineSet
74 184 m 0
 74 334 209 484 354 484 c 0
 421 484 504 454 504 330 c 0
 504 298 498 274 494 250 c 1
 173 250 l 1
 172 249 165 216 165 196 c 0
 165 125 207 67 282 67 c 0
 358 67 418 102 454 124 c 1
 444 43 l 1
 397 17 338 -8 266 -8 c 0
 145 -8 74 78 74 184 c 0
196 309 m 1
 424 309 l 1
 422 395 371 409 337 409 c 0
 281 409 228 367 196 309 c 1
EndSplineSet
EndChar

StartChar: f
Encoding: 102 102 110
Width: 321
Flags: HW
TeX: 694 0
ItalicCorrection: 220
HStem: 0 21G<98 196.232> 397 75<128 182 290 385> 627 76<337.408 496.311>
DStem2: 98 0 192 0 0.207912 0.978148<19.5437 405.789 501.605 638.784>
AnchorPoint: "affricate-below" 286 -167 basechar 0
AnchorPoint: "affricate-above" 469 695 basechar 0
AnchorPoint: "above" 427 695 basechar 0
AnchorPoint: "below" 144 0 basechar 0
LayerCount: 2
Fore
SplineSet
98 0 m 1
 182 397 l 1
 113 397 l 1
 128 472 l 1
 198 472 l 1
 216 559 217 564 231 590 c 0
 264 651 337 703 429 703 c 0
 454 703 479 701 511 695 c 1
 493 610 l 1
 469 619 452 627 412 627 c 0
 355 627 327 600 318 586 c 0
 312 577 309 564 290 472 c 1
 401 472 l 1
 385 397 l 1
 276 397 l 1
 192 0 l 1
 98 0 l 1
EndSplineSet
EndChar

StartChar: g
Encoding: 103 103 111
Width: 517
Flags: HW
TeX: 472 166
ItalicCorrection: 64
HStem: -184 75<134.5 324.3> 25 75<208.2 318.5> 405 75<314 371.5 263 386>
VStem: 80 98<123.8 329.2>
AnchorPoint: "affricate-below" 482 -167 basechar 0
AnchorPoint: "affricate-above" 665 695 basechar 0
AnchorPoint: "below" 222 -167 basechar 0
AnchorPoint: "above" 346 485 basechar 0
LayerCount: 2
Fore
SplineSet
43 -139 m 1
 60 -57 l 1
 114 -90 157 -109 232 -109 c 0
 303 -109 339 -50 350 -15 c 0
 358 10 364 49 378 114 c 1
 350 77 296 25 221 25 c 0
 136 25 80 94 80 185 c 0
 80 318 197 480 329 480 c 0
 414 480 442 410 444 410 c 1
 459 480 l 1
 553 480 l 1
 458 32 l 2
 450 -3 447 -23 430 -55 c 0
 412 -90 345 -184 218 -184 c 0
 138 -184 89 -164 43 -139 c 1
178 207 m 0
 178 143 225 100 281 100 c 0
 332 100 385 142 408 250 c 2
 408 250 427 328 427 336 c 0
 427 352 414 405 358 405 c 0
 270 405 178 301 178 207 c 0
EndSplineSet
EndChar

StartChar: h
Encoding: 104 104 112
Width: 517
Flags: HW
TeX: 694 0
ItalicCorrection: 41
HStem: -0 21G<64 164.291 355 455.29> 405 75<322.966 447.313> 675 20G<211 306>
VStem: 426 101<253.055 389.973>
DStem2: 64 -0 160 -0 0.207912 0.978148<19.9595 392.718 421.42 709.397> 355 -0 451 -0 0.207912 0.978148<19.9595 353.628>
AnchorPoint: "affricate-below" 482 -167 basechar 0
AnchorPoint: "affricate-above" 665 695 basechar 0
AnchorPoint: "below" 257 0 basechar 0
AnchorPoint: "above" 405 695 basechar 0
LayerCount: 2
Fore
SplineSet
64 -0 m 1
 211 694 l 1
 212 695 l 1
 306 695 l 1
 242 393 l 1
 277 434 332 480 410 480 c 0
 482 480 527 452 527 380 c 0
 527 359 523 338 519 317 c 2
 451 -0 l 1
 355 -0 l 1
 421 312 l 2
 423 323 426 335 426 347 c 0
 426 394 383 405 343 405 c 0
 318 405 245 396 216 261 c 2
 160 -0 l 1
 64 -0 l 1
EndSplineSet
EndChar

StartChar: j
Encoding: 106 106 114
Width: 254
Flags: HW
TeX: 694 166
ItalicCorrection: 112
HStem: -175 79<-78.4165 71.78> 452 20G<190.753 289> 601 94<243 317>
VStem: 223 114
DStem2: 57.5802 -175 151.368 -175 0.207912 0.978148<87.1986 661.433>
AnchorPoint: "affricate-below" 219 -167 basechar 0
AnchorPoint: "affricate-above" 402 695 basechar 0
AnchorPoint: "below" 51 -167 basechar 0
LayerCount: 2
Fore
SplineSet
-107 -146 m 1
 -71 -70 l 1
 -53 -83 -35 -96 2 -96 c 0
 24 -96 64 -89 78 -67 c 0
 82 -61 83 -53 85 -46 c 2
 195 472 l 1
 289 472 l 1
 179 -45 l 2
 176 -57 172 -92 134 -128 c 0
 100 -161 57 -175 16 -175 c 0
 -38 -175 -80 -160 -107 -146 c 1
EndSplineSet
Refer: 365 183 S 1 0 0 1 98 398 2
EndChar

StartChar: k
Encoding: 107 107 115
Width: 487
Flags: HW
TeX: 694 0
ItalicCorrection: 88
HStem: 0 21G<67 158.286 358.266 469> 452 20G<409.128 545> 675 20G<214 304>
DStem2: 67 0 154 0 0.207912 0.978148<18.0883 210.336 308.981 709.397> 217 284 267 229 0.752912 0.658121<0 1.44895 99.9423 285.603> 341 294 267 229 0.399182 -0.916872<30.0572 279.939>
AnchorPoint: "affricate-below" 452 -167 basechar 0
AnchorPoint: "affricate-above" 635 695 basechar 0
AnchorPoint: "below" 268 0 basechar 0
AnchorPoint: "above" 415 695 basechar 0
LayerCount: 2
Fore
SplineSet
67 0 m 1
 214 694 l 1
 215 695 l 1
 304 695 l 1
 217 284 l 1
 432 472 l 1
 545 472 l 1
 341 294 l 1
 469 0 l 1
 367 0 l 1
 267 229 l 1
 182 154 190 166 184 140 c 2
 154 0 l 1
 67 0 l 1
EndSplineSet
EndChar

StartChar: l
Encoding: 108 108 116
Width: 225
Flags: HW
TeX: 694 0
ItalicCorrection: 112
HStem: 0 21G<65 163.259> 675 20G<212 307>
VStem: 65 242
DStem2: 65 0 159 0 0.207912 0.978148<19.5437 709.397>
AnchorPoint: "affricate-below" 190 -167 basechar 0
AnchorPoint: "affricate-above" 373 695 basechar 0
AnchorPoint: "below" 111 0 basechar 0
AnchorPoint: "above" 259 695 basechar 0
LayerCount: 2
Fore
SplineSet
65 0 m 1
 212 694 l 1
 213 695 l 1
 307 695 l 1
 159 0 l 1
 65 0 l 1
EndSplineSet
EndChar

StartChar: m
Encoding: 109 109 117
Width: 808
Flags: HW
TeX: 472 0
ItalicCorrection: 41
HStem: -0 21G<64 164.291 355 456.215 647 747.277> 405 75<323.278 469.429 613.53 704.47> 452 20G<159.763 257>
VStem: 718 101<253.047 389.973>
DStem2: 64 -0 160 -0 0.207912 0.978148<19.9595 392.718 417.862 482.477> 355 -0 452 -0 0.207912 0.978148<20.1674 353.628> 647 -0 743 -0 0.207912 0.978148<19.9595 353.628>
AnchorPoint: "affricate-below" 773 -167 basechar 0
AnchorPoint: "affricate-above" 956 695 basechar 0
AnchorPoint: "below" 403 0 basechar 0
AnchorPoint: "above" 506 485 basechar 0
LayerCount: 2
Fore
SplineSet
64 -0 m 1
 164 472 l 1
 257 472 l 1xb0
 239 390 l 1
 274 430 329 480 411 480 c 0xd0
 526 480 526 406 528 386 c 1
 564 429 618 480 701 480 c 0
 773 480 819 452 819 380 c 0
 819 359 815 338 811 318 c 2
 743 -0 l 1
 647 -0 l 1
 713 311 l 2
 715 322 718 335 718 347 c 0
 718 394 675 405 634 405 c 0
 609 405 536 396 507 261 c 2
 452 -0 l 1
 355 -0 l 1
 422 312 l 2
 424 323 426 335 426 347 c 0
 426 394 384 405 343 405 c 0xd0
 318 405 245 396 216 261 c 2
 160 -0 l 1
 64 -0 l 1
EndSplineSet
EndChar

StartChar: n
Encoding: 110 110 118
Width: 517
Flags: HW
TeX: 472 0
ItalicCorrection: 41
HStem: -0 21G<64 164.291 355 455.29> 405 75<322.333 447.313> 452 20G<159.763 257>
VStem: 426 101<253.055 389.973>
DStem2: 64 -0 160 -0 0.207912 0.978148<19.9595 392.718 417.862 482.477> 355 -0 451 -0 0.207912 0.978148<19.9595 353.628>
AnchorPoint: "affricate-below" 482 -167 basechar 0
AnchorPoint: "affricate-above" 665 695 basechar 0
AnchorPoint: "below" 257 0 basechar 0
AnchorPoint: "above" 360 485 basechar 0
LayerCount: 2
Fore
SplineSet
64 -0 m 1
 164 472 l 1
 257 472 l 1xb0
 239 390 l 1
 275 432 331 480 410 480 c 0xd0
 482 480 527 452 527 380 c 0
 527 359 523 338 519 317 c 2
 451 -0 l 1
 355 -0 l 1
 421 312 l 2
 423 323 426 335 426 347 c 0
 426 394 383 405 343 405 c 0xd0
 318 405 245 396 216 261 c 2
 160 -0 l 1
 64 -0 l 1
EndSplineSet
EndChar

StartChar: o
Encoding: 111 111 119
Width: 525
Flags: HW
TeX: 472 0
ItalicCorrection: 70
HStem: -8 78<204.986 354.468> 409 76<269.049 422.817>
VStem: 73 96<106.173 285.688> 458 93<196.058 373.147>
AnchorPoint: "ogonek" 262 0 basechar 0
AnchorPoint: "affricate-below" 490 -167 basechar 0
AnchorPoint: "affricate-above" 673 695 basechar 0
AnchorPoint: "below" 262 0 basechar 0
AnchorPoint: "above" 364 485 basechar 0
LayerCount: 2
Fore
SplineSet
73 182 m 0
 73 334 215 485 365 485 c 0
 476 485 551 401 551 290 c 0
 551 129 404 -8 260 -8 c 0
 148 -8 73 74 73 182 c 0
169 178 m 0
 169 91 227 70 277 70 c 0
 430 70 458 249 458 306 c 0
 458 388 399 409 349 409 c 0
 192 409 169 232 169 178 c 0
EndSplineSet
EndChar

StartChar: p
Encoding: 112 112 120
Width: 517
Flags: HW
TeX: 472 166
ItalicCorrection: 44
HStem: -167 21G<30 130.292> -8 75<212.422 330.933> 403 77<323.017 399.077> 452 20G<161.743 260>
VStem: 440 100<192.3 357.722>
DStem2: 30 -167 126 -167 0.207912 0.978148<19.9595 243.946 286.852 567.95 616.563 653.312>
AnchorPoint: "affricate-below" 482 -167 basechar 0
AnchorPoint: "affricate-above" 665 695 basechar 0
AnchorPoint: "below" 237 -167 basechar 0
AnchorPoint: "above" 376 485 basechar 0
LayerCount: 2
Fore
SplineSet
30 -167 m 1
 166 472 l 1
 260 472 l 1xd8
 248 417 l 1
 290 447 353 480 430 480 c 2
 431 480 l 2
 475 480 540 455 540 313 c 0
 540 143 415 -8 290 -8 c 0
 220 -8 187 33 173 52 c 1
 126 -167 l 1
 30 -167 l 1
186 114 m 1
 199 90 217 67 258 67 c 0xe8
 345 67 440 165 440 280 c 0
 440 352 399 403 338 403 c 0
 296 403 257 378 244 365 c 0
 236 356 239 363 186 114 c 1
EndSplineSet
EndChar

StartChar: q
Encoding: 113 113 121
Width: 517
Flags: HW
TeX: 472 166
ItalicCorrection: 64
HStem: -167 21G<319 419.266> -8 75<171.5 300.36> 403 77<287.173 400.581>
VStem: 77 99<111.476 282.076>
DStem2: 319 -167 415 -167 0.207912 0.978148<19.9595 232.019 264.61 513.047 589.194 661.969>
AnchorPoint: "affricate-below" 482 -167 basechar 0
AnchorPoint: "affricate-above" 665 695 basechar 0
AnchorPoint: "below" 206 -167 basechar 0
AnchorPoint: "above" 345 485 basechar 0
LayerCount: 2
Fore
SplineSet
77 166 m 0
 77 329 203 480 328 480 c 0
 397 480 428 436 443 409 c 1
 459 480 l 1
 553 480 l 1
 415 -167 l 1
 319 -167 l 1
 367 60 l 1
 334 31 281 -8 212 -8 c 0
 131 -8 77 63 77 166 c 0
176 192 m 0
 176 120 217 67 277 67 c 0
 311 67 341 85 361 103 c 1
 389 132 377 98 424 318 c 0
 425 324 426 330 426 335 c 0
 426 351 413 403 357 403 c 0
 277 403 176 312 176 192 c 0
EndSplineSet
EndChar

StartChar: r
Encoding: 114 114 122
Width: 346
Flags: HW
TeX: 472 0
ItalicCorrection: 114
HStem: -0 21G<65 163.291> 395 85<340.479 415> 452 20G<160.763 255>
DStem2: 65 -0 159 -0 0.207912 0.978148<19.5437 353.275 397.052 482.477>
AnchorPoint: "affricate-below" 311 -167 basechar 0
AnchorPoint: "affricate-above" 494 695 basechar 0
AnchorPoint: "below" 112 0 basechar 0
AnchorPoint: "above" 300 485 basechar 0
LayerCount: 2
Fore
SplineSet
65 -0 m 1xc0
 165 472 l 1
 255 472 l 1xa0
 234 370 l 1
 313 469 390 479 433 480 c 1
 415 395 l 1
 305 393 233 323 215 261 c 1
 159 -0 l 1
 65 -0 l 1xc0
EndSplineSet
EndChar

StartChar: s
Encoding: 115 115 123
Width: 402
Flags: HW
TeX: 472 0
ItalicCorrection: 82
HStem: -8 78<121.89 292.269> 410 75<218.926 391.952>
VStem: 105 93<307.971 389.635> 320 91<95.4161 178.441>
AnchorPoint: "affricate-below" 367 -167 basechar 0
AnchorPoint: "affricate-above" 550 695 basechar 0
AnchorPoint: "below" 207 0 basechar 0
AnchorPoint: "above" 311 485 basechar 0
LayerCount: 2
Fore
SplineSet
37 39 m 1
 71 125 l 1
 103 98 147 70 221 70 c 0
 295 70 320 112 320 141 c 0
 320 165 301 178 290 184 c 0
 250 204 154 194 116 270 c 0
 108 285 105 301 105 317 c 0
 105 374 149 485 311 485 c 0
 382 485 418 470 458 451 c 1
 427 369 l 1
 381 397 347 410 284 410 c 0
 220 410 198 375 198 345 c 0
 198 341 198 336 199 332 c 0
 213 303 224 304 288 290 c 0
 313 285 411 266 411 169 c 0
 411 114 370 -8 205 -8 c 0
 138 -8 87 8 37 39 c 1
EndSplineSet
EndChar

StartChar: t
Encoding: 116 116 124
Width: 379
Flags: HW
TeX: 607 0
ItalicCorrection: 77
HStem: -8 78<160.5 311.496> 397 75<120 184 292 416>
VStem: 122 99<72.9699 205.836>
DStem2: 97.9146 -8 189.915 -8 0.207912 0.978148<178.25 414.048 509.863 629.231>
AnchorPoint: "affricate-below" 344 -167 basechar 0
AnchorPoint: "affricate-above" 527 695 basechar 0
AnchorPoint: "below" 166 0 basechar 0
AnchorPoint: "above" 274 607 basechar 0
LayerCount: 2
Fore
SplineSet
104 397 m 1
 120 472 l 1
 202 472 l 1
 231 607 l 1
 321 607 l 1
 292 472 l 1
 432 472 l 1
 416 397 l 1
 276 397 l 1
 230 176 221 147 221 120 c 0
 221 81 238 70 259 70 c 0
 299 70 328 88 352 105 c 1
 356 32 l 1
 319 16 265 -8 186 -8 c 0
 135 -8 122 36 122 79 c 0
 122 120 152 243 184 397 c 1
 104 397 l 1
EndSplineSet
EndChar

StartChar: u
Encoding: 117 117 125
Width: 517
Flags: HW
TeX: 472 0
ItalicCorrection: 64
HStem: -8 71<146 278.594> 0 21G<358 456.237> 452 20G<160.723 261 451.749 552>
VStem: 84 98<67.0672 192.727>
DStem2: 62.5174 -8 159.179 -8 0.207912 0.978148<122.092 490.818> 356.3 -8 450.3 -8 0.207912 0.978148<27.7224 84.8664 116.147 490.24>
AnchorPoint: "ogonek" 405 0 basechar 0
AnchorPoint: "affricate-below" 482 -167 basechar 0
AnchorPoint: "affricate-above" 665 695 basechar 0
AnchorPoint: "below" 258 0 basechar 0
AnchorPoint: "above" 361 485 basechar 0
LayerCount: 2
Fore
SplineSet
84 71 m 0
 84 90 87 108 91 126 c 2
 165 472 l 1
 261 472 l 1
 190 137 l 2
 185 110 182 100 182 91 c 0
 182 67 200 63 250 63 c 0xb0
 380 63 395 185 395 185 c 1
 456 472 l 1
 552 472 l 1
 452 0 l 1
 358 0 l 1x70
 374 75 l 1
 314 19 240 -8 168 -8 c 0xb0
 124 -8 84 8 84 71 c 0
EndSplineSet
EndChar

StartChar: v
Encoding: 118 118 126
Width: 458
Flags: HW
TeX: 472 0
ItalicCorrection: 114
HStem: -3 21G<171.516 293.989> 452 20G<115 211.418 440.053 544>
DStem2: 209 472 115 472 0.123263 -0.992374<0 378.31> 318 229 283 -3 0.481565 0.876411<-147.773 277.016>
AnchorPoint: "affricate-below" 423 -167 basechar 0
AnchorPoint: "affricate-above" 606 695 basechar 0
AnchorPoint: "below" 229 0 basechar 0
AnchorPoint: "above" 332 485 basechar 0
LayerCount: 2
Fore
SplineSet
115 472 m 1
 209 472 l 1
 242 199 l 1
 249 125 l 1
 251 96 l 1
 258 117 290 177 318 229 c 2
 451 472 l 1
 544 472 l 1
 283 -3 l 1
 174 -3 l 1
 115 472 l 1
EndSplineSet
EndChar

StartChar: w
Encoding: 119 119 127
Width: 692
Flags: HW
TeX: 472 0
ItalicCorrection: 114
HStem: -3 21G<147.568 308.5 432.653 550.937> 452 20G<115 209.34 350.5 487.5 640 777>
VStem: 417 90<110.529 370.134>
DStem2: 208 472 115 472 0.0713963 -0.997448<0 292.54> 507 96 541 -3 0.44495 0.895556<0 416.375>
AnchorPoint: "affricate-below" 657 -167 basechar 0
AnchorPoint: "affricate-above" 840 695 basechar 0
AnchorPoint: "below" 346 0 basechar 0
AnchorPoint: "above" 448 485 basechar 0
LayerCount: 2
Fore
SplineSet
115 472 m 1
 208 472 l 1
 222 263 l 1
 226 180 l 1
 226 119 l 1
 225 96 l 1
 236 135 300 268 401 472 c 1
 486 472 l 1
 489 437 507 190 507 119 c 2
 507 96 l 1
 520 135 594 286 686 472 c 1
 777 472 l 1
 541 -3 l 1
 434 -3 l 1
 421 190 l 1
 417 300 l 1
 417 321 l 1
 418 353 l 1
 420 375 l 1
 411 336 372 255 245 -3 c 1
 149 -3 l 1
 115 472 l 1
EndSplineSet
EndChar

StartChar: x
Encoding: 120 120 128
Width: 458
Flags: HW
TeX: 472 0
ItalicCorrection: 97
HStem: -0 21G<0 119.433 345.481 458> 452 20G<106 220.573 419.529 540>
DStem2: 210 472 106 472 0.465128 -0.885243<0 177.589 278.342 485.278> 293 315 319 245 0.681075 0.732214<-112.793 -112.793 0 213.713>
AnchorPoint: "affricate-below" 423 -167 basechar 0
AnchorPoint: "affricate-above" 606 695 basechar 0
AnchorPoint: "below" 229 0 basechar 0
AnchorPoint: "above" 332 485 basechar 0
LayerCount: 2
Fore
SplineSet
-0 -0 m 1
 237 244 l 1
 106 472 l 1
 210 472 l 1
 293 315 l 1
 438 472 l 1
 540 472 l 1
 319 245 l 1
 458 -0 l 1
 355 -0 l 1
 266 187 l 1
 265 187 l 1
 102 -0 l 1
 -0 -0 l 1
EndSplineSet
EndChar

StartChar: y
Encoding: 121 121 129
Width: 458
Flags: HW
TeX: 472 166
ItalicCorrection: 114
HStem: -175 75<5.87321 144.422> 452 20G<116 215.229 379 544>
DStem2: 212 472 116 472 0.171165 -0.985242<0 349.557>
AnchorPoint: "affricate-below" 423 -167 basechar 0
AnchorPoint: "affricate-above" 606 695 basechar 0
AnchorPoint: "below" 194 -167 basechar 0
AnchorPoint: "above" 336 485 basechar 0
LayerCount: 2
Fore
SplineSet
-3 -168 m 1
 7 -85 l 1
 39 -95 58 -100 88 -100 c 0
 148 -100 170 -48 198 0 c 1
 116 472 l 1
 212 472 l 1
 248 249 l 1
 256 180 l 1
 259 125 l 1
 258 97 l 1
 268 136 306 212 452 472 c 1
 544 472 l 1
 259 -33 l 2
 207 -125 146 -175 71 -175 c 0
 41 -175 12 -170 -3 -168 c 1
EndSplineSet
EndChar

StartChar: z
Encoding: 122 122 130
Width: 450
Flags: HW
TeX: 472 0
ItalicCorrection: 99
HStem: 0 75<166 423> 399 73<144 384>
DStem2: 39 50 166 75 0.70302 0.71117<107.063 490.74>
AnchorPoint: "affricate-below" 415 -167 basechar 0
AnchorPoint: "affricate-above" 598 695 basechar 0
AnchorPoint: "below" 226 0 basechar 0
AnchorPoint: "above" 329 485 basechar 0
LayerCount: 2
Fore
SplineSet
29 0 m 1
 39 50 l 1
 384 399 l 1
 129 399 l 1
 144 472 l 1
 520 472 l 1
 509 420 513 427 495 409 c 2
 166 75 l 1
 439 75 l 1
 423 0 l 1
 29 0 l 1
EndSplineSet
EndChar

StartChar: braceleft
Encoding: 123 123 131
Width: 525
Flags: HW
TeX: 750 222
ItalicCorrection: 138
HStem: -222 75<292.667 427> 675 75<460.849 618>
VStem: 240 97<23.321 185.001>
LayerCount: 2
Fore
SplineSet
97 226 m 1
 113 302 l 1
 188 302 274 333 298 403 c 0
 306 427 344 624 352 648 c 0
 372 710 449 750 568 750 c 2
 634 750 l 1
 618 675 l 1
 598 675 l 2
 462 675 450 656 443 625 c 0
 401 428 396 402 386 380 c 0
 337 277 220 267 191 264 c 1
 271 261 337 215 337 141 c 0
 337 124 332 104 290 -95 c 0
 288 -104 284 -114 290 -123 c 0
 308 -150 394 -146 443 -147 c 1
 427 -222 l 1
 370 -222 l 2
 337 -222 300 -223 259 -209 c 0
 229 -199 188 -176 188 -129 c 0
 188 -103 240 105 240 133 c 0
 240 192 175 226 97 226 c 1
EndSplineSet
EndChar

StartChar: bar
Encoding: 124 124 132
Width: 292
Flags: HW
TeX: 750 222
ItalicCorrection: 67
VStem: 273 50<688.052 748.474>
DStem2: 72.6475 -222 123.71 -222 0.207912 0.978148<27.028 978.128>
LayerCount: 2
Fore
SplineSet
79 -196 m 0
 79 -190 81 -184 82 -178 c 2
 273 721 l 2
 273 722 277 749 300 749 c 0
 312 749 323 740 323 725 c 0
 323 720 323 716 319 698 c 2
 132 -183 l 2
 130 -192 126 -222 103 -222 c 0
 90 -222 79 -211 79 -196 c 0
EndSplineSet
EndChar

StartChar: braceright
Encoding: 125 125 133
Width: 525
Flags: HW
TeX: 750 222
ItalicCorrection: 35
HStem: -222 75<18 178.07> 226 75<447.074 522> 675 75<209 344.116>
VStem: 299 97<342.46 504.091>
LayerCount: 2
Fore
SplineSet
2 -222 m 1
 18 -147 l 1
 37 -147 l 2
 172 -147 186 -129 193 -98 c 0
 235 100 240 126 250 148 c 0
 270 190 322 253 445 264 c 1
 365 267 299 314 299 387 c 0
 299 405 297 393 346 622 c 0
 348 631 352 642 346 651 c 0
 328 678 242 674 193 675 c 1
 209 750 l 1
 266 750 l 2
 299 750 335 751 376 737 c 0
 447 713 448 668 448 657 c 0
 448 632 396 422 396 395 c 0
 396 358 420 308 539 301 c 1
 522 226 l 1
 446 226 360 195 337 125 c 1
 290 -95 l 2
 285 -114 280 -174 187 -205 c 0
 139 -222 97 -222 58 -222 c 2
 2 -222 l 1
EndSplineSet
EndChar

StartChar: asciitilde
Encoding: 126 126 134
Width: 642
Flags: HW
TeX: 694 0
ItalicCorrection: 89
HStem: 564 75<478.884 605.727> 619 75<302.037 430.523>
VStem: 207 75<564 598.788> 626 76<660.851 695>
LayerCount: 2
Fore
SplineSet
207 564 m 1xb0
 224 643 301 694 370 694 c 0x70
 438 694 494 639 552 639 c 0
 612 639 626 695 626 695 c 1
 702 695 l 1
 680 608 601 564 538 564 c 0xb0
 465 564 420 619 356 619 c 0x70
 331 619 295 606 282 564 c 1
 207 564 l 1xb0
EndSplineSet
EndChar

StartChar: Abreve
Encoding: 258 258 136
Width: 675
Flags: HW
TeX: 888 0
HStem: 0 21<29 136.294 533.176 645> 170 79<267 500> 683 20<418.592 545.902> 727 83<430.19 578.753>
VStem: 331 78<832.839 889> 626 76<851.351 889>
DStem2: 29 0 125 0 0.495473 0.868623<47.5655 242.797 334.21 725.914> 645 0 500 249 0.143589 -0.989637<-539.647 -267.24 -187.336 -15.6512>
AnchorPoint: "below" 337 0 basechar 0
AnchorPoint: "above" 523 877 basechar 0
LayerCount: 2
Fore
SplineSet
331 859 m 0
 331 865 333 888 334 889 c 1
 410 889 l 1
 409 885 409 881 409 877 c 0
 409 822 470 810 502 810 c 0
 606 810 626 889 626 889 c 1
 702 889 l 1
 674 780 567 727 484 727 c 0
 397 727 331 780 331 859 c 0
EndSplineSet
Refer: 73 65 S 1 0 0 1 0 -0 3
AlternateSubs2: "Stilistic set 01 subtable" Abreve.vn
AlternateSubs2: "Latin alternatives subtable" Abreve.vn
Substitution2: "Latin Vietnamese substitutions subtable" Abreve.vn
EndChar

StartChar: Aogonek
Encoding: 260 260 137
Width: 675
Flags: HW
TeX: 694 166
HStem: -184 81<499.598 603.907> 0 21G<29 136.294> 170 79<267 500> 683 20G<418.592 545.902>
VStem: 421 78<-143.5 -72.9115>
DStem2: 29 0 125 0 0.495473 0.868623<47.5655 242.797 334.21 725.914> 645 0 500 249 0.143589 -0.989637<-539.647 -267.24 -187.336 -7.74732>
AnchorPoint: "above" 488 711 basechar 0
LayerCount: 2
Fore
SplineSet
29 0 m 1
 430 703 l 1
 543 703 l 1
 645 0 l 1
 630 0 l 2
 596 0 499 -61 499 -87 c 0
 499 -100 516 -103 527 -103 c 0
 558 -103 593 -91 613 -85 c 1
 617 -157 l 1
 592 -167 550 -184 505 -184 c 0
 453 -184 421 -161 421 -126 c 0
 421 -76 485 -26 536 0 c 1
 512 170 l 1
 221 170 l 1
 125 0 l 1
 29 0 l 1
267 249 m 1
 500 249 l 1
 481 385 458 557 458 591 c 2
 458 598 l 1
 396 479 l 1
 267 249 l 1
EndSplineSet
Ligature2: "Latin ligatures subtable" A uni0328
EndChar

StartChar: Eogonek
Encoding: 280 280 142
Width: 625
Flags: HW
TeX: 694 166
ItalicCorrection: 118
HStem: -184 81<404.272 507.093> -0 84<202 439 477.245 580> 320 80<270 605> 613 79<315 696>
VStem: 325 78<-143.5 -71.8309>
DStem2: 40.8896 -184 145.035 -184 0.207912 0.978148<295.64 536.879 618.873 836.574>
AnchorPoint: "above" 473 711 basechar 0
LayerCount: 2
Fore
SplineSet
80 -0 m 1
 227 692 l 1
 713 692 l 1
 696 613 l 1
 315 613 l 1
 270 400 l 1
 621 400 l 1
 605 320 l 1
 252 320 l 1
 202 84 l 1
 598 84 l 1
 580 -0 l 1
 543 -0 l 2
 512 0 520 0 492 -14 c 0
 460 -29 403 -64 403 -87 c 0
 403 -100 418 -102 427 -103 c 1
 432 -103 l 2
 449 -103 467 -100 517 -85 c 1
 520 -157 l 1
 495 -168 453 -184 409 -184 c 0
 358 -184 325 -161 325 -126 c 0
 325 -75 385 -31 439 -0 c 1
 80 -0 l 1
EndSplineSet
EndChar

StartChar: Gbreve
Encoding: 286 286 143
Width: 700
Flags: HW
TeX: 888 0
ItalicCorrection: 118
HStem: -17 80<338.915 549.62> 249 79<477 585> 632 79<447.582 653.003> 727 83<509.032 657.232>
VStem: 129 106<172.976 390.733> 410 78<831.139 889> 705 75<855.24 889>
DStem2: 529.382 -17 625.585 -17 0.207912 0.978148<89.207 271.751>
LayerCount: 2
Fore
SplineSet
410 859 m 0
 410 865 412 888 413 889 c 1
 489 889 l 1
 488 885 488 881 488 877 c 0
 488 822 548 810 580 810 c 0
 684 810 705 889 705 889 c 1
 780 889 l 1
 752 780 646 727 563 727 c 0
 476 727 410 780 410 859 c 0
EndSplineSet
Refer: 79 71 S 1 0 0 1 0 0 3
EndChar

StartChar: Lcaron
Encoding: 317 317 145
Width: 567
Flags: HW
TeX: 888 0
HStem: 0 80<201 522> 675 20<227 332>
DStem2: 80 0 183.995 0 0.207912 0.978148<103.409 709.397>
LayerCount: 2
Fore
SplineSet
430 620 m 1
 480 695 l 1
 445 695 l 1
 470 812 l 1
 588 812 l 1
 566 711 l 1
 561 695 l 1
 539 668 512 645 488 620 c 1
 430 620 l 1
EndSplineSet
Refer: 84 76 S 1 0 0 1 -0 0 3
EndChar

StartChar: Lslash
Encoding: 321 321 146
Width: 654
Flags: HW
TeX: 694 0
HStem: 0 80<290 610> 675 20G<316 421>
DStem2: 123 281 161 220 0.814433 0.580258<0 73.788 303.29 478.097> 168 0 272.995 0 0.207912 0.978148<103.617 271.06 377.362 382.71 489.012 709.605>
LayerCount: 2
Fore
SplineSet
123 281 m 1
 247 369 l 1
 316 694 l 1
 316 695 l 1
 421 695 l 1
 370 457 l 1
 516 561 l 1
 554 500 l 1
 348 353 l 1
 290 80 l 1
 627 80 l 1
 610 0 l 1
 168 0 l 1
 225 265 l 1
 161 220 l 1
 123 281 l 1
EndSplineSet
EndChar

StartChar: Eng
Encoding: 330 330 149
Width: 775
Flags: HW
TeX: 694 0
ItalicCorrection: 147
HStem: -17 77<475.499 602.41> -0 21G<80 189.215> 663 96<437.227 627.803> 675 20G<227 332>
VStem: 714 106<391.719 578.984>
DStem2: 76.3865 -17 181.387 -17 0.207912 0.978148<39.2105 613.607>
LayerCount: 2
Fore
SplineSet
80 -0 m 1
 227 694 l 1
 228 695 l 1
 332 695 l 1x58
 329 680 l 1
 388 720 462 759 561 759 c 0
 707 759 820 664 820 522 c 2
 820 511 l 2
 820 490 816 473 754 180 c 0
 749 157 728 -17 558 -17 c 0
 486 -17 439 10 415 25 c 1
 451 120 l 1
 461 94 482 60 535 60 c 0xa8
 636 60 645 163 646 167 c 2
 706 449 l 2
 710 467 714 482 714 502 c 0
 714 598 635 663 537 663 c 0xa8
 412 663 304 565 287 484 c 2
 185 -0 l 1
 80 -0 l 1
EndSplineSet
EndChar

StartChar: Scedilla
Encoding: 350 350 155
Width: 583
Flags: HW
TeX: 694 145
ItalicCorrection: 89
HStem: -163 145 -17 85<191.777 389.686> 629 82<336.021 529.616>
VStem: 140 185 163 99<455.662 562.725> 471 99<147.702 264.371>
DStem2: 140 -163 226 -163 0.600882 0.799338<51.6758 181.4>
LayerCount: 2
Fore
SplineSet
58 53 m 1
 98 156 l 1
 127 127 186 68 302 68 c 0
 406 68 471 145 471 206 c 0
 471 241 451 276 408 293 c 0
 375 306 310 316 270 331 c 0
 220 351 163 398 163 477 c 0
 163 594 287 711 446 711 c 0
 528 711 576 694 631 663 c 1
 591 559 l 1
 561 588 526 629 428 629 c 0
 326 629 262 562 262 508 c 0
 262 417 390 422 463 392 c 0
 503 376 570 329 570 235 c 0xec
 570 110 440 -17 285 -17 c 0
 211 -17 132 1 58 53 c 1
EndSplineSet
Refer: 20 184 S 1 0 0 1 58 0 2
EndChar

StartChar: Uring
Encoding: 366 366 159
Width: 692
Flags: HW
TeX: 888 0
ItalicCorrection: 95
HStem: -17 80<272.626 453.119> 652 75<452.953 557.727> 675 20<228 333 661 758> 819 75<466.161 570.969>
VStem: 125 103<105.849 302.578> 393 59<729.857 807.913> 572 60<737.742 816.713>
DStem2: 77.6967 -17 181.499 -17 0.207912 0.978148<220.859 726.713> 510.185 -17 606.334 -17 0.207912 0.978148<167.017 726.819>
LayerCount: 2
Fore
SplineSet
393 748 m 0
 393 825 465 894 538 894 c 0
 596 894 632 852 632 799 c 0
 632 719 557 652 487 652 c 0
 431 652 393 693 393 748 c 0
452 757 m 0xde
 452 727 477 728 500 727 c 1
 531 728 562 724 571 777 c 0
 572 781 572 786 572 790 c 0
 572 819 550 819 525 819 c 1
 501 818 452 823 452 757 c 0xde
EndSplineSet
Refer: 93 85 S 1 0 0 1 0 0 3
EndChar

StartChar: IJ
Encoding: 306 306 164
Width: 733
Flags: HW
TeX: 694 0
ItalicCorrection: 95
HStem: -17 77<371.862 538.394> 0 21<51 160.23> 675 20G<198 303 702 805>
VStem: 51 252
DStem2: 51 0 156 0 0.207912 0.978148<21.8307 709.397> 551.015 -17 653.126 -17 0.207912 0.978148<106.21 727.833>
LayerCount: 2
Fore
SplineSet
298 25 m 1
 335 120 l 1
 351 96 380 60 448 60 c 0xb0
 561 60 581 123 588 157 c 2
 702 694 l 1
 702 695 l 1
 805 695 l 1
 695 180 l 2
 691 160 674 -17 468 -17 c 0
 400 -17 343 1 298 25 c 1
EndSplineSet
Refer: 81 73 S 1 0 0 1 -29 0 2
Ligature2: "Latin Dutch ligatures subtable" I J
EndChar

StartChar: dcroat
Encoding: 273 273 166
Width: 517
Flags: HW
TeX: 694 0
ItalicCorrection: 112
HStem: -8 75<204.502 299.06> 0 21G<354 455.249> 405 75<272.44 400.317> 546 75<310 472 583 665> 675 20G<499.946 598>
VStem: 77 95<99.7601 281.093>
DStem2: 352.3 -8 449.3 -8 0.207912 0.978148<28.3462 69.5704 100.205 398.714 440.293 566.781 663.22 719.178>
LayerCount: 2
Fore
SplineSet
77 165 m 0
 77 317 189 480 312 480 c 0
 379 480 419 451 447 422 c 1
 472 546 l 1
 294 546 l 1
 310 621 l 1
 489 621 l 1
 504 695 l 1
 598 695 l 1
 583 621 l 1
 681 621 l 1
 665 546 l 1
 567 546 l 1
 451 0 l 1
 354 0 l 1x7c
 367 60 l 1
 327 24 272 -8 208 -8 c 0
 130 -8 77 64 77 165 c 0
172 167 m 0
 172 87 230 67 274 67 c 0
 337 67 376 115 379 123 c 0
 384 135 432 368 432 368 c 1
 411 394 391 405 357 405 c 0xbc
 317 405 265 391 229 349 c 0
 182 294 172 191 172 167 c 0
EndSplineSet
AlternateSubs2: "Stilistic set 01 subtable" dcroat.vn
AlternateSubs2: "Latin alternatives subtable" dcroat.vn
Substitution2: "Latin Vietnamese substitutions subtable" dcroat.vn
EndChar

StartChar: section
Encoding: 167 167 167
Width: 475
Flags: HW
TeX: 694 166
HStem: -175 76<119.343 264.904> 627 76<321.177 459.699>
VStem: 126 96<205.078 315.608> 183 96<472.315 582.937> 307 96<-55.6108 55.6471> 363 97<210.082 322.282>
LayerCount: 2
Fore
SplineSet
24 -105 m 1
 57 -19 l 1
 75 -42 110 -99 210 -99 c 0
 277 -99 307 -25 307 7 c 0
 307 62 245 80 229 89 c 0
 186 112 126 160 126 237 c 0xe8
 126 303 170 369 225 403 c 1
 201 430 183 459 183 504 c 0
 183 598 274 703 389 703 c 0
 459 703 495 683 536 647 c 1
 504 564 l 1
 486 585 456 627 375 627 c 0
 310 627 279 555 279 521 c 0
 279 508 284 479 318 458 c 0
 339 445 460 405 460 291 c 0xd4
 460 225 416 160 361 125 c 1
 383 99 403 69 403 24 c 0xc8
 403 -70 312 -175 197 -175 c 0
 93 -175 48 -129 24 -105 c 1
222 254 m 0xe4
 222 202 274 183 297 172 c 1
 336 192 363 233 363 272 c 0
 363 327 313 343 289 355 c 1
 232 328 222 272 222 254 c 0xe4
EndSplineSet
EndChar

StartChar: abreve
Encoding: 259 259 168
Width: 492
Flags: HW
TeX: 666 0
ItalicCorrection: 33
HStem: -8 75<123 267.781> 0 21<333 431.258> 226 47<245.887 379> 414 71<225.252 383.637> 513 82<314.862 470.926> 647 20G<219 296 477.833 588>
VStem: 217 78<614.687 667> 401 98<275.727 398.424> 512 76<631.098 667>
DStem2: 331.3 -8 425.3 -8 0.207912 0.978148<27.7224 73.483 108.093 238.804 282.158 361.051>
AnchorPoint: "below" 247 0 basechar 0
AnchorPoint: "above" 384 647 basechar 0
LayerCount: 2
Fore
SplineSet
217 638 m 0
 217 648 218 657 220 667 c 1
 296 667 l 1
 296 664 295 660 295 657 c 0
 295 608 351 595 389 595 c 0x3f80
 496 595 512 667 512 667 c 1
 588 667 l 1
 562 565 459 513 372 513 c 0
 286 513 217 563 217 638 c 0
EndSplineSet
Refer: 105 97 S 1 0 0 1 -0 0 3
AlternateSubs2: "Stilistic set 01 subtable" abreve.vn
AlternateSubs2: "Latin alternatives subtable" abreve.vn
Substitution2: "Latin Vietnamese substitutions subtable" abreve.vn
EndChar

StartChar: aogonek
Encoding: 261 261 169
Width: 492
Flags: HW
TeX: 472 166
ItalicCorrection: 33
HStem: -184 81<290.163 400.116> -8 75<123 267.943> 226 47<245.887 379> 414 71<225.252 383.637>
VStem: 401 98<275.727 398.424>
DStem2: 293.89 -184 387.89 -184 0.207912 0.978148<202.28 253.415 288.025 418.736 462.09 540.983>
AnchorPoint: "above" 350 485 basechar 0
LayerCount: 2
Fore
SplineSet
64 101 m 0
 64 189 134 230 232 254 c 0
 283 267 336 272 389 273 c 1
 399 324 401 332 401 347 c 0
 401 377 384 414 334 414 c 0
 253 414 208 385 164 359 c 1
 174 444 171 441 185 447 c 0
 260 482 317 485 350 485 c 0
 454 485 499 416 499 355 c 0
 499 339 496 325 493 310 c 2
 427 0 l 1
 396 0 404 0 376 -14 c 0
 309 -48 295 -70 290 -88 c 1
 293 -93 296 -103 321 -103 c 0
 339 -103 358 -101 409 -85 c 1
 413 -157 l 1
 389 -168 346 -184 302 -184 c 0
 250 -184 218 -161 218 -126 c 0
 218 -76 282 -26 333 -0 c 1
 346 64 l 1
 292 14 223 -8 162 -8 c 0
 84 -8 64 58 64 101 c 0
159 120 m 1
 161 96 184 67 234 67 c 0
 284 67 342 93 359 140 c 0
 362 148 364 157 379 226 c 1
 239 220 167 181 160 132 c 1
 159 120 l 1
EndSplineSet
EndChar

StartChar: dcaron
Encoding: 271 271 172
Width: 681
Flags: HW
TeX: 694 0
ItalicCorrection: 112
HStem: -8 75<204.502 299.06> 0 21<354 455.23> 405 75<272.44 400.317> 675 20<499.824 598>
VStem: 77 95<99.7601 281.093>
DStem2: 352.3 -8 449.3 -8 0.207912 0.978148<28.3462 69.5704 100.205 398.714 440.293 719.178>
LayerCount: 2
Fore
SplineSet
628 562 m 1
 679 636 l 1
 644 636 l 1x38
 669 753 l 1
 786 753 l 1
 762 636 l 1
 687 562 l 1
 628 562 l 1
EndSplineSet
Refer: 108 100 S 1 0 0 1 0 0 2
EndChar

StartChar: eogonek
Encoding: 281 281 174
Width: 471
Flags: HW
TeX: 472 166
ItalicCorrection: 76
HStem: -184 80<242.473 349.552> -8 75<214.344 267> 250 59<196 424> 409 76<267.135 395.639>
VStem: 74 91<118.125 248.585> 167 75<-103.75 -74.0594> 424 80<309.766 380.279>
AnchorPoint: "above" 354 485 basechar 0
LayerCount: 2
Fore
SplineSet
74 185 m 0
 74 333 208 485 354 485 c 0
 420 485 504 454 504 330 c 0
 504 303 499 276 494 250 c 1
 173 250 l 1
 172 249 165 216 165 196 c 0
 165 125 207 67 282 67 c 0
 358 67 418 102 454 124 c 1
 444 43 l 1
 381 10 263 -33 242 -85 c 1
 242 -91 l 1
 243 -94 245 -104 270 -104 c 0
 296 -104 333 -93 359 -85 c 1
 363 -157 l 1
 312 -179 274 -184 252 -184 c 0
 185 -184 167 -149 167 -126 c 0
 167 -103 181 -60 267 -8 c 1
 141 -7 74 81 74 185 c 0
196 309 m 1
 424 309 l 1
 422 395 371 409 337 409 c 0
 281 409 228 367 196 309 c 1
EndSplineSet
EndChar

StartChar: gbreve
Encoding: 287 287 175
Width: 517
Flags: HW
TeX: 694 166
ItalicCorrection: 64
HStem: -184 75<116.956 297.725> 25 75<217.41 302.058> 405 75<285.908 402.041> 522 82<339.305 476.429> 675 20G<238.5 314 502.088 606>
VStem: 80 98<140.746 289.865> 235 78<629.638 695> 530 76<655.984 695>
DStem2: 314.078 -184 412.088 -184 0.207912 0.978148<117.186 304.778 331.428 444.044 444.459 531.747 608.032 679.621>
LayerCount: 2
Fore
SplineSet
235 660 m 0
 235 667 238 694 239 695 c 1
 314 695 l 1
 313 689 313 683 313 677 c 0
 313 633 354 604 403 604 c 0
 505 604 530 695 530 695 c 1
 606 695 l 1
 579 585 475 522 386 522 c 0
 301 522 235 577 235 660 c 0
EndSplineSet
Refer: 111 103 S 1 0 0 1 0 0 3
EndChar

StartChar: lcaron
Encoding: 318 318 177
Width: 390
Flags: HW
TeX: 694 0
ItalicCorrection: 112
HStem: 0 21<65 163.259> 675 20<212 307>
VStem: 65 242
DStem2: 65 0 159 0 0.207912 0.978148<19.5437 709.397>
LayerCount: 2
Fore
SplineSet
337 562 m 1
 388 636 l 1
 352 636 l 1
 377 753 l 1
 495 753 l 1
 470 636 l 1
 395 562 l 1
 337 562 l 1
EndSplineSet
Refer: 116 108 S 1 0 0 1 -0 0 2
EndChar

StartChar: lslash
Encoding: 322 322 178
Width: 314
Flags: HW
TeX: 694 0
ItalicCorrection: 112
HStem: 0 21G<108 206.273> 675 20G<255 350>
DStem2: 69 287 105 229 0.814092 0.580736<0 70.2558 281.087 372.732> 108 0 202 0 0.207912 0.978148<19.5437 278.115 479.67 709.397>
AnchorPoint: "above" 274 695 basechar 0
LayerCount: 2
Fore
SplineSet
69 287 m 1
 187 371 l 1
 255 694 l 1
 256 695 l 1
 350 695 l 1
 298 450 l 1
 376 506 l 1
 412 448 l 1
 277 351 l 1
 202 0 l 1
 108 0 l 1
 166 272 l 1
 105 229 l 1
 69 287 l 1
EndSplineSet
EndChar

StartChar: eng
Encoding: 331 331 181
Width: 517
Flags: HW
TeX: 472 166
ItalicCorrection: 41
HStem: -175 79<191.117 321.697> -0 21G<64 164.291> 405 75<320.599 412.377> 452 20G<159.763 257>
VStem: 426 101<254.234 390.148>
DStem2: 26.8026 -175 122.803 -175 0.207912 0.978148<198.869 571.628 596.772 661.386> 317.803 -175 413.59 -175 0.207912 0.978148<96.2673 198.661 199.847 532.538>
AnchorPoint: "affricate-below" 482 -167 basechar 0
AnchorPoint: "affricate-above" 665 695 basechar 0
AnchorPoint: "below" 222 -167 basechar 0
AnchorPoint: "above" 360 485 basechar 0
LayerCount: 2
Fore
SplineSet
64 -0 m 1
 164 472 l 1
 257 472 l 1xd8
 239 390 l 1
 285 444 340 480 408 480 c 0xe8
 497 480 527 440 527 379 c 0
 527 353 521 327 516 302 c 2
 451 1 l 1
 450 -0 l 1
 435 -76 370 -175 276 -175 c 0
 227 -175 187 -162 154 -146 c 1
 204 -70 l 1
 209 -74 229 -96 266 -96 c 0
 308 -96 351 -62 355 -0 c 1
 421 312 l 2
 423 323 426 335 426 347 c 0
 426 394 383 405 343 405 c 0xe8
 318 405 245 396 216 261 c 2
 160 -0 l 1
 64 -0 l 1
EndSplineSet
EndChar

StartChar: ohungarumlaut
Encoding: 337 337 182
Width: 525
Flags: HW
TeX: 666 0
ItalicCorrection: 70
HStem: -8 78<204.986 354.468> 409 76<269.049 422.817> 647 20G<356.504 477 530.504 652>
VStem: 73 96<106.173 285.688> 458 93<196.058 373.147>
AnchorPoint: "below" 262 0 basechar 0
AnchorPoint: "above" 398 647 basechar 0
LayerCount: 2
Fore
SplineSet
223 538 m 1
 381 667 l 1
 477 667 l 1
 298 538 305 538 285 538 c 2
 223 538 l 1
397 538 m 1
 555 667 l 1
 652 667 l 1
 473 538 479 538 459 538 c 2
 397 538 l 1
EndSplineSet
Refer: 119 111 S 1 0 0 1 0 0 3
EndChar

StartChar: racute
Encoding: 341 341 183
Width: 346
Flags: HW
TeX: 666 0
ItalicCorrection: 114
HStem: 0 21<65 163.291> 395 85<340.479 415> 452 20<160.763 255> 647 20G<321.659 443>
DStem2: 65 0 159 0 0.207912 0.978148<19.5437 353.275 397.052 482.477>
AnchorPoint: "below" 112 0 basechar 0
AnchorPoint: "above" 335 652 basechar 0
LayerCount: 2
Fore
SplineSet
189 538 m 1
 346 667 l 1
 443 667 l 1x90
 256 532 271 538 251 538 c 2
 189 538 l 1
EndSplineSet
Refer: 122 114 S 1 0 0 1 0 0 3
EndChar

StartChar: sacute
Encoding: 347 347 185
Width: 402
Flags: HW
TeX: 666 0
ItalicCorrection: 82
HStem: -8 78<122.089 294.309> 410 75<215.908 391.893> 538 129
VStem: 105 92<308.765 390.458> 225 255 319 92<94.3819 179.757>
AnchorPoint: "below" 207 0 basechar 0
AnchorPoint: "above" 345 647 basechar 0
LayerCount: 2
Fore
SplineSet
37 39 m 1
 71 125 l 1
 106 96 149 70 223 70 c 0
 307 70 319 121 319 141 c 0
 319 167 299 180 290 184 c 0
 250 204 154 194 116 270 c 0
 109 285 105 301 105 317 c 0
 105 344 119 428 199 465 c 0
 239 484 289 485 312 485 c 0
 368 485 405 476 458 451 c 1
 427 369 l 1
 389 392 355 410 282 410 c 0
 205 410 197 360 197 345 c 0
 197 288 281 301 337 276 c 0
 398 248 411 199 411 169 c 0xf4
 411 128 390 -8 206 -8 c 0
 138 -8 88 8 37 39 c 1
EndSplineSet
Refer: 10 180 S 1 0 0 1 -84 0 2
EndChar

StartChar: scaron
Encoding: 353 353 186
Width: 402
Flags: HW
TeX: 666 0
ItalicCorrection: 82
HStem: -8 78<122.882 293.245> 410 75<215.554 391.893> 536 131
VStem: 105 92<308.394 391.056> 320 91<94.7701 179.204>
DStem2: 230 667 155 667 0.67547 -0.737388<0 126.994> 321 576 351 536 0.802744 0.596324<0.229355 157.819>
AnchorPoint: "below" 207 0 basechar 0
AnchorPoint: "above" 345 647 basechar 0
LayerCount: 2
Fore
SplineSet
37 39 m 1
 71 125 l 1
 106 96 149 70 223 70 c 2
 226 70 l 2
 306 70 320 122 320 141 c 0
 320 163 304 177 291 184 c 0
 252 204 155 194 116 270 c 0
 109 285 105 300 105 317 c 0
 105 354 124 408 162 441 c 0
 183 459 222 485 312 485 c 0
 368 485 405 476 458 451 c 1
 427 369 l 1
 389 392 355 410 282 410 c 0
 205 410 197 361 197 345 c 0
 197 287 281 301 338 276 c 0
 374 260 411 224 411 169 c 0
 411 129 390 -8 206 -8 c 0
 138 -8 88 8 37 39 c 1
EndSplineSet
Refer: 16 711 S 1 0 0 1 -63 0 2
EndChar

StartChar: scedilla
Encoding: 351 351 187
Width: 402
Flags: HW
TeX: 472 145
ItalicCorrection: 82
HStem: -163 145 -8 78<122.089 294.309> 410 75<215.908 391.893>
VStem: 56 185 105 92<308.765 390.458> 319 92<94.3819 179.757>
DStem2: 56 -163 142 -163 0.600882 0.799338<51.6758 181.4>
LayerCount: 2
Fore
SplineSet
37 39 m 1
 71 125 l 1
 106 96 149 70 223 70 c 0
 307 70 319 121 319 141 c 0
 319 167 299 180 290 184 c 0
 249 204 154 194 116 270 c 0
 109 285 105 301 105 317 c 0
 105 344 119 428 199 465 c 0
 239 483 289 485 312 485 c 0
 368 485 405 476 458 451 c 1
 427 369 l 1
 389 392 355 410 282 410 c 0
 205 410 197 360 197 345 c 0
 197 288 281 301 337 276 c 0
 398 248 411 199 411 169 c 0xec
 411 128 390 -8 206 -8 c 0
 138 -8 88 8 37 39 c 1
EndSplineSet
Refer: 20 184 S 1 0 0 1 -26 0 2
EndChar

StartChar: tcaron
Encoding: 357 357 188
Width: 379
Flags: HW
TeX: 694 0
ItalicCorrection: 124
HStem: -8 78<161.5 310.29> 397 75<120 184 292 416>
VStem: 121 99<48.7954 203.726>
DStem2: 97.9146 -8 189.915 -8 0.207912 0.978148<177.282 414.048 509.863 629.231>
LayerCount: 2
Fore
SplineSet
104 397 m 1
 120 472 l 1
 202 472 l 1
 231 607 l 1
 321 607 l 1
 292 472 l 1
 432 472 l 1
 416 397 l 1
 276 397 l 1
 229 173 220 144 220 117 c 0
 220 81 235 70 258 70 c 0
 296 70 328 88 352 105 c 1
 356 32 l 1
 317 16 264 -8 185 -8 c 0
 138 -8 121 25 121 73 c 0
 121 112 121 99 184 397 c 1
 104 397 l 1
386 533 m 1
 437 607 l 1
 402 607 l 1
 427 725 l 1
 544 725 l 1
 523 625 l 1
 518 608 l 1
 496 581 469 558 445 533 c 1
 386 533 l 1
EndSplineSet
EndChar

StartChar: tcommaaccent
Encoding: 355 355 189
Width: 379
Flags: HW
TeX: 607 145
ItalicCorrection: 77
HStem: -163 145 -8 78<159 310.851> 397 75<120 183 292 416>
VStem: 86 185 121 99<52.2954 205.967>
DStem2: 63.9683 -163 156.968 -163 0.207912 0.978148<335.953 572.511 668.534 787.901> 86 -163 172 -163 0.600882 0.799338<51.6758 181.4>
LayerCount: 2
Fore
SplineSet
104 397 m 1
 120 472 l 1
 202 472 l 1
 231 607 l 1
 321 607 l 1
 292 472 l 1
 432 472 l 1
 416 397 l 1
 276 397 l 1
 229 173 220 144 220 117 c 0
 220 81 235 70 258 70 c 0xe8
 296 70 328 88 352 105 c 1
 356 32 l 1
 319 16 265 -8 185 -8 c 0
 133 -8 121 32 121 73 c 0
 121 112 120 99 183 397 c 1
 104 397 l 1
EndSplineSet
Refer: 20 184 S 1 0 0 1 4 0 2
EndChar

StartChar: uring
Encoding: 367 367 191
Width: 517
Flags: HW
TeX: 666 0
ItalicCorrection: 64
HStem: -8 71<146 278.594> 0 21<358 456.237> 452 20<160.723 261 451.749 552> 510 33<328.587 424.519> 640 32<344.36 436.57>
VStem: 84 98<67.0672 192.727> 266 58<546.432 626.681> 443 58<556.128 636.326>
DStem2: 62.5174 -8 159.179 -8 0.207912 0.978148<122.092 490.818> 356.3 -8 450.3 -8 0.207912 0.978148<27.7224 84.8664 116.147 490.24>
LayerCount: 2
Fore
SplineSet
266 580 m 0
 266 624 323 672 402 672 c 0
 458 672 501 645 501 603 c 0
 501 560 446 510 366 510 c 0
 310 510 266 538 266 580 c 0
324 576 m 0
 324 551 342 543 373 543 c 0x3f
 430 543 443 575 443 606 c 0
 443 631 426 640 395 640 c 2
 393 640 l 2
 377 640 324 638 324 576 c 0
EndSplineSet
Refer: 125 117 S 1 0 0 1 0 0 3
EndChar

StartChar: ij
Encoding: 307 307 196
Width: 546
Flags: HW
TeX: 694 166
ItalicCorrection: 112
HStem: -175 79<225.579 371.755> 0 21<72 170.28> 452 20G<167.763 267 488.701 587> 600 94<219 293> 601 94<540 614>
VStem: 72 195 199 114 520 114
DStem2: 72 0 166 0 0.207912 0.978148<19.5437 482.477>
LayerCount: 2
Fore
SplineSet
197 -146 m 1
 233 -70 l 1
 255 -88 273 -96 302 -96 c 0xe1
 344 -96 366 -78 372 -74 c 1
 378 -63 l 1
 493 472 l 1
 587 472 l 1
 483 -18 l 2
 476 -52 471 -111 402 -152 c 0
 388 -161 360 -175 318 -175 c 0
 282 -175 240 -168 197 -146 c 1
EndSplineSet
Refer: 365 183 S 1 0 0 1 395 398 2
Refer: 113 105 S 1 0 0 1 7 0 2
Ligature2: "Latin Dutch ligatures subtable" i j
EndChar

StartChar: exclamdown
Encoding: 161 161 197
Width: 325
Flags: HW
TeX: 527 166
ItalicCorrection: 37
HStem: -167 21G<68 188.77> 410 117<216 308>
VStem: 191 142
DStem2: 68 -167 185 -167 0.207912 0.978148<24.3257 501.246>
LayerCount: 2
Fore
SplineSet
68 -167 m 1
 183 321 l 1
 277 321 l 1
 185 -167 l 1
 68 -167 l 1
EndSplineSet
Refer: 54 46 S 1 0 0 1 104 410 2
EndChar

StartChar: questiondown
Encoding: 191 191 198
Width: 496
Flags: HW
TeX: 527 166
HStem: -175 75<148.407 329.127> 410 117<287 379>
VStem: 49 95<-93.4997 16.06> 254 94<234.444 321> 262 142
LayerCount: 2
Fore
SplineSet
49 -60 m 0
 49 44 135 98 140 103 c 0
 235 183 245 280 254 321 c 1
 348 321 l 1
 338 270 323 162 205 54 c 0
 176 28 156 18 147 -34 c 0
 145 -43 144 -52 144 -61 c 0
 144 -93 168 -100 206 -100 c 0
 283 -100 339 -79 399 -46 c 1
 410 -125 l 1
 358 -149 282 -175 197 -175 c 0xf0
 70 -175 49 -106 49 -60 c 0
EndSplineSet
Refer: 54 46 S 1 0 0 1 175 410 2
EndChar

StartChar: sterling
Encoding: 163 163 199
Width: 782
Flags: HW
TeX: 694 0
HStem: -8 147<122.24 240.191> -8 75<419.617 559.568> 310 75<256 309 421 503> 477 21G<656.5 685.5> 664 76<512.459 619.293>
VStem: 574 97<88.4421 139> 635 94<493.017 649.745>
LayerCount: 2
Fore
SplineSet
69 47 m 0
 69 102 138 139 223 139 c 0xbc
 238 139 254 137 269 135 c 1
 285 190 295 252 309 310 c 1
 240 310 l 1
 256 385 l 1
 325 385 l 1
 347 491 356 535 365 560 c 0
 405 666 503 740 594 740 c 0
 683 740 729 668 729 579 c 0
 729 495 702 481 669 477 c 1
 644 481 635 491 635 513 c 2
 635 521 l 1
 627 521 l 1
 631 542 634 563 634 585 c 0
 634 625 622 664 577 664 c 0
 543 664 513 648 493 625 c 0
 460 586 453 537 421 385 c 1
 519 385 l 1
 503 310 l 1
 405 310 l 1
 405 309 l 1
 370 142 374 152 352 113 c 1
 413 91 467 67 527 67 c 0x7a
 553 67 562 82 574 139 c 1
 671 139 l 1xbc
 649 49 559 -8 471 -8 c 0
 388 -8 304 38 288 38 c 0x7c
 274 38 228 -8 146 -8 c 0
 100 -8 69 14 69 47 c 0
EndSplineSet
EndChar

StartChar: Agrave
Encoding: 192 192 200
Width: 675
Flags: HW
TeX: 850 0
HStem: 0 21<29 136.294 533.176 645> 170 79<267 500> 683 20<418.592 545.902>
DStem2: 29 0 125 0 0.495473 0.868623<47.5655 242.797 334.21 725.914> 645 0 500 249 0.143589 -0.989637<-539.647 -267.24 -187.336 -15.6512>
AnchorPoint: "below" 337 0 basechar 0
AnchorPoint: "above" 515 839 basechar 0
LayerCount: 2
Fore
SplineSet
366 851 m 1
 494 851 l 2
 506 851 509 847 638 760 c 1
 539 760 l 2
 528 760 521 764 366 851 c 1
EndSplineSet
Refer: 73 65 S 1 0 0 1 -0 -0 3
AlternateSubs2: "Stilistic set 01 subtable" Agrave.vn
AlternateSubs2: "Latin alternatives subtable" Agrave.vn
Substitution2: "Latin Vietnamese substitutions subtable" Agrave.vn
EndChar

StartChar: Atilde
Encoding: 195 195 203
Width: 675
Flags: HW
TeX: 888 0
HStem: 0 21<29 136.294 533.176 645> 170 79<267 500> 683 20<418.592 545.902> 727 76<535.493 605.416> 813 76<412.463 482.534>
VStem: 317 75<727 791.547> 626 75<824.022 889>
DStem2: 29 0 125 0 0.495473 0.868623<47.5655 242.797 334.21 725.914> 645 0 500 249 0.143589 -0.989637<-539.647 -267.24 -187.336 -15.6512>
AnchorPoint: "below" 337 0 basechar 0
AnchorPoint: "above" 523 877 basechar 0
LayerCount: 2
Fore
SplineSet
317 727 m 1
 336 820 396 889 454 889 c 0
 517 889 522 803 575 803 c 0
 606 803 616 841 626 889 c 1
 701 889 l 1
 679 786 617 727 564 727 c 0
 502 727 495 813 443 813 c 0
 413 813 402 777 392 727 c 1
 317 727 l 1
EndSplineSet
Refer: 73 65 S 1 0 0 1 0 -0 3
AlternateSubs2: "Stilistic set 01 subtable" Atilde.vn
AlternateSubs2: "Latin alternatives subtable" Atilde.vn
Substitution2: "Latin Vietnamese substitutions subtable" Atilde.vn
EndChar

StartChar: Aring
Encoding: 197 197 205
Width: 675
Flags: HW
TeX: 850 0
HStem: 0 21G<29 136.294 533.176 645> 170 79<267 500> 819 75<451.883 550.515>
VStem: 371 58<706.21 800.197> 552 59<719.458 816.598>
DStem2: 29 0 125 0 0.496714 0.867914<47.6845 242.915 334.329 726.028> 645 0 500 249 0.143514 -0.989648<-539.639 -267.232 -187.328 -15.643>
LayerCount: 2
Fore
SplineSet
29 0 m 1
 401 650 l 1
 401 651 l 1
 393 659 371 682 371 729 c 0
 371 816 445 894 519 894 c 0
 575 894 611 851 611 793 c 0
 611 777 609 715 549 662 c 1
 645 0 l 1
 536 0 l 1
 512 170 l 1
 221 170 l 1
 125 0 l 1
 29 0 l 1
267 249 m 1
 500 249 l 1
 481 385 458 557 458 591 c 2
 458 598 l 1
 396 479 l 1
 267 249 l 1
429 737 m 0
 429 704 456 703 477 703 c 0
 514 704 539 706 550 766 c 0
 551 772 552 779 552 785 c 0
 552 818 527 819 505 819 c 2
 497 819 l 2
 485 819 462 817 448 799 c 0
 433 780 429 743 429 737 c 0
EndSplineSet
EndChar

StartChar: AE
Encoding: 198 198 206
Width: 892
Flags: HW
TeX: 694 0
ItalicCorrection: 118
HStem: 0 84<549 848> 198 80<295 470> 321 80<617 872> 615 80<500 558 662 964>
DStem2: 29 0 126 0 0.519908 0.854222<50.4311 281.956 375.769 770.223> 428 0 531.145 0 0.207912 0.978148<107.322 202.406 284.192 349.538 431.533 628.589>
AnchorPoint: "below" 438 0 basechar 0
AnchorPoint: "above" 630 711 basechar 0
LayerCount: 2
Fore
SplineSet
29 0 m 1
 452 695 l 1
 981 695 l 1
 964 615 l 1
 662 615 l 1
 617 401 l 1
 889 401 l 1
 872 321 l 1
 599 321 l 1
 549 84 l 1
 865 84 l 1
 848 0 l 1
 428 0 l 1
 470 198 l 1
 246 198 l 1
 126 0 l 1
 29 0 l 1
295 278 m 1
 487 278 l 1
 558 615 l 1
 500 615 l 1
 295 278 l 1
EndSplineSet
EndChar

StartChar: Egrave
Encoding: 200 200 208
Width: 625
Flags: HW
TeX: 850 0
ItalicCorrection: 118
HStem: 0 84<202 580> 320 80<270 605> 613 79<315 696>
DStem2: 80 0 184.145 0 0.207912 0.978148<107.53 348.768 430.762 648.464>
AnchorPoint: "below" 330 0 basechar 0
AnchorPoint: "above" 511 850 basechar 0
LayerCount: 2
Fore
SplineSet
320 851 m 1
 448 851 l 2
 460 851 462 847 591 760 c 1
 493 760 l 2
 482 760 475 764 320 851 c 1
EndSplineSet
Refer: 77 69 S 1 0 0 1 -0 -0 3
AlternateSubs2: "Stilistic set 01 subtable" Egrave.vn
AlternateSubs2: "Latin alternatives subtable" Egrave.vn
Substitution2: "Latin Vietnamese substitutions subtable" Egrave.vn
EndChar

StartChar: Ecircumflex
Encoding: 202 202 210
Width: 625
Flags: HW
TeX: 888 0
ItalicCorrection: 118
HStem: 0 84<202 580> 320 80<270 605> 613 79<315 696>
DStem2: 80 0 184.145 0 0.207912 0.978148<107.53 348.768 430.762 648.464> 276 727 352 727 0.700784 0.713373<53.2596 215.85> 519 897 470 839 0.487821 -0.872943<26.7275 158.157>
AnchorPoint: "below" 330 0 basechar 0
AnchorPoint: "above" 520 896 basechar 0
LayerCount: 2
Fore
SplineSet
276 727 m 1
 443 897 l 1
 519 897 l 1
 614 727 l 1
 539 727 l 1
 470 839 l 1
 352 727 l 1
 276 727 l 1
EndSplineSet
Refer: 77 69 S 1 0 0 1 0 0 3
AlternateSubs2: "Stilistic set 01 subtable" Ecircumflex.vn
AlternateSubs2: "Latin alternatives subtable" Ecircumflex.vn
Substitution2: "Latin Vietnamese substitutions subtable" Ecircumflex.vn
EndChar

StartChar: Igrave
Encoding: 204 204 212
Width: 267
Flags: HW
TeX: 850 0
ItalicCorrection: 133
HStem: 0 21<80 189.23> 675 20<227 332>
VStem: 80 252
DStem2: 80 0 185 0 0.207912 0.978148<21.8307 709.397>
AnchorPoint: "below" 132 0 basechar 0
AnchorPoint: "above" 312 847 basechar 0
LayerCount: 2
Fore
SplineSet
147 851 m 1
 275 851 l 2
 287 851 290 847 419 760 c 1
 320 760 l 2
 309 760 302 764 147 851 c 1
EndSplineSet
Refer: 81 73 S 1 0 0 1 -0 -0 3
AlternateSubs2: "Stilistic set 01 subtable" Igrave.vn
AlternateSubs2: "Latin alternatives subtable" Igrave.vn
Substitution2: "Latin Vietnamese substitutions subtable" Igrave.vn
EndChar

StartChar: Icircumflex
Encoding: 206 206 214
Width: 267
Flags: HW
TeX: 888 0
ItalicCorrection: 133
HStem: 0 21<80 189.23> 675 20<227 332>
VStem: 80 252
DStem2: 80 0 185 0 0.207912 0.978148<21.8307 709.397> 118 727 194 727 0.700784 0.713373<53.2596 215.149> 361 897 311 839 0.487821 -0.872943<26.2397 157.669>
AnchorPoint: "below" 132 0 basechar 0
AnchorPoint: "above" 322 893 basechar 0
LayerCount: 2
Fore
SplineSet
118 727 m 1
 285 897 l 1
 361 897 l 1
 456 727 l 1
 380 727 l 1
 311 839 l 1
 194 727 l 1
 118 727 l 1
EndSplineSet
Refer: 81 73 S 1 0 0 1 -0 -0 3
EndChar

StartChar: Eth
Encoding: 208 208 216
Width: 746
Flags: HW
TeX: 694 0
ItalicCorrection: 74
HStem: 0 80<200 469.058> 303 76<67 146 264 430> 615 80<314 570.947>
VStem: 666 102<298.671 523.534>
DStem2: 81 0 182.995 0 0.207912 0.978148<102.993 309.893 408.766 650.004>
LayerCount: 2
Fore
SplineSet
51 303 m 1
 67 379 l 1
 161 379 l 1
 228 694 l 1
 229 695 l 1
 497 695 l 2
 714 695 768 529 768 422 c 0
 768 221 602 28 406 3 c 0
 385 0 363 0 342 0 c 2
 81 0 l 1
 146 303 l 1
 51 303 l 1
200 80 m 1
 338 80 l 2
 397 80 466 86 534 136 c 0
 633 209 666 339 666 426 c 0
 666 517 625 615 460 615 c 2
 314 615 l 1
 264 379 l 1
 446 379 l 1
 430 303 l 1
 247 303 l 1
 200 80 l 1
EndSplineSet
EndChar

StartChar: Ntilde
Encoding: 209 209 217
Width: 708
Flags: HW
TeX: 888 0
ItalicCorrection: 95
HStem: 0 21<83 181.233 472.2 628.259> 675 20<230 382.79 678 772> 727 76<550.443 622.162> 813 76<429.179 499.521>
VStem: 333 75<727 789.925> 642 76<822.766 889>
DStem2: 83 0 177 0 0.207912 0.978148<19.5437 632.837> 377 695 304 600 0.278097 -0.960553<70.9515 625.681>
LayerCount: 2
Fore
SplineSet
333 727 m 1
 367 869 444 889 472 889 c 0
 532 889 538 803 591 803 c 0
 621 803 633 841 642 889 c 1
 718 889 l 1
 700 792 635 727 580 727 c 0
 518 727 513 813 460 813 c 0
 418 813 411 730 408 727 c 1
 333 727 l 1
EndSplineSet
Refer: 86 78 S 1 0 0 1 -0 -0 3
EndChar

StartChar: Ograve
Encoding: 210 210 218
Width: 783
Flags: HW
TeX: 850 0
ItalicCorrection: 74
HStem: -17 79<318.967 496.554> 634 77<431.466 611.997>
VStem: 122 106<160.633 390.951> 705 101<310.764 539.927>
AnchorPoint: "below" 391 0 basechar 0
AnchorPoint: "above" 568 831 basechar 0
LayerCount: 2
Fore
SplineSet
420 851 m 1
 548 851 l 2
 560 851 563 847 692 760 c 1
 593 760 l 2
 582 760 575 764 420 851 c 1
EndSplineSet
Refer: 87 79 S 1 0 0 1 -0 -0 3
AlternateSubs2: "Stilistic set 01 subtable" Ograve.vn
AlternateSubs2: "Latin alternatives subtable" Ograve.vn
Substitution2: "Latin Vietnamese substitutions subtable" Ograve.vn
EndChar

StartChar: Ocircumflex
Encoding: 212 212 220
Width: 783
Flags: HW
TeX: 888 0
ItalicCorrection: 74
HStem: -17 79<318.967 496.554> 634 77<431.466 611.997>
VStem: 122 106<160.633 390.951> 705 101<310.764 539.927>
DStem2: 377 727 452 727 0.698639 0.715474<52.3979 214.97> 619 897 570 839 0.487821 -0.872943<26.7275 158.157>
AnchorPoint: "below" 391 0 basechar 0
AnchorPoint: "above" 577 877 basechar 0
LayerCount: 2
Fore
SplineSet
377 727 m 1
 543 897 l 1
 619 897 l 1
 714 727 l 1
 639 727 l 1
 570 839 l 1
 452 727 l 1
 377 727 l 1
EndSplineSet
Refer: 87 79 S 1 0 0 1 0 -0 3
AlternateSubs2: "Stilistic set 01 subtable" Ocircumflex.vn
AlternateSubs2: "Latin alternatives subtable" Ocircumflex.vn
Substitution2: "Latin Vietnamese substitutions subtable" Ocircumflex.vn
EndChar

StartChar: Otilde
Encoding: 213 213 221
Width: 783
Flags: HW
TeX: 888 0
ItalicCorrection: 74
HStem: -17 79<318.967 496.554> 634 77<431.466 611.997> 727 76<588.416 658.425> 813 76<466.374 537.306>
VStem: 122 106<160.633 390.951> 370 76<727 791.185> 679 76<827.079 889> 705 101<310.764 539.927>
AnchorPoint: "below" 391 0 basechar 0
AnchorPoint: "above" 576 869 basechar 0
LayerCount: 2
Fore
SplineSet
370 727 m 1
 393 831 455 889 508 889 c 0xfe
 569 889 576 803 628 803 c 0
 670 803 676 886 679 889 c 1
 755 889 l 1
 731 784 672 727 616 727 c 0
 555 727 550 813 497 813 c 0
 466 813 457 776 446 727 c 1
 370 727 l 1
EndSplineSet
Refer: 87 79 S 1 0 0 1 0 -0 3
AlternateSubs2: "Stilistic set 01 subtable" Otilde.vn
AlternateSubs2: "Latin alternatives subtable" Otilde.vn
Substitution2: "Latin Vietnamese substitutions subtable" Otilde.vn
EndChar

StartChar: OE
Encoding: 338 338 223
Width: 1008
Flags: HW
TeX: 694 0
ItalicCorrection: 118
HStem: -17 76<293.495 470.59> 0 84<603 964> 321 80<671 988> 615 80<716 1080> 636 75<403.365 583.009>
VStem: 81 106<174.67 389.736>
AnchorPoint: "above" 685 711 basechar 0
LayerCount: 2
Fore
SplineSet
81 267 m 0
 81 494 294 711 516 711 c 0xac
 593 711 583 695 725 695 c 2
 1097 695 l 1
 1080 615 l 1
 716 615 l 1
 671 401 l 1
 1005 401 l 1
 988 321 l 1
 654 321 l 1
 603 84 l 1
 981 84 l 1
 964 0 l 1
 576 0 l 1x74
 430 -1 441 -17 361 -17 c 0
 193 -17 81 107 81 267 c 0
187 285 m 0
 187 165 253 59 384 59 c 0
 499 59 507 110 544 286 c 0
 595 527 596 538 596 562 c 2
 596 567 l 2
 596 632 555 634 511 636 c 1xac
 504 636 l 2
 339 636 187 473 187 285 c 0
EndSplineSet
EndChar

StartChar: Oslash
Encoding: 216 216 224
Width: 817
Flags: HW
TeX: 736 41
ItalicCorrection: 74
HStem: -17 76<318.078 526.801> 636 75<436.046 643.549>
VStem: 123 98<156.202 390.593> 742 98<306.875 538.144>
DStem2: 145 -23 203 -61 0.620135 0.784495<6.15698 104.986 188.661 809.052 896.669 991.1>
LayerCount: 2
Fore
SplineSet
123 267 m 0
 123 495 336 711 559 711 c 0
 601 711 649 704 698 678 c 1
 759 755 l 1
 818 717 l 1
 756 637 l 1
 756 636 l 1
 804 590 840 518 840 425 c 0
 840 193 624 -17 404 -17 c 0
 338 -17 302 -1 265 16 c 1
 203 -61 l 1
 145 -23 l 1
 208 58 l 1
 189 75 123 141 123 267 c 0
221 258 m 0
 221 179 250 140 262 125 c 1
 647 613 l 1
 610 631 575 636 544 636 c 0
 419 636 272 554 230 341 c 0
 223 308 221 291 221 258 c 0
317 81 m 1
 351 66 380 59 420 59 c 0
 545 59 691 140 733 353 c 0
 738 380 742 407 742 434 c 0
 742 515 714 552 702 568 c 1
 317 81 l 1
EndSplineSet
EndChar

StartChar: Ugrave
Encoding: 217 217 225
Width: 692
Flags: HW
TeX: 850 0
ItalicCorrection: 95
HStem: -17 80<272.626 453.119> 675 20<228 333 661 758>
VStem: 125 103<105.849 302.578>
DStem2: 77.6967 -17 181.499 -17 0.207912 0.978148<220.859 726.713> 510.185 -17 606.334 -17 0.207912 0.978148<167.017 726.819>
AnchorPoint: "below" 347 0 basechar 0
AnchorPoint: "above" 525 847 basechar 0
LayerCount: 2
Fore
SplineSet
375 851 m 1
 503 851 l 2
 515 851 518 847 647 760 c 1
 548 760 l 2
 537 760 530 764 375 851 c 1
EndSplineSet
Refer: 93 85 S 1 0 0 1 -0 -0 3
AlternateSubs2: "Stilistic set 01 subtable" Ugrave.vn
AlternateSubs2: "Latin alternatives subtable" Ugrave.vn
Substitution2: "Latin Vietnamese substitutions subtable" Ugrave.vn
EndChar

StartChar: Ucircumflex
Encoding: 219 219 227
Width: 692
Flags: HW
TeX: 888 0
ItalicCorrection: 95
HStem: -17 80<272.626 453.119> 675 20<228 333 661 758>
VStem: 125 103<105.849 302.578>
DStem2: 77.6967 -17 181.499 -17 0.207912 0.978148<220.859 726.713> 334 727 409 727 0.698639 0.715474<52.3979 214.97> 510.185 -17 606.334 -17 0.207912 0.978148<167.017 726.819> 572 897 527 839 0.503239 -0.864147<27.4748 158.983>
AnchorPoint: "below" 347 0 basechar 0
AnchorPoint: "above" 535 893 basechar 0
LayerCount: 2
Fore
SplineSet
334 727 m 1
 500 897 l 1
 572 897 l 1
 671 727 l 1
 596 727 l 1
 527 839 l 1
 409 727 l 1
 334 727 l 1
EndSplineSet
Refer: 93 85 S 1 0 0 1 -0 -0 3
EndChar

StartChar: Thorn
Encoding: 222 222 230
Width: 600
Flags: HW
TeX: 694 0
ItalicCorrection: 81
HStem: 0 21G<82 186.333> 180 80<238 434.736> 504 80<307 474.498> 675 20G<229 330>
VStem: 525 101<339.415 457.375>
DStem2: 82 0 182 0 0.207912 0.978148<20.7912 204.966 286.753 536.024 618.018 709.397>
LayerCount: 2
Fore
SplineSet
82 0 m 1
 229 694 l 1
 230 695 l 1
 330 695 l 1
 307 584 l 1
 433 584 l 2
 592 584 626 480 626 419 c 0
 625 299 510 201 402 184 c 0
 382 181 361 180 341 180 c 2
 221 180 l 1
 182 0 l 1
 82 0 l 1
238 260 m 1
 335 260 l 2
 470 260 525 350 525 401 c 0
 525 442 494 504 375 504 c 2
 289 504 l 1
 238 260 l 1
EndSplineSet
EndChar

StartChar: Germandbls
Encoding: 61699 61699 231
Width: 1167
Flags: HW
TeX: 694 0
ItalicCorrection: 89
HStem: -17 85<193.063 389.866 776.063 973.5> 629 82<338.547 529.141 921.547 1112.14>
VStem: 163 99<456.258 561.437> 472 99<145.621 264.415> 747 99<456.352 561.226> 1055 99<147.686 264.432>
LayerCount: 2
Fore
SplineSet
58 53 m 1
 98 156 l 1
 136 118 194 68 302 68 c 0
 405 68 472 144 472 206 c 0
 472 308 345 301 272 330 c 0
 221 350 163 397 163 478 c 0
 163 589 283 711 447 711 c 0
 529 711 576 694 631 663 c 1
 591 559 l 1
 563 586 526 629 429 629 c 0
 325 629 262 560 262 508 c 0
 262 419 388 421 462 392 c 0
 503 376 571 330 571 235 c 0
 571 108 441 -17 285 -17 c 0
 211 -17 132 1 58 53 c 1
641 53 m 1
 681 156 l 1
 719 118 777 68 885 68 c 0
 989 68 1055 144 1055 206 c 0
 1055 308 928 301 855 330 c 0
 804 350 747 397 747 478 c 0
 747 588 865 711 1030 711 c 0
 1112 711 1159 694 1214 663 c 1
 1174 559 l 1
 1146 586 1109 629 1012 629 c 0
 908 629 846 560 846 508 c 0
 846 419 969 422 1044 393 c 0
 1085 377 1154 330 1154 235 c 0
 1154 111 1026 -17 868 -17 c 0
 794 -17 715 1 641 53 c 1
EndSplineSet
EndChar

StartChar: acircumflex
Encoding: 226 226 234
Width: 492
Flags: HW
TeX: 666 0
ItalicCorrection: 33
HStem: -8 75<123 267.781> 0 21<333 431.258> 226 47<245.887 379> 414 71<225.252 383.637>
VStem: 401 98<275.727 398.424>
DStem2: 331.3 -8 425.3 -8 0.207912 0.978148<27.7224 73.483 108.093 238.804 282.158 361.051>
AnchorPoint: "below" 247 0 basechar 0
AnchorPoint: "above" 386 655 basechar 0
LayerCount: 2
Fore
SplineSet
196 538 m 1
 355 675 l 1
 456 675 l 1
 534 537 l 1
 458 537 l 1
 384 628 l 1
 276 541 275 537 262 537 c 2x38
 219 537 l 2
 211 537 204 538 196 538 c 1
EndSplineSet
Refer: 105 97 S 1 0 0 1 -0 0 3
AlternateSubs2: "Stilistic set 01 subtable" acircumflex.vn
AlternateSubs2: "Latin alternatives subtable" acircumflex.vn
Substitution2: "Latin Vietnamese substitutions subtable" acircumflex.vn
EndChar

StartChar: atilde
Encoding: 227 227 235
Width: 492
Flags: HW
TeX: 666 0
ItalicCorrection: 33
HStem: -8 75<123 267.781> 0 21<333 431.258> 226 47<245.887 379> 414 71<225.252 383.637> 543 76<404.753 492.708> 591 76<288.31 376.247>
VStem: 203 75<543 582.294> 401 98<275.727 398.424> 504 75<630.042 667>
DStem2: 331.3 -8 425.3 -8 0.207912 0.978148<27.7224 73.483 108.093 238.804 282.158 361.051>
AnchorPoint: "below" 247 0 basechar 0
AnchorPoint: "above" 384 647 basechar 0
LayerCount: 2
Fore
SplineSet
203 543 m 1x3b80
 219 618 281 667 334 667 c 0x3780
 386 667 418 619 459 619 c 0x3b80
 494 619 503 666 504 667 c 1
 579 667 l 1x3780
 561 590 500 543 447 543 c 0x3b80
 395 543 363 591 322 591 c 0x3780
 313 591 289 588 278 543 c 1
 203 543 l 1x3b80
EndSplineSet
Refer: 105 97 S 1 0 0 1 0 0 3
AlternateSubs2: "Stilistic set 01 subtable" atilde.vn
AlternateSubs2: "Latin alternatives subtable" atilde.vn
Substitution2: "Latin Vietnamese substitutions subtable" atilde.vn
EndChar

StartChar: aring
Encoding: 229 229 237
Width: 492
Flags: HW
TeX: 666 0
ItalicCorrection: 33
HStem: -8 75<123 267.781> 0 21<333 431.258> 226 47<245.887 379> 414 71<225.252 383.637> 510 33<321.267 416.81> 640 32<335.581 431.179>
VStem: 259 58<546.912 626.481> 401 98<275.727 398.424> 436 58<556.603 636.326>
DStem2: 331.3 -8 425.3 -8 0.207912 0.978148<27.7224 73.483 108.093 238.804 282.158 361.051>
LayerCount: 2
Fore
SplineSet
259 579 m 0
 259 623 315 672 394 672 c 0
 450 672 494 645 494 603 c 0
 494 560 438 510 358 510 c 0
 303 510 259 537 259 579 c 0
317 576 m 0
 317 552 334 543 365 543 c 0x3e80
 422 543 436 575 436 606 c 0
 436 631 418 640 387 640 c 0
 361 640 317 634 317 576 c 0
EndSplineSet
Refer: 105 97 S 1 0 0 1 0 -0 3
EndChar

StartChar: ae
Encoding: 230 230 238
Width: 758
Flags: HW
TeX: 472 0
ItalicCorrection: 76
HStem: -8 75<124 313.86 517.233 672.728> 250 59<503 710> 414 71<225.477 383.841 580.22 681.953>
VStem: 66 95<82.6341 168.911> 377 95<114.936 219.607> 710 81<310.204 384.221>
AnchorPoint: "below" 384 0 basechar 0
AnchorPoint: "above" 485 485 basechar 0
LayerCount: 2
Fore
SplineSet
66 101 m 0
 66 137 72 209 208 252 c 0
 277 274 335 276 390 279 c 1
 400 326 401 333 401 346 c 0
 401 371 387 414 333 414 c 0
 253 414 207 385 163 359 c 1
 173 443 171 440 184 447 c 1
 229 467 282 485 350 485 c 0
 378 485 445 481 484 415 c 1
 529 453 584 484 651 484 c 0
 713 484 791 455 791 334 c 0
 791 306 787 277 781 250 c 1
 480 250 l 1
 476 228 472 216 472 194 c 0
 472 128 509 67 581 67 c 0
 659 67 721 111 741 124 c 1
 731 43 l 1
 687 16 629 -8 564 -8 c 0
 499 -8 445 18 410 67 c 1
 342 4 236 -8 163 -8 c 0
 85 -8 66 55 66 101 c 0
161 125 m 0
 161 102 178 67 235 67 c 0
 266 67 327 75 354 112 c 0
 368 131 369 161 377 220 c 1
 358 220 161 213 161 125 c 0
503 309 m 1
 710 309 l 1
 710 356 697 409 635 409 c 0
 582 409 532 362 503 309 c 1
EndSplineSet
EndChar

StartChar: ccedilla
Encoding: 231 231 239
Width: 467
Flags: HW
TeX: 472 145
ItalicCorrection: 88
HStem: -163 145 -8 78<212.354 383.568> 407 78<276.201 456.483>
VStem: 79 96<107.692 285.349> 111 185
DStem2: 111 -163 197 -163 0.600882 0.799338<51.6758 181.4>
AnchorPoint: "above" 370 485 basechar 0
LayerCount: 2
Fore
SplineSet
79 182 m 0
 79 331 213 485 370 485 c 0
 446 485 473 472 525 442 c 1
 494 360 l 1
 452 390 430 407 353 407 c 0xf0
 211 407 175 244 175 182 c 0
 175 113 213 70 281 70 c 0
 362 70 413 100 457 125 c 1
 446 42 l 1
 397 16 340 -8 264 -8 c 0
 148 -8 79 76 79 182 c 0
EndSplineSet
Refer: 20 184 S 1 0 0 1 29 0 2
EndChar

StartChar: icircumflex
Encoding: 238 238 246
Width: 225
Flags: HW
TeX: 666 0
ItalicCorrection: 106
HStem: -0 21<64 162.28> 452 20<159.763 259>
VStem: 64 195
DStem2: 57 537 132 537 0.755219 0.655473<56.6414 200.874> 64 -0 158 -0 0.207912 0.978148<19.5437 482.477>
AnchorPoint: "below" 112 0 basechar 0
AnchorPoint: "above" 254 668 basechar 0
LayerCount: 2
Fore
SplineSet
57 537 m 1
 216 675 l 1
 293 675 l 1
 394 537 l 1
 319 537 l 1
 245 628 l 1
 244 628 l 1
 132 537 l 1
 57 537 l 1
EndSplineSet
Refer: 33 305 S 1 0 0 1 -1 -0 2
Ligature2: "Latin ligatures excepting Turkic subtable" i uni0302
EndChar

StartChar: eth
Encoding: 240 240 248
Width: 525
Flags: HW
TeX: 694 0
ItalicCorrection: 100
HStem: -8 78<204.986 356.316> 409 76<267.241 420.922> 675 20G<262.5 319.5 414 444.2>
VStem: 73 96<106.182 285.412> 457 105<214.262 372.528>
LayerCount: 2
Fore
SplineSet
73 181 m 0
 73 332 214 485 365 485 c 0
 393 485 414 480 436 472 c 1
 413 520 392 541 364 569 c 1
 309 541 l 1
 282 615 l 1
 288 618 l 1
 265 626 247 634 213 639 c 1
 290 695 l 1
 349 683 362 667 377 667 c 0
 384 667 391 672 437 695 c 1
 464 620 l 1
 450 613 l 1
 526 540 562 451 562 354 c 0
 562 296 544 227 540 213 c 0
 503 89 383 -8 260 -8 c 0
 148 -8 73 74 73 181 c 0
169 178 m 0
 169 92 227 70 277 70 c 0
 421 70 457 229 457 301 c 0
 457 387 398 409 348 409 c 0
 302 409 264 391 238 368 c 0
 179 314 169 209 169 178 c 0
EndSplineSet
EndChar

StartChar: ntilde
Encoding: 241 241 249
Width: 517
Flags: HW
TeX: 666 0
ItalicCorrection: 41
HStem: 0 21<64 164.291 355 455.29> 405 75<322.333 447.313> 452 20<159.763 257> 543 76<400.527 488.385> 591 76<285.071 372.859>
VStem: 198 76<543 582.294> 426 101<253.055 389.973> 499 75<627.206 667>
DStem2: 64 0 160 0 0.207912 0.978148<19.9595 392.718 417.862 482.477> 355 0 451 0 0.207912 0.978148<19.9595 353.628>
LayerCount: 2
Fore
SplineSet
198 543 m 1x95
 214 618 276 667 329 667 c 0x8d
 381 667 414 619 455 619 c 0x95
 490 619 498 666 499 667 c 1
 574 667 l 1x8d
 556 590 496 543 443 543 c 0x95
 391 543 359 591 318 591 c 0x8d
 309 591 285 588 274 543 c 1
 198 543 l 1x95
EndSplineSet
Refer: 118 110 S 1 0 0 1 0 0 3
EndChar

StartChar: otilde
Encoding: 245 245 253
Width: 525
Flags: HW
TeX: 666 0
ItalicCorrection: 70
HStem: -8 78<204.986 354.468> 409 76<269.049 422.817> 543 76<404.753 492.482> 591 76<288.31 376.247>
VStem: 73 96<106.173 285.688> 203 75<543 582.294> 458 93<196.058 373.147> 503 76<627.206 667>
AnchorPoint: "below" 262 0 basechar 0
AnchorPoint: "above" 398 647 basechar 0
LayerCount: 2
Fore
SplineSet
203 543 m 1xed
 219 618 281 667 334 667 c 0xdd
 386 667 418 619 459 619 c 0xed
 494 619 502 666 503 667 c 1
 579 667 l 1xdd
 561 590 500 543 447 543 c 0xed
 395 543 363 591 322 591 c 0xdd
 313 591 289 588 278 543 c 1
 203 543 l 1xed
EndSplineSet
Refer: 119 111 S 1 0 0 1 0 0 3
AlternateSubs2: "Stilistic set 01 subtable" otilde.vn
AlternateSubs2: "Latin alternatives subtable" otilde.vn
Substitution2: "Latin Vietnamese substitutions subtable" otilde.vn
EndChar

StartChar: oe
Encoding: 339 339 255
Width: 817
Flags: HW
TeX: 472 0
ItalicCorrection: 76
HStem: -8 75<200.127 348.834 575.26 729.871> 250 59<561 768> 409 75<263.832 413.164 631.617 746.673>
VStem: 73 91<103.083 289.511> 448 83<194 307> 768 82<309.062 384.221>
AnchorPoint: "below" 408 0 basechar 0
AnchorPoint: "above" 532 485 basechar 0
LayerCount: 2
Fore
SplineSet
73 183 m 0
 73 339 214 484 359 484 c 0
 437 484 491 442 518 391 c 1
 600 478 683 484 711 484 c 0
 773 484 850 455 850 334 c 0
 850 306 846 278 840 250 c 1
 538 250 l 1
 534 228 531 216 531 194 c 0
 531 127 567 67 640 67 c 0
 719 67 785 114 800 124 c 1
 790 43 l 1
 746 17 687 -8 622 -8 c 0
 522 -8 474 51 456 87 c 1
 427 60 358 -8 254 -8 c 0
 145 -8 73 74 73 183 c 0
164 176 m 0
 164 89 222 67 270 67 c 0
 425 67 448 265 448 307 c 0
 448 388 391 409 342 409 c 0
 184 409 164 222 164 176 c 0
561 309 m 1
 768 309 l 1
 768 359 754 409 694 409 c 0
 641 409 590 362 561 309 c 1
EndSplineSet
EndChar

StartChar: oslash
Encoding: 248 248 256
Width: 525
Flags: HW
TeX: 555 83
ItalicCorrection: 51
HStem: -8 75<227.853 359.755> 409 76<268.23 398.457>
VStem: 73 90<120.115 285.159> 461 90<189.821 352.319>
DStem2: 28 -64 85 -102 0.6238 0.781584<5.85638 146.49 234.105 589.946 672.766 817.57>
LayerCount: 2
Fore
SplineSet
28 -64 m 1
 120 50 l 1
 120 51 l 1
 112 60 73 103 73 181 c 0
 73 333 214 485 364 485 c 0
 399 485 425 477 451 465 c 1
 538 575 l 1
 596 536 l 1
 505 423 l 1
 513 412 551 370 551 290 c 0
 551 132 406 -8 260 -8 c 0
 227 -8 206 -3 174 10 c 1
 85 -102 l 1
 28 -64 l 1
163 175 m 0
 163 141 169 129 174 119 c 1
 399 400 l 1
 383 406 366 409 348 409 c 0
 193 409 163 233 163 175 c 0
227 75 m 1
 242 71 256 67 276 67 c 0
 439 67 461 251 461 298 c 0
 461 324 456 338 450 354 c 1
 227 75 l 1
EndSplineSet
EndChar

StartChar: ucircumflex
Encoding: 251 251 259
Width: 517
Flags: HW
TeX: 666 0
ItalicCorrection: 64
HStem: -8 71<146 278.594> 0 21<358 456.237> 452 20<160.723 261 451.749 552>
VStem: 84 98<67.0672 192.727>
DStem2: 62.5174 -8 159.179 -8 0.207912 0.978148<122.092 490.818> 204 538 279 537 0.757572 0.652751<56.1652 200.414> 356.3 -8 450.3 -8 0.207912 0.978148<27.7224 84.8664 116.147 490.24>
AnchorPoint: "below" 258 0 basechar 0
AnchorPoint: "above" 400 668 basechar 0
LayerCount: 2
Fore
SplineSet
204 538 m 1
 363 675 l 1
 440 675 l 1
 541 537 l 1
 466 537 l 1
 392 628 l 1
 391 628 l 1x30
 279 537 l 1
 235 537 l 1
 204 538 l 1
EndSplineSet
Refer: 125 117 S 1 0 0 1 0 0 3
EndChar

StartChar: thorn
Encoding: 254 254 262
Width: 517
Flags: HW
TeX: 694 166
ItalicCorrection: 44
HStem: -167 21G<30 130.292> -8 75<212.422 330.933> 403 77<323.017 399.077> 675 20G<213 307>
VStem: 440 100<192.3 357.722>
DStem2: 30 -167 126 -167 0.207912 0.978148<19.9595 243.946 286.852 567.95 616.563 881.211>
LayerCount: 2
Fore
SplineSet
30 -167 m 1
 213 694 l 1
 213 695 l 1
 307 695 l 1
 248 417 l 1
 290 447 353 480 430 480 c 2
 431 480 l 2
 475 480 540 455 540 313 c 0
 540 143 415 -8 290 -8 c 0
 220 -8 187 33 173 52 c 1
 126 -167 l 1
 30 -167 l 1
186 114 m 1
 199 90 217 67 258 67 c 0
 345 67 440 165 440 280 c 0
 440 352 399 403 338 403 c 0
 296 403 257 378 244 365 c 0
 236 356 239 363 186 114 c 1
EndSplineSet
EndChar

StartChar: germandbls
Encoding: 223 223 263
Width: 492
Flags: HW
TeX: 694 0
ItalicCorrection: 89
HStem: -8 75<221.476 351.129> 0 21G<65 163.247> 397 75<318 366.631> 627 76<303.843 451.523>
VStem: 415 94<149.048 346.064> 459 97<523.981 616.595>
DStem2: 63.2995 -8 157.3 -8 0.207912 0.978148<27.7224 656.96>
LayerCount: 2
Fore
SplineSet
65 0 m 1
 183 554 l 2
 186 570 189 585 197 599 c 0
 232 665 317 703 397 703 c 0
 485 703 556 657 556 589 c 0x74
 556 534 509 468 437 430 c 1
 449 419 509 370 509 257 c 0
 509 90 383 -8 274 -8 c 0
 240 -8 214 -1 190 7 c 1
 230 78 l 1
 249 72 270 67 290 67 c 0xb8
 395 67 415 205 415 260 c 0xb8
 415 338 378 394 302 397 c 1
 318 472 l 1
 439 474 459 559 459 580 c 0
 459 621 419 627 380 627 c 0
 289 627 282 578 276 551 c 2
 159 0 l 1
 65 0 l 1
EndSplineSet
EndChar

StartChar: grave.uc
Encoding: 65542 -1 264
Width: 525
Flags: HW
TeX: 629 0
HStem: 538 91
VStem: 200 272
LayerCount: 2
Fore
SplineSet
200 629 m 1
 326 629 l 2
 340 629 341 627 472 538 c 1
 373 538 l 2
 362 538 355 542 200 629 c 1
EndSplineSet
EndChar

StartChar: acute.uc
Encoding: 65543 -1 265
Width: 525
Flags: HW
TeX: 629 0
ItalicCorrection: 75
HStem: 538 89
VStem: 280 310
LayerCount: 2
Fore
SplineSet
280 538 m 1
 431 617 l 1
 453 627 l 1
 473 629 l 1
 555 629 l 1
 590 628 l 1
 413 549 l 1
 388 539 l 1
 371 538 l 1
 280 538 l 1
EndSplineSet
EndChar

StartChar: tilde.uc
Encoding: 65544 -1 266
Width: 525
Flags: HW
TeX: 661 0
ItalicCorrection: 83
HStem: 505 76<412.211 482.425> 591 76<289.948 360.503>
VStem: 194 75<505 569.188> 503 76<605.079 667>
LayerCount: 2
Fore
SplineSet
194 505 m 1
 217 608 277 667 333 667 c 0
 393 667 399 581 452 581 c 0
 494 581 500 664 503 667 c 1
 579 667 l 1
 555 562 496 505 440 505 c 0
 379 505 374 591 321 591 c 0
 289 591 279 550 269 505 c 1
 194 505 l 1
EndSplineSet
EndChar

StartChar: ring.uc
Encoding: 65546 -1 269
Width: 692
Flags: HW
TeX: 661 0
HStem: 430 75<402.767 507.307> 597 75<417.372 520.837>
VStem: 342 60<507.204 587.218> 522 60<514.895 594.366>
LayerCount: 2
Fore
SplineSet
342 525 m 0
 342 602 414 672 488 672 c 0
 546 672 582 630 582 577 c 0
 582 500 511 430 437 430 c 0
 381 430 342 470 342 525 c 0
402 534 m 0
 402 504 426 506 450 505 c 1
 475 506 522 501 522 567 c 0
 522 597 498 596 475 597 c 1
 444 596 412 600 403 547 c 0
 402 543 402 538 402 534 c 0
EndSplineSet
EndChar

StartChar: twelveudash
Encoding: 61700 61700 270
Width: 700
Flags: HW
TeX: 470 0
ItalicCorrection: 91
HStem: 254 76<70 754>
LayerCount: 2
Fore
SplineSet
54 254 m 1
 70 330 l 1
 769 330 l 1
 754 254 l 1
 54 254 l 1
EndSplineSet
EndChar

StartChar: threequartersemdash
Encoding: 63198 63198 271
Width: 787
Flags: HW
TeX: 470 0
ItalicCorrection: 91
HStem: 254 76<70 841>
LayerCount: 2
Fore
SplineSet
54 254 m 1
 70 330 l 1
 857 330 l 1
 841 254 l 1
 54 254 l 1
EndSplineSet
EndChar

StartChar: arrowleft
Encoding: 8592 8592 272
Width: 1050
Flags: HW
TeX: 389 -133
HStem: 240 49<248 1046>
VStem: 270 49<14 130.576>
LayerCount: 2
Fore
SplineSet
115 265 m 1
 224 303 327 392 376 514 c 1
 425 514 l 1
 387 412 312 339 248 289 c 1
 1019 289 l 2
 1043 289 1047 277 1047 269 c 0
 1047 262 1044 241 1010 240 c 1
 237 240 l 1
 275 199 319 134 319 14 c 1
 270 14 l 1
 270 156 193 222 143 250 c 1
 115 265 l 1
EndSplineSet
EndChar

StartChar: arrowright
Encoding: 8594 8594 273
Width: 1050
Flags: HW
TeX: 389 -133
HStem: 240 49<114.787 913>
VStem: 842 49<397.424 514>
LayerCount: 2
Fore
SplineSet
113 259 m 0
 113 262 116 289 151 289 c 2
 924 289 l 1
 864 354 842 427 842 514 c 1
 891 514 l 1
 891 372 968 306 1018 278 c 1
 1046 264 l 1
 933 224 831 129 785 14 c 1
 736 14 l 1
 766 95 826 172 913 240 c 1
 142 240 l 2
 121 240 113 249 113 259 c 0
EndSplineSet
EndChar

StartChar: uni0361.alt
Encoding: 61701 61701 274
Width: 225
Flags: HW
TeX: 694 0
ItalicCorrection: 431
HStem: 590 80<289.907 574.644>
LayerCount: 2
Fore
SplineSet
185 571 m 1
 206 641 342 670 443 670 c 0
 559 670 660 634 660 581 c 2
 660 571 l 1
 563 571 l 1
 563 574 l 1
 540 586 498 590 427 590 c 0
 398 590 314 588 290 577 c 1
 281 571 l 1
 185 571 l 1
EndSplineSet
EndChar

StartChar: uni0361
Encoding: 865 865 275
Width: 0
Flags: HW
TeX: 916 0
ItalicCorrection: 481
HStem: 587 80<50.4892 280.785>
VStem: 326 98<505 551.225>
AnchorPoint: "affricate-above" 151 485 mark 0
LayerCount: 2
Fore
SplineSet
-111 505 m 1
 -89 594 36 667 192 667 c 0
 325 667 424 606 424 527 c 0
 424 520 423 512 422 505 c 1
 325 505 l 1
 325 508 326 510 326 513 c 0
 326 557 256 587 172 587 c 0
 153 587 11 583 -15 505 c 1
 -111 505 l 1
EndSplineSet
EndChar

StartChar: uni2040.alt
Encoding: 61702 61702 276
Width: 458
Flags: HW
TeX: 694 0
ItalicCorrection: 431
HStem: 590 80<257.79 458.653>
LayerCount: 2
Fore
SplineSet
166 571 m 1
 188 644 299 670 369 670 c 0
 471 670 534 629 534 583 c 0
 534 579 534 575 533 571 c 1
 436 571 l 1
 434 574 431 590 353 590 c 0
 288 590 270 579 262 571 c 1
 166 571 l 1
EndSplineSet
EndChar

StartChar: uni2040
Encoding: 8256 8256 277
Width: 458
Flags: HW
TeX: 694 0
ItalicCorrection: 481
HStem: 587 80<251.186 446.37>
VStem: 481 98<505 556.176>
LayerCount: 2
Fore
SplineSet
94 505 m 1
 117 599 239 667 370 667 c 0
 497 667 579 603 579 529 c 0
 579 521 578 513 577 505 c 1
 481 505 l 1
 481 514 l 2
 481 558 425 587 354 587 c 0
 291 587 209 563 190 505 c 1
 94 505 l 1
EndSplineSet
EndChar

StartChar: uni2422
Encoding: 9250 9250 278
Width: 517
Flags: HW
TeX: 694 0
ItalicCorrection: 35
HStem: -8 75<211.366 342.452> 0 21G<65 165.231> 405 75<320.03 469> 675 20G<212 307>
VStem: 444 96<192.977 372.718>
DStem2: 57 462 95 401 0.814308 0.580433<0 75.1672 289.689 465.875> 63.2995 -8 159.3 -8 0.207912 0.978148<28.1382 81.2889 123.738 404.491 455.092 465.162 671.816 718.554>
LayerCount: 2
Fore
SplineSet
57 462 m 1
 182 551 l 1
 212 694 l 1
 212 695 l 1
 307 695 l 1
 293 630 l 1
 439 735 l 1
 478 674 l 1
 282 534 l 1
 272 525 l 1
 267 511 l 1
 248 418 l 1
 321 471 386 480 425 480 c 0
 513 480 540 384 540 315 c 0
 540 144 415 -8 287 -8 c 0xb8
 218 -8 185 34 172 52 c 1
 161 0 l 1
 65 0 l 1x78
 160 447 l 1
 95 401 l 1
 57 462 l 1
185 114 m 1
 198 91 213 67 259 67 c 0xb8
 399 67 427 201 434 233 c 0
 438 250 444 279 444 306 c 0
 444 385 386 405 341 405 c 0
 291 405 247 376 239 361 c 0
 234 350 237 360 185 114 c 1
EndSplineSet
EndChar

StartChar: quotesingle
Encoding: 39 39 279
Width: 292
Flags: HW
TeX: 694 0
ItalicCorrection: 78
HStem: 399 296<244 267>
VStem: 192 149
DStem2: 192 399 267 399 0.207912 0.978148<15.5934 300.343>
LayerCount: 2
Fore
SplineSet
192 399 m 1
 244 695 l 1
 341 695 l 1
 267 399 l 1
 192 399 l 1
EndSplineSet
EndChar

StartChar: asteriskmath
Encoding: 8727 8727 280
Width: 525
Flags: HW
TeX: 479 -48
HStem: 321 70<451.314 519.791> 459 20G<354.5 372>
VStem: 240 74<53.7374 147.418> 321 74<382.168 474.263>
LayerCount: 2
Fore
SplineSet
112 169 m 0
 112 205 133 207 276 264 c 1
 153 323 149 319 149 342 c 0
 149 368 176 391 198 391 c 0
 215 391 218 383 304 302 c 1
 315 423 315 443 321 454 c 0
 329 469 346 479 363 479 c 0
 381 479 395 468 395 451 c 0
 395 445 396 447 347 302 c 1
 477 389 475 391 491 391 c 0
 509 391 523 377 523 358 c 0
 523 343 514 329 502 321 c 0
 496 317 360 264 360 264 c 1
 482 206 486 209 486 186 c 0
 486 160 460 136 438 136 c 0
 422 136 415 146 331 225 c 1
 320 103 320 85 314 74 c 0
 306 59 289 49 272 49 c 0
 254 49 240 60 240 77 c 0
 240 91 248 107 287 225 c 1
 167 144 160 136 144 136 c 0
 133 136 112 146 112 169 c 0
EndSplineSet
EndChar

StartChar: fraction
Encoding: 8260 8260 282
Width: 525
Flags: HW
TeX: 750 222
ItalicCorrection: 130
DStem2: 28 -170 67 -202 0.515895 0.856652<-28.3598 1071.71>
LayerCount: 2
Fore
SplineSet
17 -197 m 0
 17 -186 25 -175 28 -170 c 2
 570 730 l 2
 575 737 582 749 596 749 c 0
 608 749 620 739 620 725 c 0
 620 715 610 702 604 692 c 2
 67 -202 l 2
 54 -223 43 -222 40 -222 c 0
 27 -222 17 -210 17 -197 c 0
EndSplineSet
EndChar

StartChar: zerooldstyle
Encoding: 63280 63280 283
Width: 525
Flags: HW
TeX: 470 0
ItalicCorrection: 58
HStem: -17 76<199.285 358.687> 414 75<260.877 429.943>
VStem: 80 94<82.86 277.758> 452 92<207.839 389.747>
LayerCount: 2
Fore
SplineSet
80 147 m 0
 80 185 87 213 92 241 c 1
 122 375 198 489 366 489 c 0
 452 489 544 456 544 324 c 0
 544 263 522 139 455 64 c 0
 404 7 331 -17 257 -17 c 0
 170 -17 80 16 80 147 c 0
174 145 m 0
 174 93 197 59 274 59 c 0
 404 59 419 156 442 260 c 0
 447 283 452 307 452 331 c 0
 452 381 430 414 352 414 c 0
 244 414 204 371 176 177 c 0
 175 164 174 158 174 145 c 0
EndSplineSet
EndChar

StartChar: oneoldstyle
Encoding: 63281 63281 284
Width: 525
Flags: HW
TeX: 470 0
HStem: 0 75<111 242 339 452> 355 75<180 301.377> 458 20G<395 425>
LayerCount: 2
Fore
SplineSet
95 0 m 1
 111 75 l 1
 242 75 l 1
 242 76 l 1
 304 369 l 1
 250 357 221 355 165 355 c 1
 180 430 l 1
 359 430 376 478 414 478 c 2
 425 478 l 1
 339 75 l 1
 468 75 l 1
 452 0 l 1
 95 0 l 1
EndSplineSet
EndChar

StartChar: twooldstyle
Encoding: 63282 63282 285
Width: 525
Flags: HW
TeX: 470 0
ItalicCorrection: 56
HStem: -0 84<152 471> 410 79<239.41 409.086>
VStem: 441 101<278.356 380.037>
DStem2: 63 80 152 84 0.886485 0.462757<80.7482 386.928>
LayerCount: 2
Fore
SplineSet
46 -0 m 1
 63 80 l 1
 222 163 l 1
 304 201 441 234 441 334 c 0
 441 394 368 410 321 410 c 0
 253 410 212 378 179 330 c 1
 126 389 l 1
 195 458 259 489 349 489 c 0
 490 489 542 418 542 350 c 0
 542 227 408 212 309 162 c 2
 152 84 l 1
 489 84 l 1
 471 -0 l 1
 46 -0 l 1
EndSplineSet
EndChar

StartChar: threeoldstyle
Encoding: 63283 63283 286
Width: 525
Flags: HW
TeX: 470 166
ItalicCorrection: 56
HStem: -184 78<130.206 311.846> 140 76<220 340.625> 414 75<255.394 410.921>
VStem: 383 104<-30.9371 112.412> 425 100<291.558 398.867>
LayerCount: 2
Fore
SplineSet
22 -100 m 1
 52 -24 l 1
 70 -45 124 -106 233 -106 c 0
 346 -106 383 -6 383 51 c 0xf0
 383 135 308 141 279 141 c 0
 275 141 272 140 270 140 c 2
 204 140 l 1
 220 216 l 1
 258 219 359 212 409 300 c 0
 417 315 425 333 425 355 c 0
 425 378 414 414 345 414 c 0
 269 414 216 373 175 330 c 1
 142 395 l 1
 241 487 335 489 361 489 c 0
 452 489 525 438 525 361 c 0xe8
 525 305 486 226 384 177 c 1
 456 148 487 99 487 46 c 0
 487 -53 374 -184 216 -184 c 0
 100 -184 40 -119 22 -100 c 1
EndSplineSet
EndChar

StartChar: fouroldstyle
Encoding: 63284 63284 287
Width: 525
Flags: HW
TeX: 470 166
ItalicCorrection: 2
HStem: 0 80<143 302 414 495> 460 20G<368.037 499>
DStem2: 263 -184 358 -184 0.207912 0.978148<19.7516 188.088 289.626 597.851>
LayerCount: 2
Fore
SplineSet
29 0 m 1
 48 87 41 74 61 98 c 2
 385 480 l 1
 499 480 l 1
 414 80 l 1
 512 80 l 1
 495 0 l 1
 397 0 l 1
 358 -184 l 1
 263 -184 l 1
 302 0 l 1
 29 0 l 1
143 80 m 1
 324 80 l 1
 391 400 l 1
 360 335 261 221 143 80 c 1
EndSplineSet
EndChar

StartChar: fiveoldstyle
Encoding: 63285 63285 288
Width: 525
Flags: HW
TeX: 470 166
ItalicCorrection: 42
HStem: -183 77<140.734 300.197> 169 76<234.92 364.264> 393 79<254 520>
VStem: 383 100<-10.5441 150.333>
DStem2: 38.6967 -183 131.04 -183 0.207912 0.978148<302.906 352.016 423.024 606.991>
LayerCount: 2
Fore
SplineSet
33 -87 m 1
 92 -19 l 1
 117 -90 173 -106 218 -106 c 0
 344 -106 366 -4 375 39 c 0
 379 57 383 75 383 94 c 0
 383 154 341 169 307 169 c 0
 279 169 228 160 183 96 c 1
 98 96 l 1
 178 472 l 1
 537 472 l 1
 520 393 l 1
 254 393 l 1
 253 392 l 1
 215 212 l 1
 245 231 278 245 323 245 c 0
 415 245 483 177 483 79 c 0
 483 -64 343 -183 201 -183 c 0
 111 -183 58 -136 33 -87 c 1
EndSplineSet
EndChar

StartChar: sevenoldstyle
Encoding: 63287 63287 290
Width: 525
Flags: HW
TeX: 470 166
ItalicCorrection: 100
HStem: -175 21G<116 222> 389 83<144 497>
VStem: 116 100<-175 -100.709>
LayerCount: 2
Fore
SplineSet
116 -175 m 1
 189 154 416 328 497 389 c 1
 126 389 l 1
 144 472 l 1
 581 472 l 1
 564 393 l 1
 277 141 228 -125 216 -175 c 1
 116 -175 l 1
EndSplineSet
EndChar

StartChar: nineoldstyle
Encoding: 63289 63289 292
Width: 525
Flags: HW
TeX: 470 166
ItalicCorrection: 42
HStem: -184 78<116.915 277.815> 414 75<271.588 415.391>
VStem: 88 96<114.017 293.354> 440 90<231.599 388.415>
LayerCount: 2
Fore
SplineSet
46 -139 m 1
 99 -71 l 1
 100 -71 l 1
 128 -95 152 -106 194 -106 c 0
 248 -106 299 -81 334 -40 c 0
 372 4 392 58 407 121 c 1
 317 20 233 20 202 18 c 1
 165 21 135 27 108 85 c 0
 96 110 88 140 88 177 c 0
 88 208 95 277 124 331 c 0
 156 391 245 489 370 489 c 0
 434 489 530 457 530 290 c 0
 530 36 361 -184 177 -184 c 0
 125 -184 86 -172 46 -139 c 1
184 171 m 0
 184 93 250 95 276 94 c 1
 294 96 304 95 323 103 c 0
 380 126 424 189 432 254 c 1
 434 254 l 1
 437 277 440 300 440 323 c 0
 440 396 396 414 352 414 c 0
 229 414 205 319 186 199 c 0
 185 190 184 180 184 171 c 0
EndSplineSet
EndChar

StartChar: angleleft
Encoding: 9001 9001 293
Width: 408
Flags: HW
TeX: 750 222
VStem: 172 330
DStem2: 221 260 173 251 0.184289 -0.982872<0 462.779> 181 287 221 260 0.524633 0.851328<-2.00053 545.439>
LayerCount: 2
Fore
SplineSet
172 263 m 0
 172 273 176 278 181 287 c 2
 449 725 l 2
 454 733 462 749 478 749 c 0
 493 749 499 739 502 730 c 1
 502 722 l 1
 501 715 498 709 494 703 c 2
 221 260 l 1
 305 -188 l 2
 305 -191 306 -193 306 -195 c 0
 306 -208 300 -217 285 -221 c 1
 275 -221 262 -221 256 -192 c 2
 173 251 l 2
 172 255 172 259 172 263 c 0
EndSplineSet
EndChar

StartChar: minus
Encoding: 8722 8722 294
Width: 642
Flags: HW
TeX: 523 -1
ItalicCorrection: 26
HStem: 226 76<118.428 635.497>
LayerCount: 2
Fore
SplineSet
115 264 m 0
 115 274 119 302 160 302 c 2
 589 302 l 2
 631 302 639 279 639 264 c 0
 639 253 634 226 592 226 c 2
 159 226 l 2
 119 226 115 254 115 264 c 0
EndSplineSet
EndChar

StartChar: angleright
Encoding: 9002 9002 295
Width: 408
Flags: HW
TeX: 750 222
VStem: 17 330
DStem2: 25 -175 69 -197 0.522382 0.852712<-26.2563 520.692> 263 720 213 716 0.184687 -0.982797<-13.1655 449.521>
LayerCount: 2
Fore
SplineSet
17 -194 m 1
 18 -187 21 -181 25 -175 c 2
 297 269 l 1
 213 716 l 1
 213 724 l 2
 213 742 225 747 234 749 c 1
 243 749 257 750 263 720 c 2
 346 278 l 2
 347 274 347 269 347 265 c 0
 347 255 342 249 337 240 c 2
 69 -197 l 2
 64 -205 56 -221 40 -221 c 0
 26 -221 20 -210 17 -201 c 1
 17 -194 l 1
EndSplineSet
EndChar

StartChar: uni2127
Encoding: 8487 8487 296
Width: 758
Flags: HW
TeX: 694 0
ItalicCorrection: 127
HStem: -17 76<286.647 506.739> 611 84<194 351 666 841>
VStem: 103 105<124.719 283.642> 650 104<192.855 399.538>
LayerCount: 2
Fore
SplineSet
103 191 m 0
 103 343 278 473 351 611 c 1
 177 611 l 1
 194 695 l 1
 458 695 l 1
 421 534 277 424 223 272 c 0
 215 249 208 224 208 198 c 0
 208 97 300 59 391 59 c 0
 522 59 650 131 650 294 c 0
 650 408 588 517 588 631 c 0
 588 651 593 693 595 695 c 1
 858 695 l 1
 841 611 l 1
 666 611 l 1
 679 497 754 401 754 286 c 0
 754 107 561 -17 375 -17 c 0
 224 -17 103 66 103 191 c 0
EndSplineSet
EndChar

StartChar: circle
Encoding: 9675 9675 297
Width: 1091
Flags: HW
TeX: 750 222
HStem: -239 49<373.369 627.773> 718 49<574.695 828.831>
VStem: 103 49<30.033 292.512> 1050 49<235.638 497.302>
LayerCount: 2
Fore
SplineSet
103 161 m 0
 103 477 398 767 703 767 c 0
 941 767 1099 592 1099 366 c 0
 1099 54 807 -239 499 -239 c 0
 261 -239 103 -64 103 161 c 0
152 161 m 0
 152 -41 291 -190 498 -190 c 0
 780 -190 1050 81 1050 367 c 0
 1050 567 912 718 704 718 c 0
 422 718 152 447 152 161 c 0
EndSplineSet
EndChar

StartChar: uni301A
Encoding: 12314 12314 299
Width: 423
Flags: HW
TeX: 750 222
HStem: -222 49<133 215 264 352> 701 49<318 401 450 548>
DStem2: 204.585 -222 253.585 -222 0.207912 0.978148<60.2824 943.667>
LayerCount: 2
Fore
SplineSet
73 -222 m 1
 279 750 l 1
 558 750 l 1
 548 701 l 1
 450 701 l 1
 449 700 l 1
 264 -173 l 1
 362 -173 l 1
 352 -222 l 1
 73 -222 l 1
133 -173 m 1
 215 -173 l 1
 401 701 l 1
 318 701 l 1
 318 700 l 1
 133 -173 l 1
EndSplineSet
EndChar

StartChar: uni301B
Encoding: 12315 12315 300
Width: 423
Flags: HW
TeX: 750 222
HStem: -222 49<-13 85 134 217> 701 49<184 271 320 402>
DStem2: 206.585 -222 255 -222 0.207912 0.978148<50.0947 943.459>
LayerCount: 2
Fore
SplineSet
-23 -222 m 1
 -13 -173 l 1
 85 -173 l 1
 271 701 l 1
 173 701 l 1
 184 750 l 1
 462 750 l 1
 255 -222 l 1
 -23 -222 l 1
134 -173 m 1
 217 -173 l 1
 402 701 l 1
 320 701 l 1
 320 700 l 1
 134 -173 l 1
EndSplineSet
EndChar

StartChar: arrowup
Encoding: 8593 8593 301
Width: 525
Flags: HW
TeX: 694 166
ItalicCorrection: 53
HStem: -166 21G<219.5 241> 420 49<128 188.906 538.363 585.571> 674 20G<381.5 411>
DStem2: 202.411 -166 251.073 -166 0.207912 0.978148<20.8633 731.871>
LayerCount: 2
Fore
SplineSet
118 420 m 1
 128 469 l 1
 254 496 354 581 409 694 c 1
 413 662 414 644 427 610 c 0
 441 575 481 498 595 469 c 1
 584 420 l 1
 464 448 416 528 403 550 c 1
 260 -124 l 2
 258 -133 255 -166 227 -166 c 0
 212 -166 208 -157 208 -146 c 0
 208 -143 208 -139 209 -135 c 2
 354 550 l 1
 293 491 219 441 118 420 c 1
EndSplineSet
EndChar

StartChar: arrowdown
Encoding: 8595 8595 302
Width: 525
Flags: HW
TeX: 694 166
HStem: -166 21G<225 236.667> 59 49<49.5714 96.2771 447.199 507> 674 20G<395 416.5>
DStem2: 201.392 -166 250.392 -166 0.207912 0.978148<157.405 868.576>
LayerCount: 2
Fore
SplineSet
41 59 m 1
 51 108 l 1
 164 83 209 13 232 -22 c 1
 375 651 l 2
 377 660 381 694 409 694 c 0
 424 694 428 685 428 674 c 0
 428 670 428 667 427 663 c 2
 281 -22 l 1
 348 44 426 89 517 108 c 1
 507 59 l 1
 468 48 388 30 306 -53 c 0
 291 -68 277 -84 264 -101 c 1
 263 -107 l 1
 261 -107 l 1
 242 -136 l 1
 226 -166 l 1
 224 -145 221 -125 217 -107 c 1
 214 -107 l 1
 212 -77 173 25 41 59 c 1
EndSplineSet
EndChar

StartChar: uni22C6
Encoding: 8902 8902 304
Width: 525
Flags: HW
TeX: 500 -27
LayerCount: 2
Fore
SplineSet
61 327 m 1
 285 293 l 1
 373 524 l 1
 372 490 l 1
 364 293 l 1
 572 323 l 1
 603 327 l 1
 372 219 l 1
 424 35 l 1
 431 8 l 1
 299 173 l 1
 97 9 l 1
 245 219 l 1
 61 327 l 1
EndSplineSet
EndChar

StartChar: uni26AE
Encoding: 9902 9902 305
Width: 525
Flags: HW
TeX: 500 -27
HStem: 28 86<-58.2607 74.8885 509.784 638.806> 414 86<-2.48061 127.302 563.371 696.513>
VStem: -168 84<140.132 309.637> 151 91<216.365 390.077> 395 91<137.493 309.252> 721 84<217.105 389.292>
DStem2: 188 -122 285 -122 0.207912 0.978148<20.1674 789.227>
LayerCount: 2
Fore
SplineSet
-168 205 m 0
 -168 356 -42 500 85 500 c 0
 179 500 242 424 242 321 c 0
 242 168 113 28 -13 28 c 0
 -113 28 -168 111 -168 205 c 0
-84 202 m 0
 -84 132 -37 114 4 114 c 0
 29 114 62 122 86 144 c 0
 145 197 151 318 151 329 c 0
 151 397 106 414 66 414 c 0
 -24 414 -68 343 -83 220 c 0
 -84 214 -84 208 -84 202 c 0
188 -122 m 1
 352 650 l 1
 449 650 l 1
 285 -122 l 1
 188 -122 l 1
395 206 m 0
 395 357 523 500 651 500 c 0
 743 500 805 425 805 322 c 0
 805 170 677 28 553 28 c 0
 458 28 395 103 395 206 c 0
486 199 m 0
 486 131 530 114 570 114 c 0
 660 114 704 183 720 307 c 0
 721 313 721 319 721 326 c 0
 721 396 675 414 634 414 c 0
 518 414 501 293 489 234 c 1
 488 223 486 213 486 199 c 0
EndSplineSet
EndChar

StartChar: uni271D
Encoding: 10013 10013 306
Width: 525
Flags: HW
TeX: 611 22
HStem: 364 81<153 291 405 543>
DStem2: 210 -22 306 -22 0.207912 0.978148<19.9595 394.406 497.338 653.104>
LayerCount: 2
Fore
SplineSet
135 361 m 1
 153 447 l 1
 309 445 l 1
 345 617 l 1
 441 617 l 1
 405 445 l 1
 561 447 l 1
 543 361 l 1
 388 364 l 1
 306 -22 l 1
 210 -22 l 1
 291 364 l 1
 135 361 l 1
EndSplineSet
EndChar

StartChar: leaf
Encoding: 61704 61704 307
Width: 1050
Flags: HW
TeX: 694 0
HStem: -61 30<106.297 404.931> 159 30<356 803> 367 30<714 1016> 726 29<802.121 1085.37>
DStem2: 25 31 36 3 0.864523 0.502594<0 305.896 365.567 717.802 779.605 1310.11> 235.373 -61 264.885 -61 0.207912 0.978148<276.034 578.503> 549.924 -61 580.461 -61 0.207912 0.978148<489.916 769.827>
LayerCount: 2
Fore
SplineSet
-13 1 m 0
 -13 12 42 242 252 452 c 0
 422 621 672 755 945 755 c 0
 1041 755 1125 737 1189 714 c 0
 1198 711 1211 706 1211 693 c 0
 1211 681 1136 364 813 130 c 0
 652 14 455 -61 255 -61 c 0
 156 -61 71 -42 7 -18 c 0
 -2 -15 -13 -11 -13 1 c 0
25 31 m 1
 275 176 l 2
 287 183 288 187 290 196 c 2
 355 505 l 1
 354 505 l 1
 311 468 282 443 233 389 c 0
 140 286 67 163 25 31 c 1
36 3 m 1
 106 -21 181 -31 255 -31 c 0
 474 -31 680 64 803 159 c 1
 325 159 l 1
 305 158 l 1
 290 151 l 1
 36 3 l 1
321 203 m 1
 646 391 l 1
 710 692 l 1
 609 661 503 617 391 533 c 1
 321 203 l 1
356 189 m 1
 842 189 l 1
 881 222 956 285 1016 367 c 1
 662 367 l 1
 356 189 l 1
681 412 m 1
 1162 692 l 1
 1108 707 1047 726 943 726 c 0
 862 726 800 713 741 700 c 1
 681 412 l 1
714 397 m 1
 1039 397 l 1
 1111 500 1145 579 1173 663 c 1
 714 397 l 1
EndSplineSet
EndChar

StartChar: uni26AD
Encoding: 9901 9901 308
Width: 525
Flags: HW
TeX: 500 -27
HStem: 28 86<72.2603 231.361 349.611 503.491> 414 86<136.813 288.909 406.811 566.646>
VStem: -50 86<148.539 315.512> 214 92<203.154 313.744> 333 92<214.121 323.88> 603 85<215.605 380.309>
LayerCount: 2
Fore
SplineSet
-50 214 m 0
 -50 363 92 500 237 500 c 0
 304 500 339 474 361 458 c 1
 409 489 460 500 503 500 c 0
 613 500 688 422 688 314 c 0
 688 172 554 28 402 28 c 0
 359 28 316 39 278 70 c 1
 241 48 193 28 136 28 c 0
 26 28 -50 107 -50 214 c 0
36 215 m 0
 36 150 75 114 153 114 c 0
 194 114 208 121 232 129 c 1
 221 155 214 180 214 214 c 0
 214 288 246 346 290 399 c 1
 271 408 252 414 219 414 c 0
 76 414 49 303 39 253 c 0
 37 241 36 228 36 215 c 0
306 203 m 1
 323 233 333 284 333 315 c 0
 333 318 332 322 332 325 c 1
 308 277 307 228 306 203 c 1
349 129 m 1
 355 126 377 114 420 114 c 0
 563 114 589 225 599 275 c 0
 601 287 603 300 603 313 c 0
 603 394 543 414 486 414 c 0
 452 414 429 408 406 399 c 1
 417 373 425 347 425 313 c 0
 425 219 370 156 349 129 c 1
EndSplineSet
EndChar

StartChar: musicalnote
Encoding: 9834 9834 309
Width: 642
Flags: HW
TeX: 694 0
HStem: -33 299<185.924 324.516> 674 20G<515.5 536>
VStem: 567 55<127.73 355.56>
DStem2: 352.798 -33 402.89 -33 0.207912 0.978148<260.697 535.868>
LayerCount: 2
Fore
SplineSet
82 100 m 0
 82 196 178 266 284 266 c 0
 358 266 394 234 407 222 c 1
 500 661 l 2
 501 666 504 694 527 694 c 0
 545 694 551 677 551 670 c 0
 551 662 545 629 545 603 c 0
 545 471 622 360 622 218 c 0
 622 143 610 126 591 126 c 0
 576 126 567 139 567 152 c 0
 567 165 573 183 573 217 c 0
 573 297 550 350 512 481 c 1
 442 151 l 1
 430 104 431 80 391 36 c 0
 356 -1 299 -33 232 -33 c 0
 150 -33 82 21 82 100 c 0
EndSplineSet
EndChar

StartChar: tildelow
Encoding: 61705 61705 310
Width: 642
Flags: HW
TeX: 134 0
HStem: -0 76<360.871 484.594> 59 76<184.189 309.012>
VStem: 87 75<0 34.3644> 507 75<99.1118 135>
LayerCount: 2
Fore
SplineSet
87 0 m 1xb0
 108 87 185 135 251 135 c 0x70
 322 135 370 76 432 76 c 0xb0
 466 76 496 97 507 135 c 1
 582 135 l 1x70
 563 54 489 0 419 -0 c 0xb0
 348 0 300 59 237 59 c 0x70
 207 59 175 42 162 0 c 1
 87 0 l 1xb0
EndSplineSet
EndChar

StartChar: breve.ts1
Encoding: 61707 61707 312
Width: 642
Flags: HW
TeX: 694 0
ItalicCorrection: 97
HStem: 522 82<335.294 556.269> 675 20G<225.5 302 633 709>
VStem: 223 77<635.554 695>
LayerCount: 2
Fore
SplineSet
223 663 m 0
 223 675 225 694 226 695 c 1
 302 695 l 1
 301 688 300 682 300 678 c 0
 300 648 326 604 448 604 c 0
 625 604 632 693 634 695 c 1
 709 695 l 1
 676 562 524 522 431 522 c 0
 315 522 223 576 223 663 c 0
EndSplineSet
EndChar

StartChar: caron.ts1
Encoding: 61708 61708 313
Width: 642
Flags: HW
TeX: 694 0
ItalicCorrection: 93
HStem: 508 203
DStem2: 368 711 293 711 0.431141 -0.902285<0 156.42> 442 573 467 508 0.671582 0.74093<0 191.569>
LayerCount: 2
Fore
SplineSet
293 711 m 1
 368 711 l 1
 442 573 l 1
 575 711 l 1
 651 711 l 1
 467 508 l 1
 390 508 l 1
 293 711 l 1
EndSplineSet
EndChar

StartChar: dblgrave.ts1
Encoding: 61710 61710 315
Width: 525
Flags: HW
TeX: 694 0
HStem: 546 149<283 331 458 506>
VStem: 235 298
LayerCount: 2
Fore
SplineSet
235 695 m 1
 331 695 l 1
 358 546 l 1
 283 546 l 1
 235 695 l 1
410 695 m 1
 506 695 l 1
 533 546 l 1
 458 546 l 1
 410 695 l 1
EndSplineSet
EndChar

StartChar: dagger
Encoding: 8224 8224 316
Width: 467
Flags: HW
TeX: 694 166
HStem: 424 96<170.525 279.756 382.932 493.869> 682 20G<369 391.5>
VStem: 321 99<593.852 669.43>
DStem2: 145 -184 241 -184 0.207912 0.978148<19.9595 552.726>
LayerCount: 2
Fore
SplineSet
145 -184 m 1
 232 227 l 2
 263 371 286 365 311 454 c 1
 276 448 232 424 198 424 c 0
 165 424 157 447 157 462 c 0
 157 490 180 520 217 520 c 0
 252 520 272 502 319 490 c 1
 320 502 321 514 321 526 c 0
 321 544 318 576 318 601 c 0
 318 636 323 658 329 670 c 0
 338 687 357 702 381 702 c 0
 402 702 420 689 420 666 c 0
 420 624 371 542 355 491 c 1
 389 497 436 520 469 520 c 0
 501 520 508 498 508 483 c 0
 508 454 484 424 448 424 c 0
 414 424 377 448 346 454 c 1
 343 436 343 417 343 399 c 0
 343 380 344 360 344 341 c 0
 344 293 340 281 335 255 c 2
 241 -184 l 1
 145 -184 l 1
EndSplineSet
EndChar

StartChar: daggerdbl
Encoding: 8225 8225 317
Width: 467
Flags: HW
TeX: 694 166
HStem: -175 21G<183.5 209.5> -4 96<80.4079 190.444 293.264 403.931> 436 96<174.069 285.336 387.556 497.625> 682 20G<370 393.5>
VStem: 157 101<-158.125 -70.7489> 230 98<157.345 250.398> 250 98<279.426 370.075> 323 98<597.332 670.245>
LayerCount: 2
Fore
SplineSet
66 34 m 0
 66 56 85 92 127 92 c 0
 162 92 182 74 228 63 c 1
 229 72 230 80 230 89 c 0
 230 116 226 144 226 171 c 0
 226 251 263 263 288 263 c 0
 312 263 328 249 328 227 c 0xf4
 328 186 281 115 264 63 c 1
 311 72 340 92 377 92 c 0
 409 92 418 70 418 55 c 0
 418 47 414 2 359 -4 c 1
 312 0 298 17 256 26 c 1
 255 -4 l 2
 255 -30 258 -56 258 -82 c 0
 258 -161 223 -175 196 -175 c 0
 171 -175 157 -159 157 -137 c 0xf8
 157 -100 201 -30 221 26 c 1
 181 17 149 0 105 -4 c 1
 98 -3 66 -1 66 34 c 0
160 473 m 0
 160 483 164 526 219 532 c 1
 269 528 280 510 322 502 c 1
 323 512 323 522 323 532 c 0
 323 540 323 547 320 610 c 1
 320 632 322 655 330 671 c 0
 339 687 358 702 382 702 c 0
 405 702 421 689 421 665 c 0xf1
 421 627 374 555 357 502 c 1
 397 511 429 528 473 532 c 1
 488 530 511 525 511 494 c 0
 511 472 493 435 451 435 c 0
 416 435 396 454 350 465 c 1
 349 456 348 447 348 438 c 0xf2
 348 411 351 384 351 357 c 0
 351 303 338 288 328 279 c 0xf4
 318 270 303 264 289 264 c 0
 266 264 250 278 250 302 c 0
 250 341 297 412 314 465 c 1
 262 454 237 436 201 436 c 2xf2
 199 436 l 2
 176 436 160 450 160 473 c 0
EndSplineSet
EndChar

StartChar: uni2016
Encoding: 8214 8214 318
Width: 525
Flags: HW
TeX: 750 222
DStem2: 128.86 -221 178.923 -221 0.207912 0.978148<26.0057 977.022> 250.86 -221 300.923 -221 0.207912 0.978148<26.0057 977.022>
LayerCount: 2
Fore
SplineSet
135 -196 m 0
 135 -190 137 -184 138 -178 c 2
 329 720 l 2
 330 724 333 749 355 749 c 0
 367 749 379 740 379 725 c 0
 379 718 379 723 347 571 c 2
 187 -183 l 2
 185 -193 184 -211 168 -219 c 1
 161 -221 160 -221 159 -221 c 0
 146 -221 135 -211 135 -196 c 0
257 -196 m 0
 257 -190 259 -184 260 -178 c 2
 451 720 l 2
 452 724 455 749 477 749 c 0
 489 749 501 740 501 725 c 0
 501 718 501 723 469 571 c 2
 309 -183 l 2
 307 -193 306 -211 290 -219 c 1
 283 -221 283 -221 282 -221 c 2
 281 -221 l 2
 268 -221 257 -211 257 -196 c 0
EndSplineSet
EndChar

StartChar: perthousand
Encoding: 8240 8240 319
Width: 1239
Flags: HW
TeX: 750 55
ItalicCorrection: 29
HStem: -55 75<648.629 724.745 998.629 1074.74> 271 76<694.459 767.759 1044.46 1117.76> 347 76<260.399 335.905> 674 76<306.151 380.119>
VStem: 168 86<429.898 588.909> 391 88<498.494 665.474> 556 86<27.2362 187.097> 779 88<96.4688 263.274> 906 86<27.2362 187.097> 1129 88<96.4688 263.274>
DStem2: 811 734 841 693 0.642515 0.766273<-992.586 24.9538>
LayerCount: 2
Fore
SplineSet
906 90 m 0
 906 221 1007 347 1105 347 c 0
 1172 347 1217 286 1217 202 c 0
 1217 72 1118 -55 1020 -55 c 0
 952 -55 906 6 906 90 c 0
992 71 m 0
 992 30 1019 20 1035 20 c 0
 1085 20 1129 122 1129 196 c 0
 1129 235 1116 271 1087 271 c 0
 1064 271 1041 252 1029 230 c 0
 1014 202 992 111 992 71 c 0
EndSplineSet
Refer: 45 37 S 1 0 0 1 0 0 2
EndChar

StartChar: bullet
Encoding: 8226 8226 320
Width: 525
Flags: HW
TeX: 470 -59
HStem: 60 408<263.141 372.859>
VStem: 110 416<211.031 316.547>
LayerCount: 2
Fore
SplineSet
110 227 m 0
 110 350 227 468 356 468 c 0
 452 468 526 401 526 301 c 0
 526 177 409 60 280 60 c 0
 183 60 110 128 110 227 c 0
EndSplineSet
EndChar

StartChar: uni2103
Encoding: 8451 8451 321
Width: 904
Flags: HW
TeX: 694 0
ItalicCorrection: 118
HStem: -17 80<568.805 783.788> 461 50<176.477 274.653> 632 79<685.839 884.364> 645 49<202.651 300.873>
VStem: 120 49<518.669 610.316> 308 49<545.817 637.795> 362 106<174.32 390.376>
LayerCount: 2
Fore
SplineSet
120 559 m 0
 120 629 186 694 258 694 c 0
 318 694 357 652 357 597 c 0
 357 528 292 461 219 461 c 0
 165 461 120 500 120 559 c 0
169 559 m 0
 169 530 190 511 220 511 c 0
 266 511 308 556 308 597 c 0
 308 626 288 645 258 645 c 0xde
 211 645 169 600 169 559 c 0
362 267 m 0
 362 485 559 711 797 711 c 0
 890 711 947 690 982 677 c 1
 942 573 l 1
 922 588 877 632 779 632 c 0
 616 632 468 455 468 277 c 0
 468 164 532 63 658 63 c 0
 762 63 796 85 870 126 c 1
 859 39 l 1
 771 -6 728 -17 641 -17 c 0xee
 465 -17 362 110 362 267 c 0
EndSplineSet
EndChar

StartChar: dollaroldstyle
Encoding: 63268 63268 322
Width: 642
Flags: HW
TeX: 750 55
ItalicCorrection: 110
HStem: -8 80<313 342> 0 82<172.062 222> 615 80<567 614.039> 623 80<446 476>
VStem: 163 93<463.338 556.327> 536 93<151.999 255.301>
DStem2: 210 -55 285 -55 0.207912 0.978148<15.5934 56.2931 145.64 391.977 506.014 674.685 789.525 822.962> 332 -55 408 -55 0.207912 0.978148<15.8013 49.0302 165.056 358.45 475.422 693.123 782.47 823.17>
LayerCount: 2
Fore
SplineSet
60 61 m 1
 93 148 l 1
 131 123 169 98 239 82 c 1x4c
 292 332 l 1
 238 348 163 394 163 479 c 0
 163 573 257 660 368 689 c 1
 381 750 l 1
 457 750 l 1
 446 702 l 1
 455 703 464 703 473 703 c 0x5c
 480 703 487 702 494 702 c 1
 504 750 l 1
 579 750 l 1
 567 695 l 1
 617 686 650 674 703 647 c 1
 671 564 l 1
 635 584 608 601 550 615 c 1
 503 390 l 1
 550 375 629 328 629 234 c 0
 629 127 527 38 421 7 c 1
 408 -55 l 1
 332 -55 l 1
 342 -7 l 1
 295 -8 l 1xac
 285 -55 l 1
 210 -55 l 1
 222 0 l 1
 155 12 104 35 60 61 c 1
256 509 m 0
 256 474 285 453 315 440 c 1
 350 605 l 1
 291 583 256 548 256 509 c 0
313 72 m 1x8c
 360 72 l 1
 408 302 l 1
 364 313 l 1
 313 72 l 1x8c
387 420 m 1
 431 410 l 1
 476 623 l 1x1c
 430 622 l 1
 387 420 l 1
439 91 m 1
 448 95 536 131 536 203 c 0x0c
 536 244 505 267 480 280 c 1
 439 91 l 1
EndSplineSet
EndChar

StartChar: centoldstyle
Encoding: 63394 63394 323
Width: 525
Flags: HW
TeX: 555 83
ItalicCorrection: 88
HStem: -8 78<238.634 430.509> 407 78<292.738 401>
VStem: 80 96<133.707 284.964>
DStem2: 36 -65 95 -101 0.611624 0.791149<7.60444 158.034 250.226 595.874 722.674 807.686>
LayerCount: 2
Fore
SplineSet
36 -65 m 1
 130 56 l 1
 95 94 80 142 80 188 c 0
 80 323 210 485 401 485 c 0
 407 485 436 485 459 482 c 1
 530 574 l 1
 531 574 l 1
 588 537 l 1
 532 465 l 1
 550 459 566 450 583 442 c 1
 551 360 l 1
 527 374 504 387 478 395 c 1
 238 84 l 1
 265 74 281 70 309 70 c 0
 403 70 463 99 515 125 c 1
 504 42 l 1
 444 15 378 -8 293 -8 c 0
 240 -8 214 3 184 15 c 1
 95 -101 l 1
 36 -65 l 1
176 192 m 0
 176 162 184 144 189 133 c 1
 401 406 l 1
 395 406 388 407 382 407 c 0
 220 407 176 259 176 192 c 0
EndSplineSet
EndChar

StartChar: colonmonetary
Encoding: 8353 8353 325
Width: 671
Flags: HW
TeX: 750 55
ItalicCorrection: 118
HStem: -15 81<333.39 367 459 555.054> 630 80<596 655.484>
VStem: 129 106<170.503 393.493>
DStem2: 358 -55 434 -55 0.207912 0.978148<15.8013 40.9971 137.399 698.43 797.766 822.962>
LayerCount: 2
Fore
SplineSet
129 267 m 0
 129 479 313 685 521 709 c 1
 529 750 l 1
 605 750 l 1
 596 710 l 1
 653 707 696 697 749 677 c 1
 709 573 l 1
 675 599 644 623 579 630 c 1
 459 64 l 1
 531 69 564 84 637 126 c 1
 626 39 l 1
 567 9 516 -14 442 -16 c 1
 434 -55 l 1
 358 -55 l 1
 367 -15 l 1
 219 4 129 119 129 267 c 0
235 277 m 0
 235 168 290 87 384 66 c 1
 504 628 l 1
 351 598 235 432 235 277 c 0
EndSplineSet
EndChar

StartChar: uni20A9
Encoding: 8361 8361 326
Width: 967
Flags: HW
TeX: 694 0
ItalicCorrection: 162
HStem: -5 21G<212.556 327 639.444 758> 175 75<25.0332 195 296 327 445 622 720 752 876 1029.52> 369 75<66.4277 180 286 419 540 610 709 846 973 1071.26> 675 20G<161 264.434 571.12 686.434 998.04 1098>
VStem: 201 95<130 175> 606 97<444 541.611> 627 93<96 175>
DStem2: 263 695 161 695 0.0754982 -0.997146<0 244.017 326.806 438.596> 362 250 445 250 0.441559 0.897232<36.6494 131.939 252.661 418.857> 752 175 838 175 0.447214 0.894427<-43.8269 0 122.537 215.557 339.435 579.589>
LayerCount: 2
Fore
SplineSet
22 212 m 0
 22 227 28 250 71 250 c 2
 195 250 l 1
 186 369 l 1
 121 369 l 2
 117 369 112 368 108 368 c 0
 68 368 63 395 63 406 c 0
 63 416 67 444 108 444 c 2
 180 444 l 1
 161 695 l 1
 263 695 l 1
 281 444 l 1
 457 444 l 1
 581 695 l 1
 685 695 l 1
 703 444 l 1
 883 444 l 1
 1008 695 l 1
 1098 695 l 1
 973 444 l 1
 1029 444 l 2
 1070 444 1075 418 1075 407 c 0
 1075 397 1070 369 1029 369 c 2
 935 369 l 1
 876 250 l 1
 987 250 l 2
 1029 250 1033 222 1033 213 c 0
 1033 200 1028 175 986 175 c 2
 838 175 l 1
 748 -5 l 1
 641 -5 l 1
 627 175 l 1xfa
 407 175 l 1
 317 -5 l 1
 214 -5 l 1
 201 175 l 1
 81 175 l 2
 77 175 72 174 67 174 c 0
 27 174 22 201 22 212 c 0
286 369 m 1
 293 250 l 1
 362 250 l 1
 419 369 l 1
 286 369 l 1
295 96 m 1
 304 123 316 149 327 175 c 1
 296 175 l 1
 297 130 l 1
 295 96 l 1
445 250 m 1
 622 250 l 1
 614 369 l 1
 503 369 l 1
 445 250 l 1
540 444 m 1
 610 444 l 1
 609 467 606 538 606 561 c 0xfc
 606 573 606 585 607 598 c 1
 596 566 589 551 540 444 c 1
709 369 m 1
 716 250 l 1
 788 250 l 1
 846 369 l 1
 709 369 l 1
720 96 m 1xfa
 734 135 l 1
 752 175 l 1
 720 175 l 1
 721 131 l 1
 720 96 l 1xfa
EndSplineSet
EndChar

StartChar: uni20A6
Encoding: 8358 8358 327
Width: 737
Flags: HW
TeX: 694 0
ItalicCorrection: 95
HStem: -0 21G<98 195.343 487.171 643.229> 175 75<-15.8721 135 245 420 542 583 692 842.52> 369 75<25.3761 176 286 365 486 624 734 884.256> 675 20G<240.777 397.737 688.777 787>
DStem2: 98 -0 191 -0 0.207912 0.978148<19.3358 178.869 275.1 377.154 473.385 633.045> 392 695 320 600 0.276621 -0.960979<71.3763 233.737 339.282 435.381 541.202 625.404> 545.02 -0 638.803 -0 0.207912 0.978148<96.1 179.072 275.096 377.357 473.589 710.579>
LayerCount: 2
Fore
SplineSet
-19 212 m 0
 -19 225 -14 250 28 250 c 2
 151 250 l 1
 176 369 l 1
 68 369 l 2
 27 369 22 395 22 406 c 0
 22 419 27 444 69 444 c 2
 192 444 l 1
 245 695 l 1
 392 695 l 1
 464 444 l 1
 640 444 l 1
 693 695 l 1
 787 695 l 1
 734 444 l 1
 842 444 l 2
 883 444 888 417 888 407 c 0
 888 396 883 369 841 369 c 2
 717 369 l 1
 692 250 l 1
 800 250 l 2
 842 250 846 222 846 213 c 0
 846 202 842 175 800 175 c 2
 676 175 l 1
 639 -0 l 1
 493 -0 l 1
 442 175 l 1
 229 175 l 1
 191 -0 l 1
 98 -0 l 1
 135 175 l 1
 27 175 l 2
 -15 175 -19 202 -19 212 c 0
245 250 m 1
 420 250 l 1
 386 369 l 1
 270 369 l 1
 245 250 l 1
286 444 m 1
 365 444 l 1
 320 600 l 1
 286 444 l 1
486 369 m 1
 520 250 l 1
 599 250 l 1
 624 369 l 1
 486 369 l 1
542 175 m 1
 565 94 l 1
 583 175 l 1
 542 175 l 1
EndSplineSet
EndChar

StartChar: uni20B2
Encoding: 8370 8370 328
Width: 817
Flags: HW
TeX: 750 55
ItalicCorrection: 118
HStem: -15 80<369.832 425 517 662.819> 249 79<573 702> 630 80<482.771 561 655 747.154>
VStem: 130 106<193.52 393.141>
DStem2: 416 -55 491 -55 0.207912 0.978148<15.5934 40.9971 137.399 326.465 407.273 700.178 798.952 822.962> 637.817 -55 733.508 -55 0.207912 0.978148<145.172 310.701>
LayerCount: 2
Fore
SplineSet
130 279 m 0
 130 503 360 696 579 710 c 1
 587 750 l 1
 663 750 l 1
 655 711 l 1
 743 705 789 698 878 663 c 1
 838 559 l 1
 778 598 743 621 637 631 c 1
 573 328 l 1
 815 328 l 1
 752 32 l 1
 670 5 586 -13 500 -16 c 1
 491 -55 l 1
 416 -55 l 1
 425 -15 l 1
 277 -5 130 100 130 279 c 0
236 290 m 0
 236 172 315 83 442 65 c 1
 561 630 l 1
 366 603 236 439 236 290 c 0
517 64 m 1
 578 68 608 73 667 86 c 1
 668 87 l 1
 702 249 l 1
 556 249 l 1
 517 64 l 1
EndSplineSet
EndChar

StartChar: peso
Encoding: 61711 61711 329
Width: 673
Flags: HW
TeX: 694 0
ItalicCorrection: 81
HStem: 0 21G<96 205.229> 175 75<-15.5723 134 254 484.825> 270 77<272 532.871> 615 80<330 575.837>
VStem: 622 98<435.001 574.394>
DStem2: 96 0 201 0 0.207912 0.978148<21.8307 179.076 277.387 297.782 376.01 650.212>
LayerCount: 2
Fore
SplineSet
-19 212 m 0
 -19 224 -14 250 28 250 c 2
 150 250 l 1
 244 694 l 1
 244 695 l 1
 500 695 l 2
 684 695 720 581 720 519 c 0
 720 402 597 270 416 270 c 2
 258 270 l 1
 254 250 l 1
 428 250 l 2
 448 250 459 251 470 244 c 0
 481 237 489 225 489 212 c 0
 489 202 484 175 443 175 c 2
 238 175 l 1
 201 0 l 1
 96 0 l 1
 134 175 l 1
 26 175 l 2
 -15 175 -19 202 -19 212 c 0
272 347 m 1
 406 347 l 2
 484 347 572 359 609 450 c 1
 617 474 622 489 622 514 c 0
 622 554 604 579 576 595 c 0
 541 614 499 615 460 615 c 2
 330 615 l 1
 272 347 l 1
EndSplineSet
EndChar

StartChar: lira
Encoding: 8356 8356 330
Width: 782
Flags: HW
TeX: 694 0
HStem: -8 147<122.24 240.191> -8 75<419.617 559.568> 175 75<186.164 280 393 515.572> 340 75<221.428 315 428 551.256> 477 21G<656.5 683> 664 76<512.227 619.492>
VStem: 574 97<88.4421 139> 635 94<493.249 650.495>
DStem2: 241.16 -8 338.16 -8 0.207912 0.978148<283.931 355.747 452.603 648.125>
LayerCount: 2
Fore
SplineSet
69 47 m 0
 69 102 138 139 223 139 c 0
 238 139 254 137 269 135 c 1
 280 175 l 1
 263 175 246 175 229 175 c 0
 187 175 183 202 183 213 c 0
 183 222 186 250 228 250 c 2
 296 250 l 1
 315 340 l 1xbe
 264 340 l 2
 222 340 218 367 218 377 c 0
 218 387 222 416 263 416 c 0
 266 416 270 415 273 415 c 2
 331 415 l 1
 332 416 l 1
 351 506 356 537 367 565 c 0
 407 667 503 740 594 740 c 0
 683 740 729 669 729 579 c 0
 729 490 697 480 669 477 c 1
 644 481 635 491 635 513 c 2
 635 521 l 1
 627 521 l 1
 631 542 634 563 634 585 c 0
 634 625 623 664 577 664 c 0
 544 664 514 649 495 628 c 0
 461 591 457 552 428 415 c 1
 496 415 l 2
 500 415 504 416 509 416 c 0
 550 416 555 387 555 377 c 0
 555 367 551 340 509 340 c 2
 412 340 l 1
 393 250 l 1
 474 250 l 2
 515 250 519 222 519 213 c 0
 519 203 515 175 474 175 c 2
 377 175 l 1
 376 174 l 1
 371 152 363 132 352 113 c 1
 413 91 467 67 527 67 c 0x7d
 553 67 562 82 574 139 c 1
 671 139 l 1xbe
 649 49 559 -8 471 -8 c 0x7e
 388 -8 304 38 288 38 c 0
 274 38 228 -8 146 -8 c 0
 100 -8 69 14 69 47 c 0
EndSplineSet
EndChar

StartChar: uni211E
Encoding: 8478 8478 331
Width: 671
Flags: HW
TeX: 694 0
ItalicCorrection: 81
HStem: 0 21G<81 187.272 528 641> 310 75<265 411> 615 80<314 576.635>
VStem: 622 99<456.083 577.292>
DStem2: 81 0 183 0 0.207912 0.978148<21.207 338.155 414.843 650.004> 296 111 334 50 0.814433 0.580258<0 169.228 281.902 478.097> 506 322 411 310 0.386648 -0.922227<0 51.9999 147.024 308.557>
LayerCount: 2
Fore
SplineSet
81 0 m 1
 228 694 l 1
 229 695 l 1
 477 695 l 2
 667 695 721 596 721 530 c 0
 721 432 615 347 506 322 c 1
 526 274 l 1
 689 390 l 1
 727 330 l 1
 555 206 l 1
 641 0 l 1
 536 0 l 1
 476 150 l 1
 334 50 l 1
 296 111 l 1
 448 218 l 1
 411 310 l 1
 249 310 l 1
 249 309 l 1
 183 0 l 1
 81 0 l 1
265 385 m 1
 396 385 l 2
 551 385 581 426 607 466 c 1
 616 483 622 503 622 523 c 0
 622 579 578 603 527 611 c 0
 503 615 479 615 455 615 c 2
 314 615 l 1
 265 385 l 1
EndSplineSet
EndChar

StartChar: uni203D
Encoding: 8253 8253 332
Width: 496
Flags: HW
TeX: 694 0
ItalicCorrection: 118
HStem: 0 117<213 305> 675 20G<336 453>
VStem: 188 142 448 97<467.224 551.751>
DStem2: 186.001 0 294.001 0 0.207912 0.978148<234.079 371.704 480.685 568.653 702.364 710.999>
LayerCount: 2
Fore
SplineSet
183 590 m 1
 239 615 278 625 324 631 c 1
 336 694 l 1
 336 695 l 1
 453 695 l 1
 438 628 l 1
 460 624 545 607 545 523 c 0
 545 476 517 430 478 405 c 0
 354 325 363 307 355 278 c 1
 338 207 l 1
 230 207 l 1
 247 298 260 301 266 325 c 1
 310 555 l 1
 255 544 228 530 195 511 c 1
 183 590 l 1
395 447 m 1
 411 456 448 470 448 518 c 0
 448 547 427 552 420 554 c 1
 395 447 l 1
EndSplineSet
Refer: 54 46 S 1 0 0 1 101 0 2
EndChar

StartChar: uni2E18
Encoding: 11800 11800 333
Width: 496
Flags: HW
TeX: 523 166
HStem: -167 21G<153 274.582> 410 117<301 393>
VStem: 61 96<-25.3037 61.7557> 276 142
DStem2: 156.455 -167 267.392 -167 0.207912 0.978148<23.8153 65.0019 170.282 263.348 385.186 497.617>
LayerCount: 2
Fore
SplineSet
61 0 m 0
 61 48 87 96 121 122 c 0
 237 211 238 250 254 321 c 1
 362 321 l 1
 298 -23 l 1
 345 -12 368 -5 411 16 c 1
 424 -63 l 1
 383 -79 340 -92 283 -100 c 1
 271 -167 l 1
 153 -167 l 1
 168 -103 l 1
 105 -95 61 -62 61 0 c 0
157 2 m 0
 157 -18 166 -24 186 -28 c 1
 214 90 l 1
 198 79 157 60 157 2 c 0
EndSplineSet
Refer: 54 46 S 1 0 0 1 189 410 2
EndChar

StartChar: dong
Encoding: 8363 8363 334
Width: 517
Flags: HW
TeX: 750 0
ItalicCorrection: 112
HStem: -49 49<54.2315 566.83> 47 76<166.639 298.673> 460 76<271.414 400.032> 601 76<310 472 583 665>
VStem: 77 95<154.755 336.876>
DStem2: 331.894 -49 427.894 -49 0.207912 0.978148<126.283 167.715 200.352 496.858 539.208 664.926 762.343 817.323>
LayerCount: 2
Fore
SplineSet
54 -25 m 0
 54 -13 63 -3 74 -1 c 0
 80 0 85 0 91 0 c 2
 537 0 l 2
 558 0 567 -12 567 -24 c 0
 567 -34 563 -49 535 -49 c 2
 86 -49 l 2
 58 -49 54 -35 54 -25 c 0
77 221 m 0
 77 373 189 536 312 536 c 0
 379 536 418 507 446 478 c 1
 472 601 l 1
 294 601 l 1
 310 677 l 1
 488 677 l 1
 504 750 l 1
 598 750 l 1
 583 677 l 1
 681 677 l 1
 665 601 l 1
 566 601 l 1
 450 55 l 1
 354 55 l 1
 367 115 l 1
 327 79 271 47 207 47 c 0
 129 47 77 120 77 221 c 0
172 223 m 0
 172 143 229 123 274 123 c 0
 313 123 347 143 371 168 c 0
 382 180 375 167 420 368 c 0
 424 386 429 404 432 423 c 1
 411 449 391 460 357 460 c 0
 317 460 265 447 229 405 c 0
 182 350 172 245 172 223 c 0
EndSplineSet
EndChar

StartChar: trademark
Encoding: 8482 8482 335
Width: 700
Flags: HW
TeX: 750 0
ItalicCorrection: 524
HStem: 483 21G<533.5 571.5> 675 75<76.2205 189 286 416.18>
VStem: 364 89<364.369 459.531>
DStem2: 121.62 358 218.62 358 0.207912 0.978148<40.4652 324.082>
LayerCount: 2
Fore
SplineSet
71 712 m 0
 71 728 85 740 93 744 c 0
 105 751 119 750 133 750 c 2
 361 750 l 2
 412 750 420 727 420 712 c 0
 420 697 410 674 364 674 c 0
 361 674 356 675 353 675 c 2
 286 675 l 1
 229 401 l 2
 228 397 224 358 179 358 c 0
 154 358 131 374 131 397 c 0
 131 405 133 413 135 420 c 2
 189 675 l 1
 130 675 l 2
 81 675 71 697 71 712 c 0
364 396 m 0
 364 401 365 405 366 410 c 2
 433 727 l 1
 433 727 438 767 483 767 c 0
 528 767 528 744 572 616 c 1
 685 763 682 767 716 767 c 0
 743 767 763 750 763 729 c 0
 763 725 763 720 762 716 c 2
 694 398 l 1
 694 398 690 358 645 358 c 0
 622 358 598 372 598 395 c 0
 598 409 605 438 627 540 c 1
 599 504 588 483 555 483 c 0
 512 483 507 516 494 553 c 1
 461 396 459 386 453 377 c 0
 444 364 428 358 412 358 c 0
 390 358 364 371 364 396 c 0
EndSplineSet
EndChar

StartChar: uni2031
Encoding: 8241 8241 336
Width: 1669
Flags: HW
TeX: 750 55
ItalicCorrection: 29
HStem: -55 75<648.629 724.745 1038.63 1114.74 1428.63 1504.74> 271 76<694.459 767.759 1084.46 1157.76 1473.44 1547.27> 347 76<260.399 335.905> 674 76<306.151 380.119>
VStem: 168 86<429.898 588.909> 391 88<498.494 665.474> 556 86<27.2362 187.097> 779 88<96.4688 263.274> 946 86<27.2362 187.097> 1169 88<96.4688 263.274> 1336 86<27.2362 191.011> 1559 88<96.4688 263.274>
DStem2: 811 734 841 693 0.642515 0.766273<-992.586 24.9538>
LayerCount: 2
Fore
SplineSet
946 90 m 0
 946 221 1047 347 1145 347 c 0
 1212 347 1257 286 1257 202 c 0
 1257 72 1158 -55 1060 -55 c 0
 992 -55 946 6 946 90 c 0
1032 71 m 0
 1032 30 1059 20 1075 20 c 0
 1125 20 1169 122 1169 196 c 0
 1169 235 1156 271 1127 271 c 0
 1104 271 1081 252 1069 230 c 0
 1054 202 1032 111 1032 71 c 0
1336 90 m 0
 1336 220 1435 347 1534 347 c 0
 1601 347 1647 286 1647 202 c 0
 1647 72 1548 -55 1450 -55 c 0
 1382 -55 1336 6 1336 90 c 0
1422 71 m 0
 1422 30 1449 20 1465 20 c 0
 1515 20 1559 122 1559 196 c 0
 1559 235 1546 271 1517 271 c 0
 1494 271 1470 252 1458 230 c 0
 1443 202 1422 111 1422 71 c 0
EndSplineSet
Refer: 45 37 S 1 0 0 1 0 0 2
EndChar

StartChar: uni2029
Encoding: 8233 8233 337
Width: 496
Flags: HW
TeX: 694 166
HStem: -166 21G<318 335.5> 645 50<516 606.693>
DStem2: 293.797 -166 344.348 -166 0.207912 0.978148<23.2124 415.05>
LayerCount: 2
Fore
SplineSet
153 430 m 0
 153 517 228 695 401 695 c 2
 575 695 l 2
 604 695 607 679 607 671 c 0
 607 661 602 652 593 648 c 0
 585 644 575 645 566 645 c 2
 516 645 l 1
 352 -130 l 2
 350 -140 347 -166 324 -166 c 0
 312 -166 301 -156 300 -144 c 0
 299 -135 302 -126 304 -118 c 2
 380 240 l 1
 284 246 153 302 153 430 c 0
EndSplineSet
EndChar

StartChar: uni0E3F
Encoding: 3647 3647 338
Width: 687
Flags: HW
TeX: 750 55
ItalicCorrection: 81
HStem: 0 80<199 261 353 469.246> 324 75<267 330 422 498.123> 615 80<313 392 484 552.48>
VStem: 572 99<157.61 265.149> 613 98<475.805 570.017>
DStem2: 70.3094 -55 170.305 -55 0.207912 0.978148<158.806 408.494 484.973 705.817> 249 -55 325 -55 0.207912 0.978148<15.8013 56.2931 153.673 387.559 481.026 685.09 782.47 822.962>
LayerCount: 2
Fore
SplineSet
82 0 m 1
 229 694 l 1
 230 695 l 1
 408 695 l 1
 420 750 l 1
 496 750 l 1
 484 695 l 1
 612 695 711 633 711 541 c 0xe8
 711 470 643 397 508 364 c 1
 597 347 671 296 671 218 c 0xf0
 671 112 536 5 376 0 c 1
 336 0 l 1
 325 -55 l 1
 249 -55 l 1
 261 0 l 1
 82 0 l 1
199 80 m 1
 278 80 l 1
 330 324 l 1
 252 324 l 1
 199 80 l 1
267 399 m 1
 346 399 l 1
 392 615 l 1
 313 615 l 1
 267 399 l 1
353 80 m 1
 480 81 572 143 572 211 c 0xf0
 572 233 554 314 405 323 c 1
 353 80 l 1
422 400 m 1xe8
 567 416 613 489 613 526 c 1
 607 586 531 608 467 614 c 1
 422 400 l 1xe8
EndSplineSet
EndChar

StartChar: uni2116
Encoding: 8470 8470 339
Width: 825
Flags: HW
TeX: 694 0
ItalicCorrection: 95
HStem: 0 21G<83 181.221 321.5 478.259> 165 75<598 804> 289 78<706.847 773.331> 456 76<718.589 781.856> 675 20G<226.741 384.5 528 622>
VStem: 300 105<248.658 441.247> 630 76<368.106 449.617> 783 76<371.01 455.536>
DStem2: 83 0 177 0 0.207912 0.978148<19.5437 629.695> 380.744 0 474 0 0.207912 0.978148<102.234 710.429>
LayerCount: 2
Fore
SplineSet
83 0 m 1
 231 695 l 1
 377 695 l 1
 392 489 405 281 405 178 c 0
 405 147 404 131 402 100 c 1
 528 694 l 1
 528 695 l 1
 622 695 l 1
 474 0 l 1
 328 0 l 1
 315 171 300 389 300 517 c 0
 300 557 301 565 303 597 c 1
 177 0 l 1
 83 0 l 1
582 165 m 1
 598 240 l 1
 820 240 l 1
 804 165 l 1
 582 165 l 1
630 381 m 0
 630 456 701 532 771 532 c 0
 824 532 859 491 859 435 c 0
 859 354 787 289 720 289 c 0
 666 289 630 328 630 381 c 0
706 384 m 0
 706 366 722 368 734 367 c 1
 764 368 771 364 781 420 c 0
 782 425 783 431 783 436 c 0
 783 455 769 456 754 456 c 0
 726 455 719 451 709 402 c 0
 708 399 706 391 706 384 c 0
EndSplineSet
EndChar

StartChar: uni2052
Encoding: 8274 8274 340
Width: 525
Flags: HW
TeX: 750 0
ItalicCorrection: 130
HStem: -0 166<305.178 443.674> 584 166<238.028 375.673>
DStem2: 82 58 119 25 0.586455 0.809981<-36.8627 856.121>
LayerCount: 2
Fore
SplineSet
64 25 m 0
 64 36 75 48 82 58 c 2
 570 732 l 2
 575 739 583 749 596 749 c 0
 608 749 620 740 620 726 c 0
 620 714 610 702 606 697 c 2
 119 25 l 2
 111 14 103 1 88 1 c 0
 75 1 64 12 64 25 c 0
212 610 m 0
 212 621 217 631 235 718 c 0
 238 733 240 740 251 747 c 1
 258 749 258 750 269 750 c 2
 369 750 l 2
 387 750 402 745 402 724 c 0
 402 712 379 605 376 599 c 0
 369 588 364 584 346 584 c 2
 246 584 l 2
 231 584 212 587 212 610 c 0
281 26 m 0
 281 37 285 48 303 135 c 0
 306 150 308 156 319 163 c 1
 327 166 326 166 342 166 c 2
 436 166 l 2
 450 166 471 165 471 140 c 0
 471 128 447 21 444 15 c 0
 437 4 433 0 415 -0 c 2
 315 -0 l 2
 297 0 281 5 281 26 c 0
EndSplineSet
EndChar

StartChar: estimated
Encoding: 8494 8494 341
Width: 708
Flags: HW
TeX: 694 0
ItalicCorrection: 112
HStem: -8 75<305.542 574.591> 361 59<227 670.631> 631 76<407.796 591.559>
VStem: 95 102<182.201 357.377> 671 96<420.994 554.599>
LayerCount: 2
Fore
SplineSet
95 274 m 0
 95 492 297 707 520 707 c 2
 522 707 l 1
 634 706 767 659 767 469 c 0
 767 433 762 396 755 361 c 1
 207 361 l 1
 201 330 197 314 197 283 c 0
 197 164 272 67 403 67 c 0
 518 67 616 97 691 124 c 1
 681 43 l 1
 575 8 474 -8 385 -8 c 0
 202 -8 95 120 95 274 c 0
227 420 m 1
 669 420 l 1
 670 432 671 443 671 455 c 0
 671 596 578 631 504 631 c 0
 393 631 280 544 227 420 c 1
EndSplineSet
EndChar

StartChar: openbullet
Encoding: 9702 9702 342
Width: 525
Flags: HW
TeX: 470 -59
HStem: 60 49<208.855 362.357> 419 49<274.079 428.099>
VStem: 110 49<157.865 306.277> 477 49<222.362 370.677>
LayerCount: 2
Fore
SplineSet
110 227 m 0
 110 350 227 468 356 468 c 0
 452 468 526 401 526 301 c 0
 526 177 409 60 280 60 c 0
 183 60 110 128 110 227 c 0
159 227 m 0
 159 157 211 109 280 109 c 0
 383 109 477 206 477 302 c 0
 477 372 425 419 356 419 c 0
 255 419 159 325 159 227 c 0
EndSplineSet
EndChar

StartChar: uni2120
Encoding: 8480 8480 343
Width: 700
Flags: HW
TeX: 750 0
ItalicCorrection: 524
HStem: 375 75<23.2715 264.362> 483 21G<534.5 572.5> 544 75<162.869 277.956> 675 75<167.337 406.148>
VStem: 65 96<619.521 670.922> 279 97<459.929 543.23> 365 89<364.369 464.484>
LayerCount: 2
Fore
SplineSet
19 413 m 0
 19 423 25 451 76 451 c 0
 81 451 85 450 90 450 c 2
 208 450 l 1
 245 451 247 452 254 457 c 0
 273 470 279 527 279 529 c 2
 279 541 l 1xfc
 277 543 248 544 233 544 c 2
 194 544 l 1
 149 545 106 545 79 578 c 1
 74 586 65 595 65 622 c 0
 65 687 98 716 118 730 c 1
 150 749 187 750 223 750 c 2
 352 750 l 2
 402 750 411 725 411 712 c 0
 411 703 404 674 354 674 c 0
 348 674 343 675 337 675 c 2
 216 675 l 2
 176 675 165 673 161 620 c 1
 162 619 183 619 198 619 c 2
 245 619 l 2
 318 619 376 602 376 534 c 0
 376 506 364 461 353 440 c 0
 320 376 249 375 213 375 c 2
 75 375 l 2
 24 375 19 403 19 413 c 0
365 396 m 0
 365 401 366 405 367 410 c 2
 434 727 l 1
 434 727 438 767 483 767 c 0
 528 767 529 744 573 616 c 1
 686 763 683 767 717 767 c 0
 744 767 764 750 764 729 c 0
 764 725 764 720 763 716 c 2
 695 398 l 1
 695 398 691 358 646 358 c 0xfa
 623 358 598 372 598 395 c 0
 598 409 606 438 628 540 c 1
 600 504 589 483 556 483 c 0
 513 483 507 516 494 553 c 1
 461 396 460 386 454 377 c 0
 445 364 429 358 413 358 c 0
 391 358 365 371 365 396 c 0
EndSplineSet
EndChar

StartChar: uni2045
Encoding: 8261 8261 344
Width: 379
Flags: HW
TeX: 750 222
ItalicCorrection: 35
HStem: -297 75<160.162 266> 675 75<309.492 472>
VStem: 41 97<-201.508 -24.6823> 153 97<342.491 504.869>
LayerCount: 2
Fore
SplineSet
41 -142 m 0
 41 -119 41 -125 84 77 c 0
 90 107 102 246 299 264 c 1
 219 267 153 313 153 387 c 0
 153 409 159 433 198 615 c 0
 204 641 208 704 307 733 c 0
 360 748 423 750 488 750 c 1
 472 675 l 1
 397 675 l 2
 303 675 303 653 295 615 c 0
 253 417 250 405 250 395 c 0
 250 331 321 307 371 303 c 2
 393 301 l 1
 376 226 l 1
 300 226 229 196 200 144 c 0
 184 115 138 -124 138 -139 c 0
 138 -175 153 -222 214 -222 c 2
 281 -222 l 1
 266 -297 l 1
 134 -296 41 -235 41 -142 c 0
EndSplineSet
EndChar

StartChar: uni2046
Encoding: 8262 8262 345
Width: 379
Flags: HW
TeX: 750 222
ItalicCorrection: 138
HStem: -222 75<18 180.805> 675 75<209 344.417>
VStem: 240 97<24.0598 185.503> 350 98<542.968 667.972>
LayerCount: 2
Fore
SplineSet
2 -222 m 1
 18 -147 l 1
 93 -147 l 2
 185 -147 186 -129 195 -87 c 0
 238 117 240 121 240 133 c 0
 240 190 181 226 97 226 c 1
 113 302 l 1
 190 302 263 332 292 386 c 0
 308 416 350 643 350 644 c 0
 350 668 320 675 266 675 c 2
 193 675 l 1
 209 750 l 1
 301 750 448 752 448 659 c 0
 448 645 401 409 387 380 c 0
 338 277 220 267 191 264 c 1
 269 261 337 215 337 141 c 0
 337 124 336 120 292 -87 c 0
 276 -160 261 -221 2 -222 c 1
EndSplineSet
EndChar

StartChar: cent
Encoding: 162 162 346
Width: 525
Flags: HW
TeX: 555 83
ItalicCorrection: 88
HStem: -7 78<226.497 252 345 435.734> 406 78<432 507.682>
VStem: 80 97<119.447 286.789>
DStem2: 236 -83 312 -83 0.207912 0.978148<15.8013 79.6221 173.297 497.003 595.36 656.247>
LayerCount: 2
Fore
SplineSet
80 188 m 0
 80 321 200 459 356 482 c 1
 372 559 l 1
 373 560 l 1
 448 560 l 1
 432 484 l 1
 493 483 528 469 584 442 c 1
 552 360 l 1
 514 382 485 402 415 406 c 1
 345 71 l 1
 419 77 463 100 515 125 c 1
 505 42 l 1
 447 16 400 -1 328 -7 c 1
 312 -83 l 1
 236 -83 l 1
 252 -5 l 1
 160 10 80 76 80 188 c 0
177 192 m 0
 177 125 215 85 270 74 c 1
 340 403 l 1
 217 379 177 261 177 192 c 0
EndSplineSet
EndChar

StartChar: currency
Encoding: 164 164 347
Width: 803
Flags: HW
TeX: 611 0
ItalicCorrection: 100
HStem: -8 49<306.759 512.835> 566 49<417.133 626.163>
VStem: 148 49<147.662 349.605> 735 49<257.732 457.565>
DStem2: 261 604 272 510 0.618233 -0.785995<-68.599 81.2113 644.647 789.947>
LayerCount: 2
Fore
SplineSet
48 -25 m 1
 47 -6 46 -10 186 105 c 1
 150 165 148 216 148 244 c 0
 148 350 206 451 272 510 c 1
 189 616 184 616 186 633 c 1
 191 648 200 653 210 653 c 0
 222 653 224 651 261 604 c 2
 310 541 l 1
 400 605 478 615 527 615 c 0
 593 615 663 594 714 541 c 1
 715 541 l 1
 841 645 846 652 860 652 c 0
 874 652 884 640 884 628 c 1
 880 610 888 619 745 503 c 1
 768 462 784 423 784 363 c 0
 784 257 725 157 659 98 c 1
 729 9 745 -7 745 -21 c 0
 745 -35 733 -45 721 -45 c 0
 709 -45 707 -43 670 4 c 0
 654 25 637 45 622 66 c 1
 532 2 454 -8 405 -8 c 0
 339 -8 268 13 217 66 c 1
 216 66 l 1
 78 -49 88 -43 70 -45 c 1
 60 -43 53 -42 48 -25 c 1
197 244 m 0
 197 122 286 41 404 41 c 0
 576 41 735 200 735 363 c 0
 735 488 642 566 527 566 c 0
 356 566 197 408 197 244 c 0
EndSplineSet
EndChar

StartChar: yen
Encoding: 165 165 348
Width: 675
Flags: HW
TeX: 694 0
ItalicCorrection: 173
HStem: 0 21G<285 392.229> 175 75<13.9189 323 441 750.196> 387 76<59.8461 258 417 434 612 795.454> 675 20G<150 283.31 689.241 819>
DStem2: 274 695 150 695 0.42203 -0.906582<0 203.575> 285 0 388 0 0.207912 0.978148<21.4149 179.076> 422 374 545 387 0.664665 0.747142<0 17.6888 192.782 429.262>
LayerCount: 2
Fore
SplineSet
10 212 m 0
 10 225 18 244 39 249 c 0
 47 251 55 250 63 250 c 2
 339 250 l 1
 341 259 342 268 343 278 c 1
 329 317 310 350 294 387 c 1
 105 387 l 2
 99 387 92 387 86 388 c 0
 66 392 56 409 56 425 c 0
 56 460 86 463 102 463 c 2
 258 463 l 1
 150 695 l 1
 274 695 l 1
 382 463 l 1
 501 463 l 1
 707 695 l 1
 819 695 l 1
 612 463 l 1
 751 463 l 2
 792 463 799 440 799 425 c 0
 799 395 776 387 749 387 c 2
 545 387 l 1
 429 257 451 287 441 250 c 1
 705 250 l 2
 713 250 720 250 728 248 c 0
 748 241 754 223 754 212 c 0
 754 193 740 180 726 176 c 0
 718 174 710 175 702 175 c 2
 425 175 l 1
 388 0 l 1
 285 0 l 1
 323 175 l 1
 57 175 l 2
 17 175 10 197 10 212 c 0
417 387 m 1
 422 374 l 1
 434 387 l 1
 417 387 l 1
EndSplineSet
EndChar

StartChar: brokenbar
Encoding: 166 166 349
Width: 175
Flags: HW
TeX: 750 222
ItalicCorrection: 101
DStem2: 14.6475 -221 64.9229 -221 0.207912 0.978148<25.8428 399.256 606.588 976.124>
LayerCount: 2
Fore
SplineSet
20 -196 m 0
 20 -190 23 -183 24 -177 c 2
 91 142 l 2
 94 158 97 182 120 182 c 0
 132 182 142 172 144 160 c 0
 145 153 143 145 141 138 c 2
 73 -183 l 2
 71 -190 68 -221 44 -221 c 0
 31 -221 20 -211 20 -196 c 0
141 372 m 0
 141 378 143 385 144 391 c 2
 212 710 l 2
 215 724 218 749 241 749 c 0
 254 749 265 739 265 724 c 0
 265 718 262 711 261 705 c 2
 193 385 l 2
 190 371 188 347 165 347 c 0
 152 347 141 357 141 372 c 0
EndSplineSet
EndChar

StartChar: dieresis.ts1
Encoding: 62030 62030 350
Width: 525
Flags: HW
TeX: 694 0
ItalicCorrection: 74
HStem: 582 113<251 340 455 544>
LayerCount: 2
Fore
SplineSet
227 582 m 1
 251 695 l 1
 364 695 l 1
 340 582 l 1
 227 582 l 1
431 582 m 1
 455 695 l 1
 568 695 l 1
 544 582 l 1
 431 582 l 1
EndSplineSet
EndChar

StartChar: copyright
Encoding: 169 169 351
Width: 1091
Flags: HW
TeX: 750 222
HStem: -239 49<373.369 627.773> -17 80<516.92 746.141> 424 79<586.03 796.665> 718 49<574.695 828.831>
VStem: 103 49<30.033 292.512> 307 106<148.458 287.454> 1050 49<235.638 497.302>
LayerCount: 2
Fore
SplineSet
307 204 m 0
 307 349 486 503 729 503 c 0
 784 503 817 498 874 479 c 1
 833 375 l 1
 804 401 775 424 708 424 c 0
 550 424 413 323 413 217 c 0
 413 134 496 63 634 63 c 0
 708 63 732 74 799 110 c 1
 789 22 l 1
 709 -13 685 -17 616 -17 c 0
 426 -17 307 83 307 204 c 0
EndSplineSet
Refer: 297 9675 S 1 0 0 1 0 0 3
EndChar

StartChar: ordfeminine
Encoding: 170 170 352
Width: 467
Flags: HW
TeX: 750 0
ItalicCorrection: 111
HStem: 250 76<6.07696 421.863> 367 75<101.5 220.877> 477 46<153.815 277> 692 70<197.207 310.839>
VStem: 321 96<523.593 687.687>
LayerCount: 2
Fore
SplineSet
2 288 m 0
 2 303 12 322 35 325 c 0
 42 326 50 326 57 326 c 2
 376 326 l 2
 389 326 399 325 407 320 c 0
 419 313 426 301 426 288 c 0
 426 278 421 250 380 250 c 2
 47 250 l 2
 7 250 2 279 2 288 c 0
56 446 m 0
 56 490 70 513 303 523 c 1
 303 524 l 1
 318 597 321 608 321 629 c 0
 321 650 315 682 296 690 c 0
 292 692 287 692 279 692 c 0
 205 692 149 637 141 631 c 1
 151 715 l 1
 192 741 236 761 298 762 c 1
 300 762 l 2
 379 762 417 697 417 629 c 0
 417 604 416 602 368 375 c 1
 274 375 l 1
 286 435 l 1
 218 369 149 367 132 367 c 0
 71 367 56 415 56 446 c 0
151 470 m 1
 151 459 152 442 199 442 c 0
 236 442 257 458 277 477 c 1
 263 477 175 477 151 470 c 1
EndSplineSet
EndChar

StartChar: copyleft
Encoding: 61713 61713 353
Width: 1091
Flags: HW
TeX: 750 222
HStem: -239 49<373.369 627.773> -17 80<375.184 609.787> 424 79<462.172 676.436> 718 49<574.695 828.831>
VStem: 103 49<30.033 292.512> 780 106<199.952 337.557> 1050 49<235.638 497.302>
LayerCount: 2
Fore
SplineSet
311 22 m 1
 337 110 l 1
 373 85 395 63 483 63 c 0
 655 63 780 172 780 270 c 0
 780 362 683 424 563 424 c 0
 485 424 448 395 415 375 c 1
 419 479 l 1
 464 493 513 503 576 503 c 0
 752 503 886 415 886 282 c 0
 886 133 704 -17 462 -17 c 0
 394 -17 364 -8 311 22 c 1
EndSplineSet
Refer: 297 9675 S 1 0 0 1 0 0 3
EndChar

StartChar: logicalnot
Encoding: 172 172 354
Width: 642
Flags: HW
TeX: 430 0
ItalicCorrection: 62
HStem: 315 50<131.229 600>
LayerCount: 2
Fore
SplineSet
131 340 m 0
 131 350 135 365 164 365 c 2
 622 365 l 2
 650 365 654 349 654 339 c 0
 654 330 655 337 613 140 c 0
 610 126 607 100 584 100 c 0
 571 100 560 111 560 124 c 0
 560 131 565 152 600 315 c 1
 159 315 l 1
 134 316 131 333 131 340 c 0
EndSplineSet
EndChar

StartChar: uni2117
Encoding: 8471 8471 355
Width: 1091
Flags: HW
TeX: 750 222
HStem: -239 49<373.369 627.773> 0 21G<318 425.217> 166 77<473 751.626> 407 79<508 782.725> 718 49<574.695 828.831>
VStem: 103 49<30.033 292.512> 809 99<288.471 381.876> 1050 49<235.638 497.302>
DStem2: 267.199 -239 370.199 -239 0.207912 0.978148<265.754 435.404 514.256 681.949>
LayerCount: 2
Fore
SplineSet
318 0 m 1
 422 486 l 1
 658 486 l 2
 663 486 668 487 673 487 c 0
 875 487 908 390 908 347 c 0
 908 275 816 166 613 166 c 2
 456 166 l 1
 421 0 l 1
 318 0 l 1
473 243 m 1
 631 243 l 2
 663 243 725 246 764 269 c 0
 788 283 809 310 809 338 c 0
 809 402 725 407 660 407 c 2
 508 407 l 1
 473 243 l 1
EndSplineSet
Refer: 297 9675 S 1 0 0 1 0 0 3
EndChar

StartChar: registered
Encoding: 174 174 356
Width: 1091
Flags: HW
TeX: 750 222
HStem: -239 49<373.369 627.773> 0 21G<318 425.195 748.122 866> 205 76<480 629> 407 79<508 793.246> 718 49<574.695 828.831>
VStem: 103 49<30.033 292.512> 812 99<313.767 386.52> 1050 49<235.638 497.302>
DStem2: 267.199 -239 370.199 -239 0.207912 0.978148<265.754 475.215 552.881 681.949> 723 216 629 205 0.552025 -0.833828<0 201.084>
LayerCount: 2
Fore
SplineSet
318 0 m 1
 422 486 l 1
 665 486 l 2
 727 486 774 482 823 461 c 0
 880 436 911 401 911 361 c 0
 911 332 897 261 723 216 c 1
 866 0 l 1
 761 0 l 1
 629 205 l 1
 464 205 l 1
 421 0 l 1
 318 0 l 1
480 281 m 1
 633 281 l 2
 695 281 762 283 796 318 c 0
 805 327 812 339 812 352 c 0
 812 404 721 407 677 407 c 2
 508 407 l 1
 480 281 l 1
EndSplineSet
Refer: 297 9675 S 1 0 0 1 0 0 3
EndChar

StartChar: macron.uc
Encoding: 65547 -1 357
Width: 817
Flags: HW
TeX: 694 0
HStem: 645 50<230.465 869.696>
LayerCount: 2
Fore
SplineSet
230 669 m 0
 230 673 232 695 262 695 c 2
 839 695 l 2
 868 695 870 674 870 670 c 0
 870 649 853 645 837 645 c 2
 261 645 l 2
 232 645 230 664 230 669 c 0
EndSplineSet
EndChar

StartChar: degree
Encoding: 176 176 358
Width: 350
Flags: HW
TeX: 694 0
HStem: 462 49<235.33 332.046> 645 49<261.443 358.396>
VStem: 179 49<519.018 610.572> 366 50<543.596 637.58>
LayerCount: 2
Fore
SplineSet
179 560 m 0
 179 635 250 694 317 694 c 0
 377 694 416 651 416 597 c 0
 416 528 352 462 278 462 c 0
 224 462 179 501 179 560 c 0
228 560 m 0
 228 531 248 511 278 511 c 0
 325 511 366 556 366 597 c 0
 366 626 347 645 317 645 c 0
 271 645 228 601 228 560 c 0
EndSplineSet
EndChar

StartChar: plusminus
Encoding: 177 177 359
Width: 642
Flags: HW
TeX: 523 -1
ItalicCorrection: 26
HStem: 89 49<83.171 325 375 605.641> 327 49<133.195 365 426 656.797>
VStem: 424 46<508.851 612.892>
DStem2: 314.585 89 364.585 89 0.207912 0.978148<60.4903 243.281 303.893 508.862>
LayerCount: 2
Fore
SplineSet
83 114 m 0
 83 127 95 135 104 137 c 0
 109 138 115 138 121 138 c 2
 325 138 l 1
 365 327 l 1
 167 327 l 2
 155 327 133 329 133 351 c 0
 133 372 150 376 168 376 c 2
 375 376 l 1
 422 598 419 590 424 599 c 0
 428 607 437 613 446 613 c 0
 462 613 470 598 470 588 c 0
 470 577 463 551 426 376 c 1
 624 376 l 2
 652 376 657 361 657 351 c 0
 657 341 652 327 624 327 c 2
 415 327 l 1
 375 138 l 1
 569 138 l 2
 585 138 605 136 606 114 c 1
 605 93 589 89 575 89 c 2
 116 89 l 2
 87 89 83 104 83 114 c 0
EndSplineSet
EndChar

StartChar: twosuperior
Encoding: 178 178 360
Width: 467
Flags: HW
TeX: 750 0
ItalicCorrection: 130
HStem: 347 84<143 185.941 225 487> 687 80<269.878 425.112>
VStem: 445 101<572.496 666.496>
LayerCount: 2
Fore
SplineSet
125 347 m 1
 143 430 l 1
 275 497 258 491 310 510 c 0
 354 526 445 554 445 625 c 0
 445 674 388 687 350 687 c 0
 286 687 255 657 226 629 c 1
 192 701 l 1
 245 740 300 767 380 767 c 0
 483 767 546 717 546 642 c 0
 546 534 445 531 352 492 c 0
 339 487 327 480 225 431 c 1
 505 431 l 1
 487 347 l 1
 125 347 l 1
EndSplineSet
EndChar

StartChar: threesuperior
Encoding: 179 179 361
Width: 467
Flags: HW
TeX: 750 0
ItalicCorrection: 130
HStem: 339 77<141.593 395.753> 523 76<302 404.389> 691 76<271.924 429.816>
VStem: 418 105<436.653 512.838>
LayerCount: 2
Fore
SplineSet
119 357 m 1
 147 434 l 1
 200 423 257 416 319 416 c 0
 404 416 418 458 418 479 c 0
 418 517 376 523 339 523 c 2
 286 523 l 1
 302 599 l 1
 325 601 382 600 414 627 c 1
 426 639 434 649 433 665 c 1
 431 673 l 1
 422 687 410 691 378 691 c 2
 376 691 l 2
 322 691 277 674 240 655 c 1
 212 725 l 1
 261 747 322 767 390 767 c 0
 481 767 534 722 534 671 c 0
 534 604 459 565 448 559 c 1
 468 551 523 528 523 482 c 0
 523 429 445 339 295 339 c 0
 224 339 154 350 119 357 c 1
EndSplineSet
EndChar

StartChar: uni00B5
Encoding: 181 181 363
Width: 517
Flags: HW
TeX: 470 166
ItalicCorrection: 64
HStem: -167 21G<29 129.277> -8 71<182.486 278.411> -0 21G<358 456.237> 452 20G<160.743 261 451.749 552>
DStem2: 29 -167 125 -167 0.207912 0.978148<19.9595 186.649 284.586 653.312> 322.503 -167 416.503 -167 0.207912 0.978148<190.275 247.419 278.699 652.792>
LayerCount: 2
Fore
SplineSet
29 -167 m 1
 165 472 l 1
 261 472 l 1
 190 137 l 2
 185 110 182 100 182 91 c 0xd0
 182 67 200 63 250 63 c 0xd0
 380 63 395 185 395 185 c 1
 456 472 l 1
 552 472 l 1
 452 -0 l 1
 358 -0 l 1xb0
 374 75 l 1
 355 57 288 -8 159 -8 c 1
 125 -167 l 1
 29 -167 l 1
EndSplineSet
EndChar

StartChar: paragraph
Encoding: 182 182 364
Width: 642
Flags: HW
TeX: 694 166
HStem: -166 21G<341 358.5 463 480.5> 645 50<540 612 662 752.728>
DStem2: 317.01 -166 367.348 -166 0.207912 0.978148<22.3978 415.006> 439.222 -166 489.498 -166 0.207912 0.978148<17.6976 829.2>
LayerCount: 2
Fore
SplineSet
153 432 m 0
 153 488 184 591 307 655 c 0
 387 696 439 695 508 695 c 2
 718 695 l 2
 729 695 753 694 753 670 c 0
 753 667 752 645 724 645 c 2
 662 645 l 1
 498 -126 l 2
 495 -140 492 -166 469 -166 c 0
 457 -166 449 -157 447 -150 c 0
 444 -140 447 -130 449 -120 c 2
 612 645 l 1
 540 645 l 1
 375 -130 l 2
 373 -139 370 -166 347 -166 c 0
 335 -166 325 -157 324 -145 c 0
 323 -136 325 -127 327 -119 c 2
 403 240 l 1
 261 250 153 317 153 432 c 0
EndSplineSet
EndChar

StartChar: periodcentered
Encoding: 183 183 365
Width: 258
Flags: HW
TeX: 470 0
HStem: 203 94<145 219>
VStem: 125 114
LayerCount: 2
Fore
SplineSet
125 203 m 1
 145 297 l 1
 239 297 l 1
 219 203 l 1
 125 203 l 1
EndSplineSet
EndChar

StartChar: uni203B
Encoding: 8251 8251 366
Width: 635
Flags: HW
TeX: 523 0
ItalicCorrection: 16
HStem: -0 130<295 379.629> 195 129<143 226.629 531 614.629> 389 130<357.797 469.547>
VStem: 341 145<399.547 508.855>
DStem2: 87 56 104 6 0.770962 0.636881<-34.8468 324.407 374.386 730.255> 215 499 182 462 0.618284 -0.785955<-27.1583 260.664 311.353 595.505>
CounterMasks: 1 e0
LayerCount: 2
Fore
SplineSet
64 24 m 0
 64 40 80 50 87 56 c 2
 338 263 l 1
 182 462 l 2
 173 473 164 482 164 494 c 0
 164 506 174 518 188 518 c 0
 202 518 208 507 215 499 c 2
 376 294 l 1
 633 507 l 2
 639 512 645 516 653 518 c 1
 660 518 l 1
 671 516 680 506 680 494 c 0
 680 478 663 468 656 462 c 2
 407 256 l 1
 407 255 l 1
 424 235 439 214 569 49 c 0
 574 43 578 36 580 28 c 1
 579 9 570 1 559 1 c 0
 554 1 548 2 543 5 c 0
 533 13 444 128 369 224 c 1
 104 6 l 2
 98 2 92 1 87 1 c 0
 74 1 64 10 64 24 c 0
105 220 m 1
 105 220 117 299 130 317 c 1
 136 321 l 1
 143 323 l 1
 155 324 l 1
 221 324 l 2
 229 324 251 322 251 298 c 1
 251 298 239 220 227 203 c 1
 219 197 217 195 201 195 c 2
 134 195 l 2
 130 195 105 195 105 220 c 1
258 26 m 1
 258 26 270 105 282 122 c 1
 289 126 l 1
 295 129 l 1
 308 130 l 1
 374 130 l 2
 382 130 403 128 403 104 c 1
 403 104 392 25 380 8 c 1
 372 2 370 0 354 -0 c 2
 287 -0 l 2
 284 0 258 1 258 26 c 1
341 413 m 0
 341 423 345 440 354 483 c 0
 360 510 364 519 391 519 c 2
 452 519 l 2
 481 519 486 505 486 495 c 0
 486 488 484 475 472 419 c 0
 466 393 456 389 436 389 c 2
 372 389 l 2
 362 389 341 390 341 413 c 0
494 220 m 1
 494 220 505 300 518 317 c 1
 524 321 l 1
 531 323 l 1
 543 324 l 1
 610 324 l 2
 618 324 639 323 639 299 c 1
 639 299 627 220 615 203 c 1
 607 197 605 195 589 195 c 2
 523 195 l 2
 519 195 494 195 494 220 c 1
EndSplineSet
EndChar

StartChar: onesuperior
Encoding: 185 185 367
Width: 467
Flags: HW
TeX: 750 0
ItalicCorrection: 130
HStem: 347 76<177 286 384 467> 616 76<220 325.384>
VStem: 161 322
DStem2: 269.846 347 367.846 347 0.207912 0.978148<98.0732 298.542>
LayerCount: 2
Fore
SplineSet
161 347 m 1
 177 423 l 1
 286 423 l 1
 332 639 l 1
 308 630 268 616 204 616 c 1
 220 692 l 1
 348 693 409 746 432 767 c 1
 456 767 l 1
 384 423 l 1
 483 423 l 1
 467 347 l 1
 161 347 l 1
EndSplineSet
EndChar

StartChar: ordmasculine
Encoding: 186 186 368
Width: 467
Flags: HW
TeX: 750 0
ItalicCorrection: 111
HStem: 250 76<6.07696 421.863> 367 78<179.625 324.691> 687 75<220.843 369.189>
VStem: 64 96<465.367 611.832> 387 93<517.463 668.416>
LayerCount: 2
Fore
SplineSet
2 288 m 0
 2 303 12 322 35 325 c 0
 42 326 50 326 57 326 c 2
 376 326 l 2
 389 326 399 325 407 320 c 0
 419 313 426 301 426 288 c 0
 426 278 421 250 380 250 c 2
 47 250 l 2
 7 250 2 279 2 288 c 0
64 522 m 0
 64 646 188 762 315 762 c 0
 409 762 480 699 480 602 c 0
 480 479 360 367 230 367 c 0
 136 367 64 429 64 522 c 0
160 520 m 0
 160 464 198 445 246 445 c 0
 334 445 365 498 380 561 c 0
 383 573 387 595 387 614 c 0
 387 669 350 687 304 687 c 0
 210 687 178 643 162 545 c 0
 161 537 160 528 160 520 c 0
EndSplineSet
EndChar

StartChar: radical
Encoding: 8730 8730 369
Width: 496
Flags: HW
TeX: 750 173
ItalicCorrection: 159
HStem: 695 49<578 703.728>
DStem2: 38 76 81 23 0.632903 0.774231<0 92.8463> 243 127 205 -62 0.441992 0.897019<0 657.574>
LayerCount: 2
Fore
SplineSet
38 75 m 1
 38 76 l 1
 244 328 l 1
 244 228 l 1
 243 185 l 1
 243 127 l 1
 540 728 l 2
 549 744 560 744 573 744 c 2
 670 744 l 2
 698 744 704 729 704 719 c 0
 704 695 680 695 668 695 c 2
 578 695 l 1
 205 -62 l 2
 195 -82 189 -86 169 -86 c 2
 148 -86 l 1
 148 106 l 1
 81 23 l 1
 38 75 l 1
EndSplineSet
EndChar

StartChar: onequarter
Encoding: 188 188 370
Width: 467
Flags: HW
TeX: 750 166
ItalicCorrection: 130
HStem: -167 21G<208 306.516> -105 80<126 221 332 414> 267 49<66.217 521.855> 365 76<180 290 387 471> 653 75<227 335.737>
DStem2: 160.766 -167 257.766 -167 0.207912 0.978148<641.75 848.504> 208 -167 302 -167 0.207912 0.978148<19.5437 63.348 164.678 320.714>
LayerCount: 2
Fore
SplineSet
6 -105 m 1
 20 -39 l 1
 24 -26 l 1
 35 -13 l 1
 266 226 l 1
 386 226 l 1
 332 -25 l 1
 431 -25 l 1
 414 -105 l 1
 316 -105 l 1
 302 -167 l 1
 208 -167 l 1
 221 -105 l 1
 6 -105 l 1
66 292 m 0
 66 314 85 316 100 316 c 2
 488 316 l 2
 502 316 522 315 522 291 c 0
 522 285 520 267 490 267 c 2
 98 267 l 2
 92 267 66 267 66 292 c 0
126 -25 m 1
 242 -25 l 1
 278 146 l 1
 261 117 208 61 126 -25 c 1
164 365 m 1
 180 441 l 1
 290 441 l 1
 337 663 l 1
 312 658 287 654 211 653 c 1
 227 728 l 1
 405 730 408 767 446 767 c 2
 456 767 l 1
 387 441 l 1
 486 441 l 1
 471 365 l 1
 164 365 l 1
EndSplineSet
EndChar

StartChar: onehalf
Encoding: 189 189 371
Width: 467
Flags: HW
TeX: 750 166
ItalicCorrection: 130
HStem: -167 80<121 378> 160 75<152.916 321.291> 267 49<66.217 521.855> 365 76<180 290 387 471> 653 75<227 335.737>
VStem: 335 102<58.1297 144.342>
DStem2: 155 -26 121 -87 0.884137 0.467227<-58.5615 205.693> 160.766 -167 257.766 -167 0.207912 0.978148<641.75 848.504>
LayerCount: 2
Fore
SplineSet
16 -167 m 1
 32 -91 l 1
 155 -26 l 1
 228 6 335 35 335 108 c 0
 335 129 320 160 239 160 c 0
 189 160 157 145 117 115 c 1
 82 186 l 1
 142 217 193 235 268 235 c 0
 350 235 437 205 437 122 c 0
 437 19 320 13 241 -27 c 2
 121 -87 l 1
 395 -87 l 1
 378 -167 l 1
 16 -167 l 1
66 292 m 0
 66 314 85 316 100 316 c 2
 488 316 l 2
 502 316 522 315 522 291 c 0
 522 285 520 267 490 267 c 2
 98 267 l 1
 71 268 66 282 66 292 c 0
164 365 m 1
 180 441 l 1
 290 441 l 1
 337 663 l 1
 312 658 287 654 211 653 c 1
 227 728 l 1
 405 730 408 767 446 767 c 2
 456 767 l 1
 387 441 l 1
 486 441 l 1
 471 365 l 1
 164 365 l 1
EndSplineSet
EndChar

StartChar: threequarters
Encoding: 190 190 372
Width: 467
Flags: HW
TeX: 750 166
ItalicCorrection: 130
HStem: -167 21G<208 306.516> -105 80<126 221 332 414> 267 49<66.217 521.768> 349 77<146 397.859> 356 76<143.513 285> 528 75<302 407.404> 666 21G<234 261> 691 76<251.007 430.267>
DStem2: 208 -167 302 -167 0.207912 0.978148<19.5437 63.348 164.678 320.714>
LayerCount: 2
Fore
SplineSet
6 -105 m 1
 20 -39 l 1
 24 -26 l 1
 35 -13 l 1
 266 226 l 1
 386 226 l 1
 332 -25 l 1
 431 -25 l 1
 414 -105 l 1
 316 -105 l 1
 302 -167 l 1
 208 -167 l 1
 221 -105 l 1
 6 -105 l 1
66 292 m 0
 66 314 85 316 100 316 c 2
 483 316 l 2
 491 316 500 318 508 314 c 0
 517 310 522 300 522 291 c 0
 522 283 519 267 490 267 c 2
 98 267 l 2
 92 267 66 267 66 292 c 0
119 356 m 1
 146 432 l 1xef
 224 428 l 1
 285 426 l 1
 318 426 l 2xf7
 338 426 360 427 379 434 c 0
 401 443 421 465 419 490 c 1
 415 505 410 528 341 528 c 2
 286 528 l 1
 302 603 l 1
 345 607 387 608 414 629 c 0
 425 638 434 652 433 667 c 1
 431 674 l 1
 425 681 425 691 376 691 c 0
 323 691 280 679 242 666 c 1
 214 736 l 1
 265 753 323 767 388 767 c 0
 497 767 534 711 534 673 c 0
 534 607 460 568 451 563 c 1
 490 549 524 523 524 488 c 0
 524 440 453 349 296 349 c 0xf7
 225 349 154 353 119 356 c 1
126 -25 m 1xe7
 242 -25 l 1
 278 146 l 1
 261 117 208 61 126 -25 c 1xe7
EndSplineSet
EndChar

StartChar: Euro.old
Encoding: 62028 62028 373
Width: 817
Flags: HW
TeX: 694 0
ItalicCorrection: 118
HStem: -17 80<453.552 681.569> 235 75<137 190 304 636> 385 74<169 206 352 723> 632 79<567.119 798.041>
LayerCount: 2
Fore
SplineSet
93 235 m 1
 137 310 l 1
 190 310 l 1
 196 347 l 1
 206 385 l 1
 125 385 l 1
 169 459 l 1
 241 459 l 1
 326 598 505 711 720 711 c 0
 789 711 841 701 901 677 c 1
 843 579 l 1
 820 597 785 632 699 632 c 0
 582 632 444 582 352 459 c 1
 767 459 l 1
 723 385 l 1
 311 385 l 1
 301 349 l 1
 295 310 l 1
 680 310 l 1
 636 235 l 1
 304 235 l 1
 316 202 331 162 384 122 c 0
 399 111 462 63 578 63 c 0
 670 63 700 85 761 126 c 1
 739 24 752 43 702 15 c 0
 653 -12 617 -17 563 -17 c 0
 334 -17 215 113 194 235 c 1
 93 235 l 1
EndSplineSet
EndChar

StartChar: multiply
Encoding: 215 215 374
Width: 642
Flags: HW
TeX: 523 -1
ItalicCorrection: 26
DStem2: 380 299 236 402 0.618022 -0.786161<-205.299 0 50.0871 254.713>
LayerCount: 2
Fore
SplineSet
149 97 m 0
 149 112 143 103 342 268 c 1
 331 281 320 295 236 402 c 0
 223 419 221 422 220 435 c 1
 222 450 232 454 242 456 c 1
 245 456 l 2
 260 456 258 454 380 299 c 1
 575 461 563 454 581 456 c 1
 591 454 597 453 603 436 c 0
 603 434 604 432 604 430 c 0
 604 416 587 406 410 260 c 1
 421 247 432 233 516 126 c 0
 534 103 531 104 532 94 c 1
 531 77 516 73 510 72 c 1
 508 72 l 2
 493 72 494 74 372 229 c 1
 177 67 190 74 172 72 c 1
 172 72 149 74 149 97 c 0
EndSplineSet
EndChar

StartChar: divide
Encoding: 247 247 375
Width: 642
Flags: HW
TeX: 523 -1
ItalicCorrection: 26
HStem: -34 166<260.598 401.109> 240 49<115.217 637.691> 396 166<352.828 489.905>
VStem: 236 190<-1.9742 99.9742> 236 168<-30.6718 99.9473>
LayerCount: 2
Fore
SplineSet
115 264 m 0
 115 286 134 289 148 289 c 2
 608 289 l 2
 635 289 638 270 638 263 c 0
 638 258 636 239 606 239 c 0
 602 239 598 240 594 240 c 2
 147 240 l 2
 119 240 115 254 115 264 c 0
236 -8 m 0xe8
 236 3 240 14 258 100 c 0
 261 115 264 122 275 129 c 1
 283 132 281 132 297 132 c 2
 389 132 l 2
 404 132 426 131 426 106 c 0xf0
 426 95 422 84 404 -2 c 0xe8
 401 -17 399 -24 388 -31 c 1
 381 -34 380 -34 369 -34 c 2
 270 -34 l 2
 255 -34 236 -31 236 -8 c 0xe8
328 422 m 0
 328 433 332 444 350 530 c 0
 353 545 355 552 366 559 c 1
 373 561 373 562 384 562 c 2
 484 562 l 2
 500 562 517 558 517 536 c 0
 517 524 493 418 490 411 c 1
 488 409 485 396 461 396 c 2
 361 396 l 2xe0
 343 396 328 401 328 422 c 0
EndSplineSet
EndChar

StartChar: cyrflex
Encoding: 63189 63189 377
Width: 525
Flags: HW
TeX: 666 0
ItalicCorrection: 91
HStem: 593 82<299.328 473.563>
VStem: 192 75<537 565.358> 484 78<537 577.506>
LayerCount: 2
Fore
SplineSet
192 537 m 1
 220 645 339 675 404 675 c 0
 494 675 562 630 562 562 c 0
 562 552 560 538 559 537 c 1
 484 537 l 1
 484 545 l 2
 484 574 459 593 390 593 c 0
 333 593 281 582 267 537 c 1
 192 537 l 1
EndSplineSet
EndChar

StartChar: cyrbreve
Encoding: 63188 63188 379
Width: 525
Flags: HW
TeX: 666 0
ItalicCorrection: 91
HStem: 530 83<305.031 479.712> 647 20G<219 295 505.5 587>
VStem: 217 78<626.711 667> 512 75<638.898 667>
LayerCount: 2
Fore
SplineSet
217 642 m 0
 217 650 218 659 220 667 c 1
 295 667 l 1
 295 660 l 2
 295 635 313 613 390 613 c 0
 446 613 499 622 512 667 c 1
 587 667 l 1
 559 560 439 530 375 530 c 0
 285 530 217 575 217 642 c 0
EndSplineSet
EndChar

StartChar: emdash.cyr
Encoding: 61715 61715 380
Width: 846
Flags: HW
TeX: 472 0
ItalicCorrection: 91
HStem: 254 76<84 884>
LayerCount: 2
Fore
SplineSet
68 254 m 1
 84 330 l 1
 900 330 l 1
 884 254 l 1
 68 254 l 1
EndSplineSet
EndChar

StartChar: afii10050
Encoding: 1168 1168 382
Width: 581
Flags: HW
TeX: 861 0
ItalicCorrection: 133
HStem: -0 21G<80 189.228> 615 80<315 601>
DStem2: 80 -0 185 -0 0.207912 0.978148<21.8307 650.42> 453.273 -0 536.278 -0 0.207912 0.978148<710.527 880.176>
LayerCount: 2
Fore
SplineSet
80 -0 m 1
 227 694 l 1
 228 695 l 1
 601 695 l 1
 636 861 l 1
 720 861 l 1
 667 615 l 1
 315 615 l 1
 185 -0 l 1
 80 -0 l 1
EndSplineSet
EndChar

StartChar: uni0492
Encoding: 1170 1170 383
Width: 567
Flags: HW
TeX: 694 0
ItalicCorrection: 133
HStem: 0 21G<80 189.198> 324 75<103 149 270 374> 615 80<315 653>
DStem2: 80 0 185 0 0.207912 0.978148<21.8307 331.266 429.784 650.42>
LayerCount: 2
Fore
SplineSet
80 0 m 1
 149 324 l 1
 87 324 l 1
 103 399 l 1
 165 399 l 1
 228 695 l 1
 670 695 l 1
 653 615 l 1
 315 615 l 1
 270 399 l 1
 390 399 l 1
 374 324 l 1
 253 324 l 1
 185 0 l 1
 80 0 l 1
EndSplineSet
EndChar

